<?xml version="1.0" encoding="UTF-8"?>
<svg width="512pt" height="512pt" version="1.1" viewBox="0 0 512 512" xmlns="http://www.w3.org/2000/svg">
 <g fill="#fff">
  <path d="m256 56.32c-22.586 0-40.961 18.375-40.961 40.961 0 5.6523 4.5859 10.238 10.238 10.238s10.238-4.5859 10.238-10.238c0-11.293 9.1836-20.48 20.48-20.48 5.6523 0 10.238-4.5859 10.238-10.238 0.003906-5.6562-4.582-10.242-10.234-10.242z"/>
  <path d="m337.92 179.2h-10.238l-0.003906-81.918c0-39.527-32.152-71.68-71.68-71.68s-71.68 32.152-71.68 71.68v81.922h-10.238c-5.6523 0-10.238 4.5859-10.238 10.238v30.719c0 5.6523 4.5859 10.238 10.238 10.238h35.84v245.76c0 5.6523 4.5859 10.238 10.238 10.238s10.238-4.5859 10.238-10.238v-245.76h51.199v153.6c0 5.6523 4.5859 10.238 10.238 10.238 5.6523 0 10.238-4.5859 10.238-10.238l0.003906-153.6h35.84c5.6523 0 10.238-4.5859 10.238-10.238v-30.719c0.003906-5.6523-4.582-10.242-10.234-10.242zm-133.12-81.918c0-28.23 22.969-51.199 51.199-51.199s51.199 22.969 51.199 51.199v81.922l-102.4-0.003906zm122.88 112.64h-143.36v-10.238h143.36z"/>
 </g>
</svg>
