<?xml version="1.0" encoding="UTF-8"?>
<svg width="512pt" height="512pt" version="1.1" viewBox="0 0 512 512" xmlns="http://www.w3.org/2000/svg">
 <g fill="#fff">
  <path d="m416.31 99.176c-42.879-23.09-99.59-35.805-159.69-35.805-60.098 0-116.81 12.715-159.69 35.805-45.535 24.512-71.328 56.996-71.328 93.383v126.23c0 36.391 25.328 69.93 70.855 94.449 42.875 23.09 99.719 35.805 159.82 35.805 60.098 0 116.73-12.707 159.61-35.801 45.523-24.508 70.52-58.047 70.52-94.43v-119.38-5.8125c0-36.391-24.559-69.93-70.086-94.441zm44.488 219.63c0 25.969-20.602 51.051-56.953 70.625-39.008 21.004-91.453 32.562-147.15 32.562-55.699 0-108.98-11.57-147.99-32.574-36.363-19.582-57.508-44.668-57.508-70.637v-63.293c15.359 11.984 26.926 22.973 44.742 32.566 42.875 23.086 100.08 35.801 160.18 35.801 60.105 0 117.64-12.715 160.52-35.801 17.598-9.4727 33.918-20.293 44.16-32.098zm0-120.4c-5.1211 24.25-22.625 47.461-56.734 65.832-39.008 21.008-91.453 32.566-147.15 32.566-55.707 0-108.01-11.566-147.02-32.566-36.363-19.578-56.453-44.66-56.453-70.629s19.984-51.051 56.34-70.625c39.008-21.008 91.152-32.574 146.86-32.574 55.707 0 107.84 12.059 146.85 33.059 36.336 19.57 57.297 45.488 57.309 71.086z"/>
  <path d="m374.63 179.2h-28.852-66.879-11.027c0.011718-10.238 0.03125-22.754 0.039062-34.055 0.011719-8.793 0.03125-17.66 0.039063-26.449 0-5.9922-5.0117-11.027-10.996-11.027-5.9961 0-10.988 4.9805-10.992 10.977-0.015626 14.141-0.035157 28.422-0.054688 42.559-0.007812 5.9453-0.019531 12.875-0.023438 17.996h-42.352-54.328-10.23c-5.918 0-10.859 4.3203-10.859 10.238s4.9414 10.238 10.859 10.238h28.855 66.879 11.156c-0.015625 10.238-0.03125 22.906-0.046875 34.145-0.011718 8.793-0.019531 17.797-0.03125 26.582-0.003906 5.9961 5.0078 11.105 10.992 11.105 5.9961 0 10.988-4.9492 10.996-10.941 0.011718-14.137 0.03125-28.684 0.050781-42.82 0.011719-5.8945 0.019531-12.953 0.019531-18.074h42.23 54.328 10.23c5.918 0 10.859-4.3203 10.859-10.238 0.003906-5.9141-4.9414-10.234-10.863-10.234z"/>
 </g>
</svg>
