<?xml version="1.0" encoding="UTF-8"?>
<svg width="512pt" height="512pt" version="1.1" viewBox="0 0 512 512" xmlns="http://www.w3.org/2000/svg">
 <g fill="#fff" fill-rule="evenodd">
  <path d="m491.34 463.28c3.0938 3.4375 0.44531 2.0977 0.38281 2.1758zm-9.2031-1.0391c1.6641-0.77734 2.1758-0.32422 3.5977 0.82812-3.4961 1.9062-2.75-0.22266-3.5977-0.82812zm7.9414-4.1328c1.1289 0.99609 0.42188-1.2383 1.168 1.2695 0.89844 3.0234-0.13281 1.4219-0.34375 1.8047-3.6172-3.0234-0.82812-3.0742-0.82812-3.0742zm-8.3047 0.03125c0.050781-0.03125 1.0273-3.1641 5.2227 0.82812-1.582 0.97656 2.2578 1.332-2.6523 0.79688-2.8945-0.3125-1.6523-1.0781-2.5703-1.6211zm6.6602-5.6328c0.66406 0.52344 0.67578-0.082031 1.1289 1.1406 0.5625 1.5234 0.23047 0.875 0.12109 2.3398-0.81641-1.0781-2.4102-1.6445-1.25-3.4766zm-7.3164-2.3672 4.5234 0.82812 0.89844 3.8789-4.1133 0.30078zm-9.4727-1.5c3.125 0.84766 4.2148 1.5312 2.832 4.4531-1.6523-0.59375-1.0273 0.23047-1.875-1.2617-0.37109-0.64453-0.80469-2.5078-0.95703-3.1953zm-12.648-1.9258c6.1875 0.40234 8.918-0.26172 10.168 5.3711-2.5078-0.35156-4.6758-0.76563-6.9961-1.332-4-0.97656-2.9023-0.12109-3.1758-4.043zm15.832-4.4258 7.7422-0.72656 1.4531 6.2305c-6.4805-0.25391-7.9414 0.089843-9.1914-5.5039zm-30.711 1.168c10.984 1.875 12.418 1.4219 12.789 5.5938-2.4883-0.019531-5.0508-0.73438-7.3594-1.3086-4.3242-1.0586-4.5977-0.24219-5.4336-4.2852zm24.23-4.5547c4.2422 0.69531 4.7891 3.1641 4.8477 7.2773l-2.3672 0.050781c-0.019531-0.10938-2.1367-5.918-2.4805-7.3281zm5.8672 1.4219 1.6523-0.53516zm-17.656-3.2969c3.3555 0.28125 5.1289 0.98828 8.8789 1.2812l1.6445 7.0469-8.918-1.2305c-0.59375-3.1328-1.3086-4.0703-1.6016-7.0938zm-15.371-2.5898c3.4961 0.089844 7.1758 0.80469 10.332 1.5117 3.8398 0.86719 3.3359 3.1133 4.1211 7.3359l-12.992-2.3789zm30.387-2.7305c4.0117 0.43359 3.4688 0.070313 6.5312 1.5625 3.0859 1.4922 2.6406 0.75781 3.2031 4.7969l-7.7109-0.65625-2.0273-5.7031zm-42.371 0.22266c11.602 1.3594 9.7344 2.1953 11.016 8.2148-2.9531-0.38281-6.6016-0.85547-10.047-2.5312zm36.625-1.2383c4.7461 0.82812 4.0117 1.2305 4.7188 6.1172-4.6367-0.55469-3.8711-1.3398-4.7188-6.1172zm-185.5 3.2539c-0.26172 0.10156-0.30078-0.73437 0.49219-0.83594 1.8438-0.23047-0.3125 0.76562-0.49219 0.83594zm174.52-4.5039 8.7188 0.80469 0.97656 5.5234-8.125-1.0977-1.5742-5.2305zm-26.395-5.6328 8.6992 1.793 1.2617 5.8867-7.4688-1.3086c-3.0625-0.875-2.6406-2.6211-2.4883-6.3711zm-167.68 36.988c0.17188-5.8242 4.6055-20.844 6.6133-25.742-0.17188 19.645-5.625 9.7344-2.2461 17.93 4.3945-2.9023 2.9922-1.9336 6.3086-5.7344 1.9062-2.1953 16.883-18.656 18.809-19.422-1.3594 1.9844-2.5586 2.2383-6.8438 8.3672l-5.3711 6.3281c-0.15234 0.17187-0.52344 0.64453-0.67578 0.80469-1.9961 2.125-2.1484 1.2695-5.0781 4.7773-2.4609 2.9414-8.7188 11.047-11.512 12.688zm9.625-29.27c-0.019532-0.85547-0.17188-1.9453-0.011719-2.8438 0.44531-2.5586 0.38281-1.5 1.4102-2.6289 2.6289 2.9219 0.22266 3.3242-1.4023 5.4727zm199.09-8.5156 8.3242 0.011719 1.8359 7.3789-8.3359-1.2305-1.8242-6.1562zm-29.832 3.4375 13.164 2.207 0.79688 5.2695-12.953-2.1172-1.0078-5.3633zm-146.7-1.9336-1.9336 2.5zm170.74-2.6797c3.8008 0.32422 2.8438-0.73438 3.9805 2.1484 0.5625 1.4219 0.64453 3.3477 0.86719 4.6758-4.6172-0.59375-4.3047-2.125-4.8477-6.8242zm-25.137-4.2422c3.2031 0.34375 7.0547 0.95703 9.8867 1.6133 4.2344 0.96875 3.3477 2.0352 3.4766 6.6211l-12.852-1.9453-0.51563-6.2891zm-167.05 5.9453c-0.28125-2.7305-0.29297-5.2695 0.95703-7.1562 1.7852 1.2695 2.2383 0.15234 1.6641 3.9102-0.42188 2.75-1.4805 2.2578-2.6211 3.2461zm181.88-3.0117 7.7188 0.70703 1.4727 6.4492c-8.707 0.089844-7.6094-0.17188-9.1914-7.1562zm-25.961-5.2305 8.9922 1.875 0.60547 6.1172-9.2617-1.8242-0.33203-6.168zm51.957 0.76562c1.7539 3.5156 3.5469 11.348 5.0273 15.684 1.168 3.3867 3.8906 13.043 3.5273 16.852-1.3711-2.0859-2.3398-1.9844-3.2656-6.3008-1.1094-5.1211-7.1641-23.676-5.293-26.234zm-11.801-2.0664 8.5664 1.2305 0.99609 5.5039-8.1523-0.54297-1.4102-6.1875zm-199.34 30.438 1.4531-11.418c2.7227 2.1367 3.7305-0.51562 5.332-2.6523l16.207-15.059c-2.3398 6.9336-1.6133 5.2812-10.582 14.895-4.3242 4.6367-10.008 12.961-12.406 14.23zm193.6-31.004c4.8359-0.44531 3.457 2.1562 4.7656 5.8164l-3.5273 0.21094c-0.29297-2.0273-0.77734-3.7305-1.2383-6.0273zm-9.8281-1.9062c7.6992 0.55469 7.4375 0.45312 8.6289 7.3672l-7.418-1.1172zm-14.484-3.125 11.984 2.4688 1.4219 6.5195c-4.2031-0.60547-9.2227-0.52344-12.73-2.7734l-0.67578-6.2188zm-144.59 16.117 0.91797-2.582c-6.6719 2.8945-5.3125 6.0391-10.391 8.7969l16.75-18.574c-2.3984 7.5977-0.21094 2.6094-3.3164 6.3594-1.3594 1.6445-2.2969 3.9492-3.9609 5.9961zm134.07-18.172 7.5195 1.4297 1.3594 6.6328-8.75-1.5234-0.13281-6.543zm-154.59 7.6602c0.48438-4.5156-0.10156-3.6484 3.5078-5.4531-0.3125 2.1484 0.24219 1.7734-1.0664 3.5977-0.47266 0.66406-2.418 1.8359-2.4375 1.8555zm3.3359 12.137c0.44531-3.2656 4.0938-9.0312 5.7148-9.9688 1.3594-0.77734-0.22266-0.79688 2.4805 0.43359 0.082031 0.03125 0.29297 0.16016 0.45312 0.19141 0.37109-4.5977 0.011718-3.6289 2.832-6.2891 3.6289-3.4375 1.6836-2.8711 5.7461-5.1211 0.34375 6.875-3.3555 7.8008-7.0156 11.246l-10.211 9.5039zm199.79-22.082c1.8555 1.1797 3.1328 4.1523 3.1445 6.5195 0 2.4492-0.15234 1.4219-0.95703 2.3789zm-181.68 11.391c-0.21094-4.2031 2.4883-6.0273 6.7812-8.5078-0.73438 2.9727-4.5039 6.8125-6.7812 8.5078zm-17.043 1.5742c0.25391-4.8867 0.35156-3.3047 4.2227-7.7617 1.793-2.0664 0.35156-1.1992 2.6914-2.125-0.69531 4.3555-2.3594 8.8594-6.9141 9.8867zm183.66-15.25c2.0156 0.39453 3.6484-1.4297 3.7812 6.4609 0.039063 2.5078-0.082031 1.4922-0.49219 2.4609-0.26172-0.03125-3.9102 1.3398-4.0625-5.918-0.10156-5.1211-0.089844-1.2383 0.77734-3.0039zm-10.117-1.168 6.9648 0.79688 1.4219 8.3164-6.4922-0.49219c-1.582-2.8633-1.6719-5.1914-1.8945-8.6172zm-14.129-2.6914 11.68 2.1562 1.3906 8.457-2.125-0.25391c-0.94922-0.19141-1.8945-0.42188-2.8438-0.625-7.8008-1.6445-7.7305 0.30078-8.1016-9.7344zm29.41 4.5156 7.6484 0.94922 1.8047 9.2305c-7.5-0.71484-9.5352 0.91797-9.4531-10.18zm-38.875-6.6406 7.0547 1.3086 0.89844 8.2148-7.7891-1.3789-0.16016-8.1445zm-148.44 12.992c-0.03125-2.2695 0.10156-4.5859 1.2188-6.7812 0.53516-1.0586 0.95703-1.4023 1.7656-2.2969 1.6328-1.8125 0.9375-1.2305 2.8633-2.4297-0.13281 5.5938-1.5625 8.5664-5.8438 11.512zm16.035-0.30078c-0.039063-3.6172 0.29297-5.9648 1.9336-7.8008 0.90625-1.0195 1.7031-1.4922 2.5-2.3867 2.418-2.6914-0.23047-1.0273 2.7422-2.6211-0.40234 5.4531 0.55469 6.7109-3.8711 10.43zm-9.2812 0.9375c-0.039063-4.3828 0.48437-5.1094 2.5391-7.5391 1.6719-1.957 4.1406-4.4141 6.4492-5.6836-0.95703 8.457-5.1211 8.6289-8.9922 13.223zm186.18-14.492 1.4219 6.1562c-5.582-0.3125-7.7812 0.53516-8.5273-4.6953l6.168 0.57422c1.6523-1.5312 0.47266-0.10938 0.9375-2.0352zm-235.41 2.6289c1.6836 0.95703 1.6328 3.8086 1.6836 6.8633zm222.44-2.4805 3.4766 0.96875 0.37109 3.5273c-4.3047-0.32422-3.0234-0.84766-3.8516-4.4961zm-182.27 7.1055c0.65625-3.2539 2.0664-6.0469 2.7227-9.3633-0.25391 4.1836-0.71484 7.0742-2.7227 9.3633zm173.26-8.4961 6.8555 1.1172 0.51562 4.2539-6.7227-0.91797-0.64453-4.4531zm-14.152-2.3477 11.793 1.5742 0.86719 4.7656c-4.8086-0.74609-7.7695-0.36328-11.883-2.75zm-139.25 7.2383c-0.28125-2.4805-0.21094-4.3555 1.1797-6.1289 0.79688-1.0273 3.6367-3.5273 5.2227-4.4531-0.058593 7.1367-3.4688 6.8555-6.3984 10.582zm-9.3945 1.0977c0.12109-8.3672 4.0625-10.199 8.8594-14.434-0.10156 5.0703 0.10156 5.7734-2.5898 8.6484-1.6719 1.7734-4.4766 4.7266-6.2695 5.7852zm-5.9375-2.9922c0.22266-6.8242 1.9258-9.1328 5.7656-11.75-0.058593 2.6016 0 4.9492-1.1992 7.0742-0.52344 0.91797-1.0586 1.4023-1.8047 2.2773-2.0039 2.3594 0.039063 0.89844-2.7617 2.3984zm176.65-12.75c2.7109 1.2891 3.4453 3.9609 3.6797 8.9688l-3.0625-0.82813c-0.53516-3.125-1.8438-5.2617-0.61328-8.1445zm-9.0117-1.2891 6.0078 0.72656 1.332 8.918c-6.5195-2.2383-7.5898 0.23047-7.3359-9.6445zm23.059 12.285-7.9922-1.957-2.0547-8.0938 7.9805 0.47266 2.0664 9.5742zm-37.293-14.121 11.641 1.4922 1.2305 8.293-11.941-2.0859-0.92578-7.6992zm-130.78 19.672c0.14062-3.5156 0.72656-6.7539 0.74609-9.7773 0.050781-6.9336 2.0664-5.3633 3.3672-8.3945 0.24219 4.3828-3.0039 13.969-4.1133 18.172zm152.67-19.312c-1.3906-5.5117-0.15234-2.793 0.52344-3.6992 2.1367 2.1953 0.875 0.96875 2.0547 3.9805l-2.582-0.28125zm3.6094-3.1758 8.1133 0.60547c0.050782 0.45312 0.17188 0.53516 0.20313 0.85547l0.79687 3.5898-7.6484-0.79687-1.4609-4.2539zm-162.88 11.016c0.625-1.3086 0.66406-10.492 7.3672-11.922-0.59375 4.8359-2.1172 10.312-7.3672 11.922zm151.01-12.641 5.4844 0.91797 0.61328 3.4062c-4.2227 0.27344-6.8242 0.54297-6.0977-4.3242zm-164.15 7.6211c0.17969-4.707 1.4102-5.4219 4.2734-8.3242 0.070313-0.082031 0.25391-0.26172 0.39453-0.38281-0.16016 5.9453-1.7656 5.4727-4.668 8.707zm149.74-9.8984c4.3555 0.47266 9.7773 1.1406 12.055 2.4375l-0.03125 3.1641c-3.5273 0.011719-4.082-0.10938-7.3672-0.80469-4.707-0.98828-4.2617 0.30078-4.6562-4.7969zm-144.48 13.828c-0.42188-6.0156-0.24219-6.0977 2.8438-9.3008 2.9141-3.0352 3.9414-4.6758 6.7734-6.0859-0.47266 2.582-1.6914 7.7695-2.793 9.3125-0.61328 0.85547-5.9375 5.4609-6.8242 6.0781zm16.941-6.6133c-0.82812-4.4844-0.66406-0.43359 0.42188-5.293 0.83594-3.7305 0.47266-3.2656 3.0117-5.4219-0.019531 5.3711-0.68359 7.7891-3.4375 10.715zm126.52-16.145 11.621 1.9961 0.90625 6.5508-11.902-2.0547zm30.195 10.754c-3.8203-0.21094-3.1836 0.49219-4.0625-2.6523-0.38281-1.3789-0.60547-3.1758-0.78516-4.4531l3.2969-0.20313zm-6.793-0.70703c-1.7852-2.5703-1.0977-4.0508-2.2188-7.1055 2.6914 0.30078 1.793-0.49219 2.5898 2.6094 1.0898 4.2734-0.37109 4.4961-0.37109 4.4961zm-8.6055-1.3008-1.1797-6.8047 5.5117 0.34375 1.2617 7.3164zm-147.77 4.0625c-0.69531-5.9375 2.3672-10.875 7.0352-14.121l-0.92578 8.3047c-1.8359 1.3398-5.1406 4.1836-6.1094 5.8164zm-8.6289-1.6719c0.79688-6.1484 0.97656-5 5.332-9.7148 2.0547-2.2266 1.0195-0.625 1.6914-2.3672 1.2305 2.0547 0.96875-2.3867 1.0586 2.7305 0.050782 2.75-6.6211 8.4453-8.082 9.3516zm-5.3398-1.1875c0.050781-6.3711 2.207-8.4258 5.918-11.27-0.59375 5.3203-2.9023 9.2812-5.918 11.27zm190.16 22.234c0.96875 5.2695 0.70703 2.8633-0.12109 3.9609-1.4531-2.5391-4.0625-16.328-4.9883-20.137-0.90625-3.75-5.3906-17.488-3.8281-19.703-0.019531 1.2812 3.8789 16.359 4.8477 20.078 2.0781 8.0117 2.2578 5.7734 4.0938 15.805zm-32.102-32.805c-2.5312-0.12109-6.7734-0.60547-9.0195-1.0781-3.2148-0.69531-2.7734-3.3477-2.2188-7.0352l10.109 1.1289zm-135.2 4.0117c-1.6133-5.4531 0.03125-8.457 4.1406-9.9492-0.70703 2.7422-0.46484 4.7266-1.2617 6.6719-0.91797 2.2266-1.3516 1.5234-2.8828 3.2773zm151.21-2.1055c-2.7617-0.66406-2.0781 1.2617-3.418-3.0117-0.41406-1.2812-0.54297-2.6211-0.79688-3.6289 3.7305 0.17969 3.6797 2.9023 4.2148 6.6406zm-4.9805-0.76562c-2.2188-2.1172-1.7031-2.3086-2.418-6.543 2.2969 0.83594 1.957 3.0547 2.418 6.543zm-3.6094-0.37109-5.3398-0.55469-1.5938-6.875 5.8867 0.44531zm-148.7-0.91797c-1.1602-2.832-0.73438-3.1836 0.68359-4.9297 0.43359-0.53516 2.1758-2.3594 3.0352-2.9023-1.5742 4.707-0.23047 5.6055-3.7188 7.832zm-221.95 3.7578c-1.9141 0.19141-50.523-9.1836-52.852-10.34 0.45312-2.7617 10.129 0.9375 12.82 1.1602 11.016 0.91797 16.359 3.2148 26.992 5.8047 3.2148 0.78516 10.48 2.2461 13.043 3.375zm228.57-15.109c2.6602-2.7734 3.7812-4.3555 6.9531-7.1562-0.089844 4.1133-0.40234 4.3828-2.2891 6.9531-1.5742 2.1484-1.7734 3.5469-4.375 4.7188 1.0469-2.2461 0.41406-2.125-0.29297-4.5156zm-14.07 3.375c0.57422-4.082 1.3008-4.3125 3.2656-6.6914 1.2305-1.4922 2.0781-2.6992 4.1719-4.6055 1.8047 4.7773-4.9297 7.2148-6.9258 12.387 4.3125-1.2617 1.8359-1.0586 5.5234-3.1758-1.0977 5.6758-0.81641 5.9062-5.2812 10.129l-2.582 2.0039c0.41406-2.5078 0.34375-3.8281 1.2891-5.8945 0.92578-2.0156 0.86719 0.72656 0.96875-1.9062 0.10156-2.75-0.74609-1.25-1.2109-1.6445l-4.1016 4.4336c-0.12109 0.12109-0.29297 0.30078-0.40234 0.42188l-1.5508 2.168c-1.4023-8.918 3.7812-12.719 6.5508-15.562-0.77734 5.3633-3.5664 4.1914-4.6367 10.43 3.3047-1.7734 0.70703-0.73438 3.0039-2.9531 1.1992-1.1602 1.4297 0.44531 1.543 0.050781 0.039062-0.16016 0.24219 0.27344 0.37109 0.40234zm158.63-6.7422c-0.40234-2.7109-1.0898-4.957-0.97656-8.0938 1.5 2.1055 4.3125 13.426 3.3359 15.441-2.125-1.7344-1.8633-4.0195-2.3594-7.3477zm-1.1875 4.4336c0.20312 3.75 0.03125 1.1797-0.61328 2.3789-0.32422-2.168-0.64453-3.9922-0.85547-6.1992-0.49219-5.1016-2.1367-4.6367-2.3789-4.8281-0.058594 0.16016-0.10938 0.41406-0.13281 0.50391-0.65625 3.8789 0.35156 2.2578-1.5117 3.2539-1.2891-0.73438-1.8359 1.0898-2.2891-4.9492l6.1484-0.14062 1.6328 9.9766zm-15.23-8.4375 0.23047-2.3672c6.0469 0.20312 4.3047 1.1289 6.0273 5.582-6.8125 0.19141-3.3242-1.25-6.2578-3.2148zm-132.64 0.45313c0.55469-4.8086 0.44531-5.6055 3.9492-7.4688-0.16016 5.5234 0.30078 5.7852-3.9492 7.4688zm144.84-8.75c0.73438 1.0469 0.91797-1.3086 1.0977 4.9102-0.50391-0.41406-1.4297 0.64453-1.9453-2.5703-0.65625-4.1133 0.14062-1.3203 0.84766-2.3398zm-145.5 17.395c-1.2305-5.3828 3.2461-6.4688 5.4219-8.6875l4.3828-4.7891c1.9141-1.582 2.6992-2.2188 4.1719-3.668-1.6914 8.0938-6.2305 7.3164-8.125 12.125-1.7734-3.9492-0.72656-1.957-1.7344-1.875-2.5508 4.1406 0.85547 4.8164-4.1211 6.8945zm-6.9961-6.7539c0.019532-3.1641 1.5938-3.4766 3.4453-5.2695 1.7227-1.6641 2.3867-2.9844 4.5156-4.3438-2.5391 3.6289-4.8359 6.8828-7.9609 9.6133zm-5.0898-0.089843c0.082031-4.4648 3.2969-8.0625 5.875-10.059-1.8242 8.2148-0.63672 5.1406-5.875 10.059zm155.66-5.875-3.5078-0.082031c-1.1992-2.1953-1.4297-3.4883-1.582-5.7539 1.7031 0.21094 3.4688 0.51562 5.5039 1.2305zm-6.4219-1.0664c-5.6445-0.59375-4.8164-0.33203-5.6328-5.6836l4.3633 0.61328zm-134.2-4.0938c0.37109-2.3086 0.50391-2.7734 2.6016-4.2031-0.875 2.0273-1.6523 2.3984-2.6016 4.2031zm-8.2148 3.5977c1.1406-6.2305 2.7109-7.7891 7.125-10.645-0.70703 4.9102-2.4688 8.0742-7.125 10.645zm150.68-13.527c0.75781 2.8125 2.2578 4.6875 0.65625 6.832-1.168 0.88672 0.57422 0.36328-1.5117 0.78516-8.4141 1.6719-8.0625-6.2695-8.5859-9.4141l9.4453 1.793zm-135.65 10.262c0.51562-3.1562 0.39453-5.0898 1.9336-7.125 1.7422-2.2891 3.2539-3.3555 5.0898-4.2227-1.3711 8.4453-0.83594 6.4609-5.0273 10.816l-5.2422 4.2617 0.75781-3.7305zm123.93-12.508 1.7539 8.5977-4.3242-0.011719-2.0352-9.1719zm-129.43 5.4023c0.43359-4.5859 0.011719-4.9492 3.1562-6.7812-0.13281 1.5742-0.10156 2.6016-0.75781 4.1211-1.1797 2.7812-0.9375 1.6523-2.3984 2.6602zm-4.957-2.6016c-0.34375-2.3398-0.77734-3.9805 4.1211-6.5703-0.25391 5.1719-2.4297 6.3984-5.0781 8.918-1.8828 1.8047-4.6172 5.3516-7.0352 6.7031 1.6914-5.0078 3.3242-6.7539 7.9922-9.0508zm140.63-4.0938-4.5547-1.582-0.83594-4.5469 8.707 0.41406 1.4102 6.4414c-1.7539-0.17188-2.8633-0.37109-4.7266-0.72656zm-128.2 4.4531c0.61328-4.5859 0.41406-3.1562 3.3242-5.9453 1.6719-1.6016 2.0664-2.6016 3.8906-4.2344l-1.168 5.4336c-3.5156 1.0078-4.3633 1.9453-6.0469 4.7461zm-3.7188-7.5c-1.543-1.1797-2.1172-0.35156-0.46484-3.0938zm124.12-3.9219 0.875 5.625-3.9414-0.33203c-1.1094-1.7852-1.543-3.668-1.5234-6.2891l4.5859 0.99609zm0.83594-8.9102c8.0312 0.85547 8.2539 0.59375 9.6445 7.5078l-8.3242-0.29297zm-120.26 13.898c-0.12109-6.6836 5.0586-7.4492 8.4961-12.336-0.625 7.3164-1.1172 4.3633-8.4961 12.336zm142.15 34.871c-2.4883-11.398-4.8867-18.707-6.8555-30.195-0.17188-0.94922-3.1133-8.3867-4.6055-16.266 4.0703-0.55469 3.2539 1.6133 4.4258 5.4922 0.85547 2.8516 1.8125 4.9102 2.6211 7.3281 0.77734 2.3672 0.41406 2.4609 0.82812 4.8477l3.4766 11.117c-0.039062 0.019532-0.25391 0.14062-0.28125 0.16016-0.03125 0.019532-0.23047 0.22266-0.24219 0.14063-0.019531-0.070313-0.15234 0.089843-0.22266 0.13281 0.52344 1.9766 0.75781 3.1055 1.543 4.9102l0.86719 3.3867c0.40234 5.8359 6.3008 19.09 6.8828 29.156-4.0703-0.99609-2.793-3.0742-6.2773-12.77-0.90625-2.5195-0.10156-1.9453-1.3789-4.3125l1.9844-1.7734-2.7617-1.3516zm-23.363-42.684-4.7969-0.88672-1.4727-6.5898 4.668 0.79688 1.2109 2.9141c0.26172 1.1875 0.3125 2.4102 0.39453 3.7695zm-118.92-5.5039c1.6523-2.5391-1.2109 1.8555 0 0zm-4.5859 5.1016c-0.15234-1.793-0.13281-2.6914 0.38281-4.5156 0.89844-3.1758 0.13281-1.8945 2.3086-3.1133-1.0977 4.5664 0.20312 4.2227-2.6914 7.6289zm6.9453-0.74609c-1.0195-2.0469-0.16016-2.8438 2.4297-5.4609 1.5234-1.543 3.125-2.7734 5.1289-4.1914-0.72656 3.6797-5.2422 7.7891-7.5586 9.6562zm126.91-9.1406c-0.23047-2.4375-0.30078-1.4414 1.2617-2.5898 1.6914 1.9453 1.8555 4.0625 1.5625 6.2695-2.5391-0.90625-2.4805-0.039063-2.8203-3.6797zm-10.352-4.4766c6.4922 0.88672 8.1523-0.011719 8.9102 7.5273l-8.1016-1.6836-0.80469-5.8438zm-131.85 14.562c1.4102-9.1016 5.7344-8.1758 8.2734-12.547-0.16016 6.2891-2.5586 6.8633-3.0938 7.5-1.7539 2.0977-0.41406-0.070313-1.4805 2.8711l2.6719-0.42188-0.37109 5.0898c-3.6602 2.8438-6.6016 6.4102-9.6953 8.4141 0.80469-8.3359 5.5625-6.7227 6.9648-12.809-2.9844 1.0977-1.6641 0.20312-3.2656 1.9062zm11.188-11.359c-0.011719-0.019532-1.4414 0.34375-0.55469-2.9336 0.44531-1.6328 1.2383-1.6523 1.7031-1.8359l-1.1484 4.7656zm4.4141-1.1406c-1.4297 2.3281 0.29297 0.83594-1.7031 1.7734zm114.5 3.2773c-6.3594-0.37109-4.4453-1.0664-6.0781-7.2461l5.7344 1.5234 0.34375 5.7266zm-109.95-9.5352c4.5742-1.2891 1.8125-2.3867 6.1289-4.1016-0.82813 6.8555-4.1133 10.652-10.02 14.969 0.47266-5.4922 0.66406-5.7031 2.8008-8.707 0.98828-1.3789 0.61328-0.81641 1.0898-2.1562zm-2.3594-4.0938c-2.2773 4 0.26172 4.9805-2.8203 7.0156 1.8125-3.418-0.82812-2.3672 2.8203-7.0156zm-15.328 13.051c1.8555-4.2148 0.9375-5.0508 4.1211-8.5781l7.0352-6.2891c-0.26172 2.6797-0.12109 1.9648-1.2812 4.6875-1.2891-0.44531 0.3125 0.33203-1.1406-0.64453l-1.2383-1.0195c-0.23047 4.6758-3.4375 9.4961-7.5 11.844zm15.328-13.051c-0.19141-1.2305-0.46484-1.543-0.5625-1.8125-1.9766-5.1016 1.2305-2.1367 2.6602-6.875-0.12109 5.6328-0.20312-0.27344-2.0977 8.6875zm12.547-3.8008c0.66406-2.6406 1.9961-10.211 2.9531-12.418-0.38281 6.875-1.4922 7.2773-2.9531 12.418zm99.145-0.94922-1.2305-8.293 6.582 1.7656 3.8086 18.344-7.1953-1.6641c-0.625-2.7422-0.68359-3.8594-1.2305-7.0156 0.19141-0.10156 0.46484-0.20312 0.60547-0.25391l3.4688-1.3906c-2.0664-1.7539-1.793-1.4102-4.8086-1.4922zm-123.74 7.0664c0.61328-14.32 6.543-13.383 9.1406-17.465 0.24219 5.6758-2.0039 6.3594-1.8555 9.2305 0.14062 2.7305 0.75781 1.2383 0.82812 1.2891-1.9258 0.63672-6.5508 5.3633-8.1133 6.9453zm133.58-8.918c1.0664 5.3711 3.5469 9.7578 3.043 13.012l-0.63672 1.1875c-0.42187-0.67578-0.43359-0.50391-0.875-1.7227l-3.1641-13.254c-0.75781-3.2852-3.5664-10.574-2.5195-13.746 3.9922 0.92578 1.5117 1.168 4.1523 14.523zm-119.18 10.695c-2.832-6.793 4.7656-9.8477 5.8867-14.887l-3.4258 1.9844 0.29297-4.3047 4.2148-2.8828c0.3125 5.5625 0.23047 3.5156 1.8828 5.0898 0.38281-3.6367-0.67578-7.9531 2.3164-9.4219-3.0625 7.5-0.058594 9.8867-5.875 16.527-2.8711 3.2656-5.0078 5.4609-5.293 7.8906zm0.14062-18.848c0.76562-4.7383-0.011719-5.9766 3.7305-7.9805-0.011719 3.8906 0.13281-0.32422-1.1172 4.0938-3.1328 11.055-1.4297 3.125-4.7969 9.2422-0.050781-1.8047 0.039063-2.5 0.53516-3.7305 0.36328-0.92578 0.5625-0.94922 0.65625-1.0469 0.070313-0.070313 0.3125 1.3008 0.63672-0.38281 0.03125-0.16016 0.25391-0.10937 0.36328-0.19141zm107.49-1.3008c-0.44531-0.89844-0.24219 0.019531-0.78516-2.0156l-0.68359-5.0898 5.582 1.0469c1.6133 2.4883 1.6523 4.5742 1.7344 7.7422l-5.8438-1.6836zm-117.11 1.9336c2.168-6.543 2.7109-6.8633 6.8438-11.125-0.15234 6.0078-1.7031 8.5352-6.8438 11.125zm15.762-3.6289c-0.82812-1.0898-2.3281 1.5625-0.15234-5.8164 0.5625-1.9336 1.2305-3.0234 2.1562-4.332l0.45312 1.168c0.35156 2.3984-1.5742 5.875-2.4609 8.9805zm-5.1289-6.3203c0.78516-4.082 0.13281-6.4102 3.5156-7.7617-0.15234 1.7148-0.32422 3.4062-1.0078 5.0508-1.0586 2.5703-0.43359 1.4609-2.5078 2.7109zm-5.0703-3.0234c0.67578-2.418 1.2383-3.3555 3.6094-4.6172-1.2891 2.9219-1.1797 2.8633-3.6094 4.6172zm108.18-7.7812 9 2.8711c1.0273 2.125 2.8633 6.3711 1.7656 8.2148-2.5703-1.4609-2.2383-4.8086-3.375-7.4375l-0.34375 2.1172c0.011719 0.20312 0.082031 0.42188 0.10156 0.63672 0.13281 1.582 0.24219 2.0664 0.17969 3.8398l-6.1875-1.1797zm-93.43 11.066c0.94922-4.1133 1.4805-7.2969 3.9102-9.6445-0.49219 3.8281-1.8438 7.7891-3.9102 9.6445zm-0.78516-14.574c0.92578-0.84766 1.4531-1.1406 2.3086-1.7422-0.46484 4.4062-1.3906 5.7969-2.4375 9.0703-2.3281-1.7227-0.90625 0.59375-1.9336-2.5312-0.019531-0.058594 0.011719-2.2773 0-2.5195l2.0664-2.2773zm97.109-4.6367c2.9414 0.65625 0.38281-0.47266 3.5586-0.039063l1.6133 8.0117-8.5469-2.2891-1.0977-6.9727c3.1953 0.37109 2.5898 0.86719 4.4766 1.2891zm-109.74 9.6875c0.48438-2.1562 1.0781-3.8711 2.0469-5.8359 1.1172-2.2695 1.2617-2.4883 3.1328-3.6367-0.74609 6.4219-0.73438 7.0156-5.1797 9.4727zm17.426-3.125c-1.0898-2.832 0.77734-7.0469 3.0742-8.5156-0.27344 1.7227-0.68359 3.1445-1.1602 5.1211-0.89844 3.7305 0.16016 2.6523-1.9141 3.3984zm-11.188 1.8633c0.86719-3.707 8.7188-12.348 11.227-14.102-0.85547 6.4922-2.2266 4.5039-5.2695 8.1641-2.1055 2.5195-1.7656 3.1562-5.957 5.9375zm13.145-13.102c0.52344-3.3164-0.089844-3.1953 2.1562-4.9102 0 0.011718 2.168 0.089843-0.039062 3.2852-0.43359 0.61328-1.3789 1.168-2.1172 1.6211zm-11.801 6.5508c0.59375-3.375-0.058594-4.3125 2.0781-6.8242l9.5156-10.219c2.2461-2.4102 2.6797-2.6797 5.7734-4.4766-0.50391 3.3867-0.21094 3.8789-1.7656 5.7656-1.8242-0.41406-0.40234-0.089844-1.6641-0.91797-4.0703-2.6602 2.6289-0.070312-0.78516-0.44531-4.3242 5.293 2.793-0.37109-6.2773 9.4023l-6.875 7.7109zm-3.3555-3.8516c0.92578-4.1133 4.1641-6.9727 7.3789-10.09 0.10938-0.10938 0.28125-0.27344 0.39453-0.37109l5.2109-4.957c-0.46484 2.168-2.4375 3.7891-4.918 6.7422l-8.0625 8.6797zm15.059-16.75c0.039062-2.3672 0.39453-1.5742 1.4805-2.3086-0.65625 2.6211 0.50391 1.1797-1.4805 2.3086zm-11.832 8.3438c0.81641-7.1367 3.4062-6.9453 5.0508-8.9102 2.4297-2.9023 3.457-5.1406 6.6133-7.4062-1.5938 4.8789-1.5312 6.4297-4.6172 9.3242-5.4922 5.1289-1.7539 2.9023-7.0469 6.9961zm15.52-11.953c1.1094-2.8711 2.0977-3.2656 3.9023-4.8359-0.88672 5.0273 0.59375 4.0312-3.9023 4.8359zm89.266 4.9297 8.8984 36.879c-0.050781-0.54297-2.3672-9.6367-2.9531-11.348l-9.3125-37.301c0.80469 1.7148 1.0977 3.6289 1.8359 5.8242 0.73438 2.2188 1.0469 4.0703 1.5312 5.9453zm-4.7891-19.914 0.59375 5.2227zm-83.23 9.5352c-0.050782-2.7812 1.0898-5.4727 2.8203-7.4883 0.10938-0.12109 0.27344-0.32422 0.38281-0.43359l1.9766-1.4414c-0.77734 5.6523-1.9336 6.7227-5.1797 9.3633zm-12.871 6.4102c0.34375-1.1602 3.8516-7.1367 4.8672-8.2344 1.3398-1.4297 5.4336-6.0586 6.9961-7.1367-1.4102 7.5586-10.594 11.219-11.863 15.371zm15.934-17.535c0.24219-4.2852 1.2695-5.1719 3.7891-7.207 0.53516 4.0117 0.57422 1.9258-1.1094 3.9609zm-12.879 8.6797c0.81641-3.4258 2.9414-8.6367 5-11.773 2.0273-3.0742 6.4414-6.2188 7.4766-8.1641-0.88672 9.0703-6.0664 13.676-12.477 19.938zm15.902-25.672c0.55469-2.5 3.043-4.0195 5.3203-6.0781-0.29297 2.8711-1.8945 10.34-3.9922 12.418l-2.3164 2.1172c-0.082031-0.15234-0.29297 0.37109-0.43359 0.5625zm1.0469-20.156c-0.80469-2.5391 0.42188-2.8203 1.0273-3.9219 0.089844-0.16016 0.23047-0.36328 0.32422-0.53516 2.6211-5.0391 5.9062-11.309 11.125-13.969-0.50391 3.0234-0.63672 3.5078-1.9141 6.2773-3.8789 8.375 4.9297-3.1758-3.2773 7.9531l-3.1562 3.457c0.95703-3.4883 3.6367-5.1602 5.5117-8.5156-3.4688 1.3086-5.3828 4.668-7.3984 7.418-1.4219 1.9453 0.082031 1.1602-2.2461 1.8359zm9.957-19.645c-1.793 2.3477-3.3984 3.6367-4.707 6.1094 0.5625-3.1445-0.019531-0.50391 1.9648-3.0234 1.8828-2.3789-0.019531-1.5938 2.7422-3.0859zm0 0c0.30078-0.65625 0.57422-1.4609 0.88672-2.4375l2.8633-0.75781c-1.1484 1.9844-1.3008 2.3477-3.75 3.1953zm0.88672-2.4375c-2.168 0.050781-1.5312-0.10156-2.7109-0.88672 1.7031-4.0117-0.30078 0.050781 2.3672-2.7109 0.011719-0.011719 1.5938-2.2188 1.6836-2.3789 1.9766-3.5664 0.74609-2.1055 3.1836-4.7578-0.058594 6.8555-3.4453 6.6016-4.5234 10.734zm-0.20312-11.551c1.0078-2.6719 0.44531-0.54297 1.8633-3.1328 2.5-4.5742 0.3125-7.0469 6.0586-8.7891-0.30078 1.1992-0.78516 3.5781-1.1602 4.5664-0.75781 2.0273-5.2695 6.6406-6.7617 7.3594zm11.246-28.492c-0.55469 4.082-1.3594 13.344-5.0508 14.906zm-131.04 281.39c1.0977-6.4297-1.8125-12.062 0.79688-15.066 2.5391 4.4531 1.7344 13.293 6.4805 16.195-2.4492-7.2773-6.3477-19.531-2.1758-27.203 2.3984-4.4336 8.3438-16.961 12.285-19.895 2.2461 3.668 1.0469 4.9375 6.5703 5.3125-1.582-7.1953-4.2227-12.82 1.2891-18.402 0.65625 4.5547 1.0078 5.1211 4.0508 7.0469 0.011719-4.3047-3.668-4.3945-1.3398-11.832 1.1992-3.8398 3.0625-6.7617 4.5234-10.371 2.8516-6.9844 15.652-28.613 19.824-40.93 2.6719-7.8711 6.2891-13.363 8.7578-20.824 6.0586-18.223 10.039-20.762 14.441-30.738l9.0312-21.316c1.8633-4.0195 2.0039-2.4297 5.1992-9.6562 2.6992-6.0977 7.0664-14.07 9.0312-20.633l2.418 0.16016 7.0938-15.086c1.0898-2.4883 0.60547-3.8594 1.4219-6.0664l8.3867-21.094c1.4922-3.2969 3.1641-7.1875 4.332-10.633l6.0273-16.035c0.54297-1.2617 1.5234-3.0625 2.3984-4.9297 1.8555-3.9492 3.0234-6.3711 4.6055-9.9258 1.7227 3.8516-11.027 31.84-14.301 40.496l-14.281 42.41c-3.4688 9.2617-7.5273 17.375-10.312 27.152 3.3984-1.5625 0.65625 0.625 3.1758-3.1641l7.0039-9.4141c-0.13281-0.10156-0.36328-0.17188-0.43359-0.22266l-1.8945-2.4297c2.3477-2.4102 0.41406-1.6641 4.7188-5.7461 0.12109-0.10938 0.29297-0.28125 0.41406-0.39453l8.4062-8.3047c-1.543 4.7656-2.6992 14.754-8.375 15.934 0.082031-5.3633 5.5117-4.4336 6.2578-10.23-3.7695 0.65625-0.53516-0.39453-5.2227 3.5898-2.6211 2.2461-0.33203 1.957-3.8711 5.2109 0.64453 2.3867 0.47266 1.3789 1.582 3.4961-3.1758 4.0117-1.3594 4.5156-8.1836 8.8789l0.73438 1.875c0.71484 2.2891 0.78516-0.88672 0.26172 0.63672-1.1172 3.2148-3.2656-7.5195-11.098 16.984-2.3086 7.1953-5.5352 17.176-8.6172 24.32-0.91797 2.1484-2.5 3.8008-2.9648 5.1211-0.59375 1.7422-0.59375 4.2344-1.5312 6.8125-1.3008 3.6172-3.1562 8.1016-4.4062 11.941-2.7422 8.4648-6.2383 16.227-8.0938 24.531l-7.125 25.914c-2.5703 7.9219-5.6523 16.551-8.7969 24.109l-9.4141 31.867c-1.5117 3.1445-0.29297-1.543-1.4219 2.7617l-3.5391 16.047c-0.94922-4.2344-0.40234-1.7344-1.4922-1.5625-2.5 5.5117-2.0352 12.992-3.8281 19.754-1.6641 6.2773-3.2148 12.336-4.7188 18.363-1.6016 6.4297-7.7422 31.867-10.695 34.66-1.0469-1.5117-8.8906-25.055-9.8359-28.625-1.3203-4.9688-2.1367-10.18-4.3047-14.605l-1.9141-15.613 2.5898 5.8242c0.37109-0.78516 0.96875 0.17969 0.32422-2.7617-0.03125-0.14062-0.98828-2.5508-1.1172-2.9023-2.8008-7.457-5.2695-13.273-1.3203-17.617 0.17969 1.2695 0.34375 2.9336 0.68359 4.1914 1.2188 4.4844 0.5625 1.7031 1.4922 2.6289zm193.88-45.102-0.22266 2.3398c-16.984-0.14062-44.355-8.9805-45.84-9.082-2.7617-0.17969-1.5938 0.058594-2.8633 0.96875 9.1602 5.4414 33.875 8.3359 44.699 9.8672 3.0625 0.43359 3.6797-0.050782 5.1016 2.3984 1.8359-1.6211 3.707-1.168 5.8438-0.61328 4.375 1.1289 0.76562 0.28125 5.2305 0.082031l0.34375 4.2344c-1.2617-0.15234-2.6914-0.16016-3.0547-1.3711-0.070313-0.24219-0.20313-0.32422-0.32422-0.47266-0.83594 1.4805-0.50391 0.71484-1.6445 1.6914-1.9062-1.6914-0.99609-0.47266-1.875-2.5-0.92578 2.168-0.25391 0.88672-1.4102 2.168-8.6875-1.4531-17.195-2.3281-25.891-4.2344-3.5781-0.78516-21.77-6.1562-23.352-5.4922 0.70703 0.70703-0.47266 0.15234 1.875 1.4609 5.1289 2.8438 10.602 3.707 16.289 5.1094 6.543 1.6016 13.215 2.3477 20.129 3.8008l-0.011718 6.5508c-6.9258-1.7656-13.93-2.832-21.055-4.668-7.3672-1.8945-11.922-3.5664-18.828-6.3086 0.36328 5.4414 14.391 7.1875 18.504 8.3438 5.9883 1.6836 16.973 2.9336 21.832 5.4141l0.27344 6.0469c-6.3906-1.0391-12.629-2.168-18.473-3.5664-3.7812-0.90625-13.102-4.5547-15.582-3.2969 1.5312 1.6133 5.5039 2.7812 7.9922 3.4688l26.488 5.6445 0.57422 3.9023c-4.9688-0.37109-26.477-4.043-31.145-6.3984-2.6289-1.3203-2.5312-4.7578-7.8906-2.5078 1.793 5.875 33.977 10.359 39.105 11.168l1.0273 7.9531c-8.7695-1.1484-19.531-5.9062-28.391-5.625 2.9219 2.4688 22.234 6.4414 28.754 8.3359l0.3125 4.2344c-5.1484-0.5625-11.602-2.793-16.961-4.1016-3.7695-0.91797-13.738-5.1211-16.297-1.4297 2.1758 0.875 4.3047 0.27344 6.9531 0.82813l18.676 5.7539-0.63672 7.3359c-5.0781-0.089843-19.785-5.6328-22.637-4.1719 3.5273 2.2695 17.176 5.1914 22.91 6.7734l-0.17188 6.5625-24.906-5.5742c-1.5312-0.51562-1.6016-0.85547-3.6797-1.4023l-3.668 0.32422c6.4922 3.5586 23.645 7.3867 32.332 9.082l0.34375 5.9883c-12.246-1.4297-24.531-6.7227-36.797-8.8984 1.8633 3.3359 6.5312 3.6367 10.098 4.5469l20.895 5.4414c4.9805 1.0195 6.4414 0.17188 7.0039 7.5273l-8.6797-1.543 0.058593-4.0508c-0.16016 0.20312-0.32422 0.48438-0.41406 0.63672-0.089844 0.14062-0.28125 0.43359-0.38281 0.59375-0.10156 0.16016-0.24219 0.43359-0.33203 0.58594-0.12109 0.17969 0.050781 2.6797-0.59375 1.0078-0.039063-0.10156-0.17188 0.3125-0.28125 0.44531-5.3125-0.61328-26.891-7.1641-29.219-5.9648 7.1172 5.2422 28.957 6.793 39.457 10.078l1.0781 6.1797c-2.3281-0.51562-5.7852-0.63672-7.8633-1.6133-4.3828-2.0781-0.30078-2.1484-2.168-5.2695l-0.41406 4.668c-5.2227-0.73438-31.91-7.9414-33.219-7.2578 7.9922 5.4922 21.641 5.918 30.75 8.8789 7.125 2.3281 6.9453 0.91797 11.41 2.6289 2.8828 1.0977 0.72656 1.0664 3.1836 1.3203 3.7188 0.38281 8.375 0.10938 11.41 2.3281 1.4531 1.0586 1.3203 1.1992 1.5742 2.7227-10.02-1.1289-21.195-5.1914-31.074-7.1953-5.4844-1.1094-10.18-2.1055-15.965-3.5586-2.793-0.70703-5.6445-1.2383-7.9336-1.8633-9.0117-2.4688-6.4805-0.79687-7.125-0.33203 4.0195 2.125 17.789 4.9492 23.484 6.2383 5.6953 1.2891 63.566 14.301 66.652 16.168l1.8125 1.7148c2.5-0.71484 3.2344-1.2812 4 1.1289l-4.4766 0.21094c0.91797 1.875 1.4297 2.0547 3.8594 2.418 2.6289 0.39453 1.4102-0.55469 3.7695 0.86719-0.51562 0.38281 0.89844 1.9648-5.2422-0.30078-1.9141-0.70703-3.5156-1.2695-5.7461-1.7227l3.5078-1.2617-5.0508-2.0352c-1.6445-0.44531-3.4375-0.91797-5.3125-1.4102-3.457-0.90625-6.5898-1.6328-10.281-2.6992-14.223-4.1328-28.301-6.7812-42.695-9.9492l-51.371-13.184c-13.555-3.9023-48.098-9.7773-52.27-11.992-0.058593-1.7422 1.5742-7.6484 2.0859-10.723 1.0195-6.0391 0.94922-5.543 3.6094-9.5938-2.2266-4.8477 4.2422-24.402 5.8359-30.859 4.4336-17.98 7.2148-37.02 12.648-54.789 0.79688-2.6211 0.9375-4.3438 1.9336-7.0859 9.9062-27.293 8.1953-33.957 15.23-61.25 2.5391-9.8789 4.1641-21.641 6.2891-31.527l6.0391-23.473c0.52344-1.8438 2.2188-5.4727 2.4688-6.4609 0.57422-2.1953 0.875-5.5117 1.5508-8.2539l1.7031-5.0078c0.058594-0.13281 0.16016-0.34375 0.20312-0.47266l0.19141-0.91797c0.82812-4.1133 1.3398-10.312 3.6602-14.785 0.94922 3.5273-0.55469 1.6836 1.7852 2.3867 2.8008-14.262 9.7461-36.859 10.531-50.809 0.37109-6.7109 8.1523-40.77 13.336-48.246 0.49219 3.6484-2.6992 6.0078-0.63672 9.1406 0.72656-2.7227 3.0234-6.7031 2.0156-9.5664l-1.0781-1.3203c2.3164-1.4805 1.6836-1.7539 3.1758-4.4141 1.6523 3.7578 3.2852 16.48 1.9648 21.074-3.8008 0.14063-2.6602-0.52344-5.7852 1.4102 1.2617 1.0078-0.15234 0.60547 2.1562 1.2383l4.5469 0.16016-0.039062 3.1133c-0.94922 0.12109-2.4883 0.082031-2.8711 0.14062-3.8086 0.58594-1.5117 0.17969-2.8633 1.0898l6.3711 2.3398 0.32422 4.8477c-4.8789 0.21094-2.8438-1.4102-6.832-1.1406-0.35156 4.3633 4.0312 3.8398 7.5703 4.2227l0.75781 4.1133c-2.207 0.27344-4.5742 0.38281-6.8242 0.039062-6.2773-0.9375-3.4766-0.83594-4.9102 0.36328 0.97656 1.5938 0.10156 1.4727 3.4688 2.0547 6.168 1.0781 8.5078-1.8438 9.9766 6.3477-4.5352-1.0781-5.8438-3.2148-8.6055-1.8242 1.2812 2.7227 6.168 5.4336 9.4141 4.4336l0.94922 4.3945c-2.0469-0.34375-4.9688-0.55469-6.8125-1.0391-0.43359-0.12109-2.793-1.0898-2.8828-1.0977l-1.3398 0.050781c-0.19141 0.011719-0.60547 0.51562-0.73437 0.27344-0.14063-0.26172-0.50391 0.24219-0.75781 0.36328 2.4102 3.7695 9.0625 3.4375 13.164 3.668l1.168 6.9961-4.6953-2.6016c-1.6523-1.0469-2.1562-1.4297-4.6367-1.1172 0.26172 2.7617 2.418 3.2773 5.0898 4.8086 5.6328 3.2461 4.7656-1.4297 5.2305 5.1094-4.2617-0.75781-6.6016-3.0352-10.562-2.9727 0.99609 3.9023 3.3242 4.043 7.832 5.2109 5.7461 1.4922 4.3438 3.0625 5.1602 8.2031-7.1367-0.36328-7.4375-3.2969-12.73-4.5859 0.41406 3.5078-0.12109 2.6016 2.9414 4.3242 6.0391 3.3984 11.609 2.3984 10.965 6.1797l-11.488-2.5c0.74609 2.9844 3.3359 3.2344 6.4609 4.2734 4.7578 1.5938 5.9453 0.51562 6.4805 5.5039-2.0781-0.17969-5.875-0.88672-7.8203-1.7031-4.7578-1.9961 0.29297-2.3477-5.5352-2.6797 0.28125 6.793 10.141 5.1289 14.129 8.2344-2.793 1.957-7.6992-1.3789-11.238-1.5117-2.5703-0.10156-1.0469-0.78516-2.0977 1.5117 2.3086 1.4297 7.2773 2.1055 10.07 2.9844 4.5859 1.4531 4.9297 2.6602 5.3398 7.5586-3.0117-0.68359-6.0664-1.5117-8.9492-2.2188-2.5508-0.61328-4.6055-2.0469-7.1758-1.8828-2.1562 0.14063-0.57422 0-1.6719 0.95703 3.4688 4.4766 14.039 2.9141 19.16 7.0234l0.41406 3.6289c-2.2266-0.17969-3.9492-0.50391-6.0664-1.2305-6.7422-2.3086-4.3555-1.1406-5.3633-0.39453 1.8242 2.8125 8.2344 3.8086 11.449 4.1914l1.0977 3.2539c0.082031 0.20312 0.23047 0.48438 0.30078 0.64453l0.63672 1.4023c-2.582-0.50391-5.1211-0.96875-7.207-1.7422-3.0117-1.1406-2.5-2.0664-4.4336 0.625 2.1758 2.0039 5.7461 2.4609 8.7383 3.2539 4.5547 1.2109 3.8086 2.2578 4.8867 6.4414-1.3906 1.1602-1.0469 0.86719-2.207 2.1562-2.5391-0.96875-5.1484-1.4922-7.9219-2.5312-2.5586-0.96875-4.3047-2.3281-6.832-2.7812 0.30078 3.8789 3.6367 4.2539 6.6836 5.4023 3.0039 1.1406 6.1289 1.957 9.3633 2.8828l0.17188 3.6367c-4.2852-0.5625-8.1328-3.2969-10.453-2.1953 0.83594 3.1055 2.1562 2.5703 5.8242 3.9102 4.1914 1.5312 4.8477 0.10938 5.4141 3.4766-4.5039 2.1875-9.625-3.8789-13.746-1.6445 3.3359 6.2773 15.664 0.13281 15.371 10.402-2.3398-0.67578-4.6953-1.4023-7.1758-2.2578-0.77734-0.26172-3.3867-1.4609-3.5156-1.4922-6.2695-1.3789-2.0781-0.10938-3.5273 0.73438l4.5664 2.4297c1.5117 0.625 2.6094 1.0078 4.2617 1.5117 4.7891 1.4727 5.8945 1.4531 6.6016 5.1016-4.8164 2.2578-12.609-3.8906-16.66-5.8047-2.168 1.4727-1.0391-1.168-2.0859 1.8555 2.6094 2.9219 7.1875 4.5352 11.68 5.8359 7.6992 2.207 8.082 0.26172 9.6055 8.3438l-22.898-5.3008c1.2891 1.6914 1.25 1.793 4.7891 2.9844 1.9062 0.64453 3.2852 0.95703 5.3203 1.4414 11.844 2.793 13.445 2.3984 15.926 11.902 0.85547 3.2656 2.2188 8.1523 2.2695 11.512-3.3477-2.8945-12.234-4.1211-17.949-5.7539-2.7617-0.79687-15.684-5.5742-17.527-4.8359 0.80469 2.9414-1.3594 1.0781 2.4297 2.8125 7.2266 3.3164 16.57 4.6953 23.805 7.1445l0.82812 6.5625c-9.1523-0.94922-20.016-5.625-27.594-7.2266-0.10156 3.3555 2.1758 3.5781 5.1094 4.4141 2.8438 0.80469 4.9297 1.3008 7.8633 1.9844 12.973 3.043 15.664 0.57422 16.328 12.93-7.2969-0.94922-30.52-7.7188-32.293-7.75 0.26172 5.2695 29.57 9.4961 32.996 10.664l0.91797 6.793c-4.8594-0.52344-12.035-2.7109-17.152-3.7812-4.5039-0.9375-13.215-4.918-16.047-3.3477 1.3203 2.9219 3.8398 2.6797 7.5391 3.6992 2.75 0.74609 5.7539 1.4023 8.5977 2.0977 13.809 3.3242 18.645 0.77734 19.391 12.75-3.4062-0.050781-12.598-3.2969-17.891-4.4844-4.625-1.0273-14.895-4.3828-18.16-4.5859 0.98828 2.4297 0.27344 2.0977 3.9219 3.3477l32.352 8.8281 1.1992 6.832-5.8555-1.4727-0.16016-5.8242c-2.7109 1.957-1.1992-1.0586-1.793 2.6016-0.011719 0.050782 0.5625 2.9336 0.57422 2.9844-5.8672-0.69531-28.695-7.0469-30.84-6.2383 1.4805 2.7617 3.9102 2.3594 7.3672 3.3672 2.5078 0.73437 4.6562 1.4414 7.8125 2.1172 5.25 1.1406 10.695 2.2578 16.035 3.5469l1.1406 6.7109c-2.832-0.37109-6.6836-1.4297-8.5977-1.7852-3.1836-0.57422-5.2227-0.84766-8.1758-1.4531-7.1875-1.4609-9.7773-5.6641-14.684-3.4688 0.78516 3.0117 3.4961 2.9414 6.8945 3.8516 2.6406 0.70703 5.293 1.3711 7.9414 1.9141 3.3047 0.66406 5.4727 1.4414 8.6562 2.0469 3.0117 0.5625 5.332 0.69531 8.3672 1.4805l1.2617 6.6211c-8.5586-0.68359-18.363-2.7734-26.637-5.2617-1.6328-0.49219-2.4609-0.94922-3.6875-1.3008-4.7188-1.3906-2.7812-0.24219-3.668 0.49219 2.418 3.9414 21.66 6.2578 26.539 7.3477 0.44531 0.10156 2.4883 0.51563 2.6211 0.53516l5.6953 1.5117 0.76562 5.543c-4.1406-0.29297-6.6602-1.2617-10-1.6914-9.082-1.1875-17.949-5.3516-26.828-6.168 1.3789 2.5312 0.79688 2.0469 4.2148 3.0625 11.047 3.2773 22.656 4.5469 33.574 7.5078l1.4219 8.707c-11.309-1.0273-35.508-8.8906-36.094-8.9102 0.36328 3.418-0.17969 2.1562 3.4688 3.4961l15.27 4.5039c13.527 3.5156 17.992 0.058593 19.008 8.1641l-36.727-6.9453c6.4414 6.2383 33.926 6.3477 37.352 9.4648l2.5586 3.3164zm-360.51-32.16c1.7227-3.1133 13.98-13.477 17.395-14.906 3.5078 3.5781 9.0625 5.1484 14.875 6.4922 3.2266 0.74609 5.6328 1.3086 8.8398 1.5234 7.7695 0.51562 7.0039 0.45312 8.082-2.1484-12.578-0.51562-22.484-0.88672-30.883-7.457 7.4492-8.1523 16.406-15.379 24.332-22.777 3.0742-2.8711 4.9297-4.8672 8.2148-7.4062l8.5352-7.0547c1.6211-1.2812 2.6914-2.8125 4.2031-4l25.852-20.953c10.934-9.6758 32.996-26.266 43.176-35.688 1.4609-1.3516 2.2969-2.582 3.5391-3.8203 1.6328-1.6211 2.7812-2.0547 4.6562-3.5898 4.3047-3.5156 7.3281-9.1914 12.145-11.008l-1.7656 3.0625c2.2461-0.64453 0.66406 0.39453 2.793-1.8438 1.0586-1.1094 1.0977-1.2305 2.4297-2.5078l6.8633-7.2773c2.3867-2.6602 2.2383-3.8086 5.1016-6.2695 1.1172-0.96875-0.12109-0.16016 1.3008-1.2891 3.0859-2.4688 4.9805-5.6953 8.0547-8.1953l9.3125-8.75c4.1211-3.707 5.9648-5.0898 9.8672-9 6.3477-6.3594 12.719-10.191 19.914-16.246 3.5391-2.9844 6.5703-5.1484 10.027-8.043l10.312-8.5781c3.0352-2.4805 5.7148-6.5898 9.3125-8.7383 9.543-5.6953 17.336-14.051 26.074-20.773 2.2383-1.7227 2.4102-2.6016 4.668-4.375 7.8516-6.1289 23.129-20.539 31.438-22.918 0.50391-1.4609-0.32422 0.082031 0.47266-2.75 3.9492-1.3789 5.0781-4.1914 8.2734-5.9961-1.7656 4.0938-2.4375 7.6992-4.7656 11.297-6.7539 10.453-9.4648 23.082-14.441 34.035-1.332 2.9336-1.3594 3.1055-2.8125 5.293-2.9531 4.4141-5.332 11.832-6.9961 16.902l-8.9688 23.051c-3.2344 7.4062-5.6133 16.469-9.4219 23.453-4.0938 7.5078-5.9062 14.734-9.3008 22.727-4.5352 10.684-16.84 33.078-20.512 43.559-1.7422 5.0078-3.3359 6.6328-5.6445 10.715-2.0781 3.6875-3.4883 6.9844-5.3633 11.105-1.9648 4.293-2.5312 7.6602-4.2422 12.094-0.84766 2.207-1.9453 2.9727-2.8945 5.3906-0.78516 2.0039-0.94922 3.2969-2.0039 5.332-6.1875 11.965-8.4453 20.488-16.719 31.789l-16.227 31.336c-1.957 3.8906-3.1133 8.293-4.9883 11.512l-16.289 31.336c-9.957 20.34-7.0859 23.363-17.609 20.016-5.4844-1.7422-11.258-3.5391-17.727-4.3555-8.3047-1.0391-18.09-3.0938-26.246-3.3672-15.059-0.49219-49.145-7.4297-65.742-9.0391-4.6953-0.45312-5.7734-2.5312-11.219-3.5469-8.125-1.5234-16.086-3.6094-24.199-5.4023-4.2227-0.9375-43.086-9.6758-47.098-12.52l1.9062-3.1445c3.1562 0.63672 5.8242 2.1367 9.2227 3.3672 3.3164 1.2109 6.1367 1.6719 9.707 2.6289l38.48 10.551c5.2109 1.2695 12.98 4.1641 18.434 3.5469l-4.1016-2.2461c-17.203-3.2969-34.348-8.6172-51.453-13.344-5.4609-1.5117-14.293-3.75-16.75-7.0547 3.4375-2.3672 4.293-2.0664 8.9102-0.65625 13.688 4.1914 49.508 16.266 59.746 15.391-4.668-3.9727-53.539-12.953-61.762-18.414-1.4531-0.95703-0.46484-0.34375-1.4805-1.4727 6.1289-3.8398 11.359-9.6758 17.031-14.121 5.7734-4.5352 9.332-11.27 16.137-14.465zm331.28-223.27c0.10937-0.20312 0.29297-0.46484 0.38281-0.60547l0.72656-1.1406c0.74609-1.4219 0.41406-0.14062 0.75781-1.7227 0.74609-3.4688-0.36328-7.7188-0.88672-11.156-0.61328-4.1328-1.8438-9.0195-2.793-13.445-0.52344-2.4375-0.84766-5.9453-1.3594-7.7109l-4.0508-12.438c-0.79688-2.8438 0.75781-2.3281-0.12109-6.4492-6.543-1.6016-6.3008 1.8633-10.602 5.1914-1.793 1.3906-2.9727 2.1055-4.7656 3.4688l-40.133 32.031c-2.9219 2.3672-5.6641 5.2109-8.7695 7.6797-3.1055 2.4805-5.5234 5.332-9.8359 5.7461 0.23047 0.29297 2.6523 0.050782-0.39453 2.9141 0 0-2.0664 1.1875-2.582 1.6016-11.652 9.0703-21.93 19.906-34.098 28.23-3.7891 2.5898-5.8672 4.9375-10.047 8.0117-7.5078 5.5234-27.949 25.992-32.293 29.309-2.2383 1.7148-3.0039 2.8008-4.5977 4.4258-3.2656 3.3477-6.0664 6.0391-8.5859 8.6797l-18.434 16.852c-7.1953 6.3984-31.527 28.512-37.785 32.855l-38.832 31.797c-6.1172 5.582-17.707 16.43-23.805 20.461l-36.789 33.906c-8.2344 6.9258-15.117 13.961-23.695 20.633-7.5078 5.8438-21.84 22.164-29.66 22.98-0.070312 4.332-3.3359 7.8906-3.1953 11.227l26.98 3.5469c5.1797 0.5625 8.6797 0.58594 13.457 1.8438 13.746 3.6094 17.871 2.3477 25.074 3.8906l11.801 2.9219c24.449 5.7852 55.262 7.5273 78.777 12.469 8.0547 1.6836 17.617 3.3242 26.035 4.4453 3.668 0.49219 10.238 0.14063 13.383 1.3789 2.0547 0.80469-1.6016 0.28125 2.8008 1.2891 2.9023 0.66406 7.3164-0.59375 9.9375 0.71484 6.3398 3.1836 14.957 57.672 23.332 67.688 2.9219 3.4883 1.2305 4.8281 4.7773 7.3281 2.3398-2.0664 4.6953-2.832 6.3789-5.7344l21.246-24.723c2.1055-2.2773 3.6875-3.7578 5.3633-6.1367 3.4375-4.8984 7.9336-7.3594 11.27-11.602 13.254 1.1875 14.906 1.7031 27.262 4.8086 8.8086 2.207 46.926 10.32 50.332 12.004 3.5898 1.7734 47.109 12.711 49.828 13.484 3.7383 1.0586 8.3555 2.2969 12.285 3.3477l11.68 3.8594c11.176 4.918 29.895 7.3359 30.355 7.4883 5.6758 1.7539 11.902 5.293 17.84 3.5273-0.082031-3.7812-0.26172-2.3984-3.7812-4.332-0.20312-7.457-6.2578-23.543-8.5078-30.215-1.1992-3.5273-2.6094-12.418-3.4766-16.156-1.2695-5.5117-2.8711-9.7773-4-15.098l2.8438-2.8008c-4.957-1.3398-3.707-1.5117-5.5547-6.7109-5.6523-15.934-7.6289-32.816-12.953-48.641-2.0469-6.0664-4.2422-12.266-5.7656-18.836l-15.168-58.82c-3.2031-12.961-5.625-27.242-9.6055-39.73-1.0781-3.3984-0.69531-4.6758-1.8359-8.7891-4.4453-16.055-8.2461-33.301-10.734-49.758-0.089844-0.59375-1.4805-3.4883-2.3594-9.5234-1.8125-12.445-10.039-43.078-10.027-51.219 0.011719-5.8242 1.6133-3.3242-0.59375-10.191-0.9375-2.9219-1.875-7.1562-2.4375-10.34z"/>
  <path d="m222.33 214.6c2.4102-0.91797 1.3398-0.41406 2.7422-1.875l55.129-55.516c-3.6875 0.3125-11.781 9.6562-15.551 13.031l-21.98 21.559c-2.4297 2.5312-4.4531 4.5469-6.832 7.125-3.2969 3.5664-11.227 10.645-13.504 15.672z"/>
  <path d="m174.78 238.12c4.043-0.86719 7.6602-7.8008 13.102-13.242 4.5352-4.5469 7.8203-8.5469 12.641-12.832l9.8281-9.8672c1.3008-1.0898 1.7227-1.6641 2.8945-2.8711 2.7617-2.8203 11.34-10.32 12.074-12.711-3.1641 0.39453-1.0664 0.33203-3.3867 2.5195l-23.523 22.445c-4.7773 4.3047-7.8906 8.5273-12.941 13.395-3.375 3.2656-4.6055 2.1758-7.2383 5.8164-2.2578 3.1133-4.1836 4.5859-3.4453 7.3477z"/>
  <path d="m202.75 217.45c3.2266-1.1172 12.348-11.863 15.137-14.293l30.406-28.715c2.207-2.0469 13.262-12.145 14.191-14.352-2.7109 0.39453-6.4414 4.9688-8.0312 6.5312l-38.168 35.75c-2.2461 2.5078-4.5352 4.7188-7.3359 7.4492-2.4297 2.3867-5.5352 4.1328-6.1992 7.6289z"/>
  <path d="m242.5 203.12c3.2852-3.2773 4.6953-4.9102 8.0547-8.3945l33.09-32.828c-3.2539 0.84766-7.3984 5.1914-9.4023 7.3086l-37.664 37.836c-3.9219 4.957-16.883 18.062-18.039 22.566l23.969-26.488z"/>
  <path d="m262.7 269.2c1.6328-0.64453 11.449-14.031 13.504-16.781 9.1328-12.227 26.75-31.273 37.652-44.527 0.10156-0.13281 0.26172-0.32422 0.37109-0.44531 1.1602-1.2695 2.9531-1.582 1.7734-3.5391-4.8164 6.1875-9.8047 10.02-14.16 15.863-2.3672 3.1641-4.3555 4.5547-7.0234 7.7617l-20.078 24.25c-3.8789 4.4844-10.078 10.863-12.043 17.418z"/>
  <path d="m203.53 224.8-0.74609 4.5039 17.668-21.105 57.559-56.148c-5.2812 1.5938-6.5898 4.7188-10.48 7.9336z"/>
  <path d="m259.16 205c7.2148-8.7773 19.625-19.574 24.742-26.164-7.2773 3.4258-14.805 13.215-19.938 19.453-1.1875 1.4531-2.2383 1.8359-3.5781 3.0039l-9.0117 9.8984c-1.9961 2.3086-3.7891 4.1133-5.7734 6.5312-2.3281 2.8438-3.9023 4.043-6.3789 6.7617-2.0273 2.207-4.3242 4.1211-4.5977 7.9805l24.531-27.465z"/>
  <path d="m227.36 229.03 32.715-34.57c2.8438-2.5 18.656-17.457 19.773-19.703l-15.543 13.223c-4.7383 4.4336-36.375 36.859-36.949 41.051z"/>
  <path d="m71.277 345.78c-6.2578-1.4805-14.906-4.918-20.32-5.6758-0.79688 4.5547 5.0586 5.0508 8.5859 5.1992 3.1445 0.14062 27.062 6.5117 31.496 6.2695 5.0078-0.28125 0.82813 0.27344 2.3672-1.0195-2.0547-1.1797-18.293-3.8711-22.133-4.7773z"/>
  <path d="m279.8 196.92c-5.6523 2.6602-6.875 4.7578-11.348 9.1836l-20.066 20.965c-2.1055 2.2969-2.75 3.9023-4.9805 5.6836-2.125 1.7031-4.1641 1.9453-4.2617 5.0703 4.2031-1.4727 7.9922-6.4414 10.574-9.4219l30.086-31.477z"/>
  <path d="m291.43 213.55c2.0781-2.4297 0.5625 0.64453 1.7344-3.0742-5.9648 3.2969-16.145 18.906-20.793 24.16-1.8359 2.0781-2.4805 3.043-4.043 5.0078-0.9375 1.168-5.5234 5.3906-6.1172 7.1172-1.3008 3.8398 0.24219 2.5898 0.42188 2.9023z"/>
  <path d="m256.87 239.58c5.5039-1.6445 10.742-10.996 16.863-17.566 2.7734-2.9727 5.875-6.2773 8.4961-8.7383 1.7852-1.6641 7.2266-5.6641 8.125-8.6055-5.8242 2.125-20.5 19.098-25.66 25.602-2.4102 3.0352-7.5273 5.1992-7.8203 9.3125z"/>
  <path d="m76.316 313.49c5.5234 6.2773 34.207 11.801 38.582 6.6836-3.125-2.125-0.63672-0.71484-2.4805-0.75781-0.10156 0-2.1484 0.26172-2.4883 0.29297-14.574 1.1602-25.289-4.5664-33.613-6.2188z"/>
  <path d="m281.52 203.5c-2.8945 1.0273-7.1055 6.0391-9.1016 8.2031l-15.902 18.555c-1.6523 1.957-2.6094 2.8711-3.8086 4.293-0.10156 0.12109-0.23047 0.32422-0.34375 0.44531l-0.75781 0.86719c-0.16016 0.17969-0.71484 0.63672-0.86719 0.82812-1.6211 2.1055-0.76562-0.050781-1.2695 3.2969 3.2773-1.1602 5.5547-5.3125 8.5664-9 5.5234-6.7617 9.1016-11.73 16.055-18.426 1.8555-1.7852 2.5-2.7617 4.043-4.1836 2.4609-2.2695 2.5-1.6211 3.3867-4.8789z"/>
  <path d="m406.22 228.23c-2.4688-1.1797-3.9297-2.4492-6.2578-3.0234-1.8633 6.1797 26.559 12.184 29.227 10.371-0.98828-2.0664 1.1602-1.2305-7.5273-2.8203-3.1133-0.5625-5.1289-1.1602-8.1016-2.0273-3.1758-0.92578-4.5664-1.168-7.3359-2.5z"/>
  <path d="m53.883 334.7c1.3594 1.7656-2.8203 2.0273 8.375 3.3477 8.3242 0.97656 23.16 4.918 29.863 3.7812-1.8438 0.082031-4.9492-1.7734-8.2539-2.2695-3.1445-0.47266-6.4219-0.96875-9.7266-1.5508-6.7227-1.1875-13.566-3.125-20.258-3.3047z"/>
  <path d="m272 271.91c4.3242-1.9453 5.6133-5.293 7.7695-7.6992l19.312-24.562c-4.3242 1.5117-13.918 15.117-17.438 19.887-2.1875 2.9531-8.2148 8.4258-9.6445 12.375z"/>
  <path d="m113 310.43c-6.2695 1.4297-21.578-0.67578-22.891-0.12109 1.0781 0.64453-1.3086 0.36328 2.2969 1.8047l9.2734 1.4531c9.0703 0.71484 11.348 0.71484 11.32-3.1328z"/>
  <path d="m66.168 328.38c1.0273 1.2891-0.51562 0.41406 1.3203 1.2812l15.473 1.9258c4.1914 0.46484 13.023 2.7422 16.609 0.90625l-31.484-4.8359c-1.6133 0.13281-1.0078 0.22266-1.9141 0.72656z"/>
  <path d="m73.242 322.14c3.0039 4.2344 7.5781 3.4062 13.668 3.2773l16.559-1.1406c-2.4805-1.4922-4.1133-0.82813-7.5195-0.83594-2.7812-0.011719-5.4141-0.14062-8.2148-0.10938-13.285 0.15234-6.8438-0.21094-14.492-1.1875z"/>
  <path d="m276.2 384.59c1.1289-1.0977 0.67578 0.99609 2.1172-2.9844l1.2695-8.5977c0.48437-3.4375 1.582-6.4922 1.0781-11.633-1.5625 3.0742-4.6055 18.727-4.4648 23.211z"/>
  <path d="m252.23 383.11c0.88672 1.0781 0.33203 0.38281 1.3711 1.0391 0.89844-2.0977-1.0195-4.9805-1.9453-7.9219-1.0078-3.1953-1.1992-5.1211-1.2383-9.1914-3.3867 2.9141-0.92578 9.8047 0.65625 14.051 0.25391 0.66406 0.55469 1.2891 1.1602 2.0273z"/>
  <path d="m259.47 348.79c-1.793 1.0586-1.9766-0.15234-2.2891 3.5156-0.30078 3.4375 0.71484 8.8086 5.1094 9.6758-0.86719-4.4844-3.8086-1.6328-2.8203-13.191z"/>
  <path d="m254.71 358.46c-0.74609 0.66406-1.8945 0.44531-2.1367 3.5977-0.082031 1.0664 0.88672 9.0898 4.707 9.4336-0.21094-3.5156-3.0547-4.7578-2.5703-13.031z"/>
  <path d="m202.75 217.45c-4.8086 0.94922-8.75 7.5391-10.41 11.277 3.668-0.17969 2.6914-2.6094 5.3398-5.543 2.4297-2.6719 3.8906-3.1133 5.0703-5.7344z"/>
  <path d="m210.19 228.12c2.9648-1.0664 5.3828-4.4531 8.7266-8.2656 1.4102-1.6133 1.1289-1.0977 2.1367-3.2539l-9.2812 8.3672c-1.582 1.7656-1.1172 0.99609-1.582 3.1562z"/>
  <path d="m279.85 174.75 10.047-7.832c0.058594-0.22266 0.28125-0.22266 0.42188-0.33203-3.2773-1.1406-5.8359 4.2539-10.191 6.0391l-0.28125 2.125z"/>
  <path d="m242.95 390.75c-0.43359 2.9727-0.69531 5.6758 1.6211 7.6211 0.40234-0.96875 0.58594 0.082031 0.41406-2.2383z"/>
  <path d="m227.36 229.03c-2.1875 1.0273-3.4961 3.5156-4.2422 5.5938 2.2695-1.2109 3.8203-2.4492 4.2422-5.5938z"/>
  <path d="m203.53 224.8c1.7422-2.3477 0.88672-0.63672 1.8633-3.4453-2.5898 1.2188-3.0625 1.957-4.2617 4.3555l2.3984-0.90625z"/>
  <path d="m195.67 230.35c3.0547-0.37109 0.64453 0.51562 2.6992-1.5 1.6445-1.6016 0.76562-0.32422 2.0547-2.5508-1.3516 0.99609-4.0703 3.2031-4.7578 4.0508z"/>
  <path d="m279.8 196.92c2.3281-1.5234 0.84766 0.57422 2.1562-2.8516-2.0781 0.81641-1.6719 1.168-2.1562 2.8516z"/>
  <path d="m300.79 237.24c1.1484-2.4492-1.1797-0.44531-1.2188-0.17188-0.34375 2.7422 0.80469 1.0586 1.2188 0.17188z"/>
  <path d="m392.11 362.77c1.2617 1.5312-0.66406 0.36328 1.3516 1.3008 2.75 1.2891 0.5625 0.019531 1.2812-0.58594l-2.6289-0.71484z"/>
  <path d="m281.52 203.5 2.5898-0.77734c-0.875-0.46484 0.79688-0.75781-1.3086-0.32422-2.6211 0.54297-0.52344 0.32422-1.2812 1.0977z"/>
  <path d="m295.09 208.56c0.90625-1.6836-0.92578-0.15234-0.96875 0.12109-0.36328 2.0273 0.71484 0.35156 0.96875-0.12109z"/>
  <path d="m268.35 155.12c1.1602-0.72656 1.582 0.41406 1.2109-2.0273z"/>
  <path d="m252.33 336.93 1.7227-0.34375c-0.88672-0.64453 0.36328-1.5117-1.7227 0.34375z"/>
  <path d="m286.47 158.79c-1.0273-0.039062-0.44531 0.90625-0.24219 0.85547 0.15234-0.039062 1.6133-0.79688 0.24219-0.85547z"/>
  <path d="m268.35 155.12-0.35156 0.43359c0.050781-0.24219 0.23047-0.29297 0.35156-0.43359z"/>
 </g>
</svg>
