<?xml version="1.0" encoding="UTF-8"?>
<svg width="512pt" height="512pt" version="1.1" viewBox="0 0 512 512" xmlns="http://www.w3.org/2000/svg">
 <g fill="#fff">
  <path d="m400.01 336h-288.01c-4.4141 0-8-3.5742-8-8v-288c0-4.4141 3.5859-8 8-8h288.01c4.4258 0 8 3.5859 8 8v288c0 4.4258-3.5742 8-8 8zm-280.01-16h272.01v-272h-272.01z"/>
  <path d="m256 266.49c-45.48 0-82.48-37-82.48-82.48 0-45.488 37-82.496 82.48-82.496s82.48 37 82.48 82.496c0 45.48-37 82.48-82.48 82.48zm0-148.98c-36.656 0-66.48 29.832-66.48 66.496 0 36.656 29.824 66.48 66.48 66.48s66.48-29.824 66.48-66.48c0-36.664-29.824-66.496-66.48-66.496z"/>
  <path d="m293.24 256.5c-2.7695 0-5.457-1.4336-6.9375-4l-74.473-129c-2.207-3.832-0.89453-8.7188 2.9297-10.93 3.832-2.2148 8.7109-0.90234 10.93 2.9297l74.473 129c2.207 3.832 0.89453 8.7188-2.9297 10.93-1.2539 0.73438-2.6289 1.0703-3.9922 1.0703z"/>
  <path d="m173.71 480c-4.4141 0-8-3.5742-8-8v-144c0-4.4258 3.5859-8 8-8 4.4141 0 8 3.5742 8 8v144c0 4.4258-3.582 8-8 8z"/>
  <path d="m338.29 480c-4.4258 0-8-3.5742-8-8v-144c0-4.4258 3.5742-8 8-8 4.4258 0 8 3.5742 8 8v144c0 4.4258-3.5781 8-8 8z"/>
  <path d="m256 480c-4.4141 0-8-3.5742-8-8v-144c0-4.4258 3.5859-8 8-8s8 3.5742 8 8v144c0 4.4258-3.5859 8-8 8z"/>
 </g>
</svg>
