<?xml version="1.0" encoding="UTF-8"?>
<svg width="512pt" height="512pt" version="1.1" viewBox="0 0 512 512" xmlns="http://www.w3.org/2000/svg">
 <g fill="#fff">
  <path d="m256 198.42c-20.273 0-36.773-15.41-36.773-34.34 0-18.938 16.496-34.34 36.773-34.34 20.273 0 36.766 15.402 36.766 34.34 0 18.934-16.492 34.34-36.766 34.34zm0-63.133c-17.215 0-31.215 12.914-31.215 28.789 0 15.879 14.008 28.789 31.215 28.789 17.215 0 31.223-12.914 31.223-28.789s-14.008-28.789-31.223-28.789z"/>
  <path d="m344.11 228.25h-176.21v-186.15l0.38672-0.83594c0.78125-1.6875 19.934-41.262 87.719-41.262s86.938 39.574 87.719 41.262l0.38281 0.83594v186.15zm-167.89-8.3281h159.57v-175.91c-2.8984-5.3516-21.875-35.688-79.785-35.688-57.871-0.007813-76.859 30.293-79.781 35.688z"/>
  <path d="m172.05 40.238h167.89v5.5508h-167.89z"/>
  <path d="m249.06 224.09h13.871v287.91h-13.871z"/>
  <path d="m299.02 224.09h13.871v287.91h-13.871z"/>
  <path d="m199.11 224.09h13.879v287.91h-13.879z"/>
 </g>
</svg>
