<?xml version="1.0" encoding="utf-8"?>
<!-- Generator: Adobe Illustrator 26.2.1, SVG Export Plug-In . SVG Version: 6.00 Build 0)  -->
<svg version="1.1" id="Layer_1" xmlns="http://www.w3.org/2000/svg" xmlns:xlink="http://www.w3.org/1999/xlink" x="0px" y="0px"
	 viewBox="0 0 512 512" style="enable-background:new 0 0 512 512;" xml:space="preserve">
<style type="text/css">
	.st0{fill:#FFFFFF;}
</style>
<g>
	<path class="st0" d="M364.8,155.9c0-35.6-17.4-68.9-46.6-89.3l-1.3-0.9H195.2l-1.3,0.9c-22.4,15.5-38.1,38.8-44.1,65.4
		c-6,26.6-1.7,54.4,11.9,78v236.4h30.7l0-202.7l1.9,1.4l1.3,0.9h121.2l1.3-0.9l1.9-1.4v202.7h30.7l0-236.4
		C360.1,193.4,364.9,174.8,364.8,155.9L364.8,155.9z M313.6,235.5H198.4c-25.7-18.5-41-48.2-41-79.9s15.2-61.4,41-79.9h115.2
		c25.7,18.5,41,48.2,41,79.9S339.3,217,313.6,235.5L313.6,235.5z"/>
	<path class="st0" d="M198.6,222.5h114.9v-25.6H198.6V222.5z M203.7,202h104.7v15.4H203.7L203.7,202z"/>
	<path class="st0" d="M198.6,186.6h114.9V161H198.6V186.6z M203.7,166.1h104.7v15.4H203.7L203.7,166.1z"/>
	<path class="st0" d="M198.6,150.8h114.9v-25.6H198.6V150.8z M203.7,130.3h104.7v15.4H203.7L203.7,130.3z"/>
	<path class="st0" d="M198.6,114.9h114.9V89.3H198.6V114.9z M203.7,94.5h104.7v15.4H203.7L203.7,94.5z"/>
	<path class="st0" d="M179.2,141.1c-3.9,0-7.7,1.6-10.4,4.3c-2.8,2.8-4.3,6.5-4.3,10.4c0,3.9,1.6,7.7,4.3,10.4
		c2.8,2.8,6.5,4.3,10.4,4.3c3.9,0,7.7-1.6,10.4-4.3c2.8-2.8,4.3-6.5,4.3-10.4c0-3.9-1.6-7.6-4.3-10.4
		C186.8,142.6,183.1,141.1,179.2,141.1L179.2,141.1z M179.2,165.4c-3.9,0-7.4-2.3-8.9-5.9c-1.5-3.6-0.7-7.7,2.1-10.5
		c2.8-2.8,6.9-3.6,10.5-2.1c3.6,1.5,5.9,5,5.9,8.9c0,2.6-1,5-2.8,6.8C184.2,164.4,181.8,165.4,179.2,165.4L179.2,165.4z"/>
	<path class="st0" d="M347.8,155.8c0-3.9-1.5-7.6-4.3-10.4c-2.8-2.8-6.5-4.3-10.4-4.3c-3.9,0-7.6,1.5-10.4,4.2
		c-2.8,2.7-4.4,6.5-4.4,10.4c0,3.9,1.5,7.7,4.2,10.4c2.7,2.8,6.4,4.4,10.3,4.4c3.9,0,7.7-1.5,10.5-4.3
		C346.2,163.5,347.7,159.7,347.8,155.8L347.8,155.8z M323.4,155.8c0-3.9,2.4-7.4,6-8.9s7.8-0.6,10.5,2.2c2.7,2.8,3.5,7,2,10.6
		c-1.6,3.6-5.1,5.9-9,5.8C327.6,165.3,323.4,161,323.4,155.8L323.4,155.8z"/>
</g>
</svg>
