<?xml version='1.0' encoding='UTF-8' standalone='no'?>
<!-- Created with Fritzing (https://fritzing.org/) -->
<svg xmlns:svg='http://www.w3.org/2000/svg' xmlns='http://www.w3.org/2000/svg' version='1.2' baseProfile='tiny' x='0in' y='0in' width='2.39527in' height='1.73415in' viewBox='0 0 172.46 124.859' >
<g partID='61680'><g transform='translate(13.82,16.859)' ><g  id="breadboardbreadboard">
 <g  id="background">
  <rect  height="108" fill="#D9D9D9" width="158.64"/>
 </g>
 <rect  height="7.25" y="50.375" fill="#CCC9C9" width="158.64"/>
 <g  id="text">
  <g transform="matrix(1, 0, 0, 1, 10.0596, 9.3945)">
   <text  fill="#B3B0B0" font-family="'DroidSans'" font-size="4.6036">1</text>
  </g>
  <g transform="matrix(1, 0, 0, 1, 38.7144, 9.3945)">
   <text  fill="#B3B0B0" font-family="'DroidSans'" font-size="4.6036">5</text>
  </g>
  <g transform="matrix(1, 0, 0, 1, 73.1099, 9.3945)">
   <text  fill="#B3B0B0" font-family="'DroidSans'" font-size="4.6036">10</text>
  </g>
  <g transform="matrix(1, 0, 0, 1, 109.119, 9.3945)">
   <text  fill="#B3B0B0" font-family="'DroidSans'" font-size="4.6036">15</text>
  </g>
  <g transform="matrix(1, 0, 0, 1, 145.296, 9.3945)">
   <text  fill="#B3B0B0" font-family="'DroidSans'" font-size="4.6036">20</text>
  </g>
  <g transform="matrix(1, 0, 0, 1, 10.0596, 100.795)">
   <text  fill="#B3B0B0" font-family="'DroidSans'" font-size="4.6036">1</text>
  </g>
  <g transform="matrix(1, 0, 0, 1, 38.7144, 100.795)">
   <text  fill="#B3B0B0" font-family="'DroidSans'" font-size="4.6036">5</text>
  </g>
  <g transform="matrix(1, 0, 0, 1, 73.1099, 100.795)">
   <text  fill="#B3B0B0" font-family="'DroidSans'" font-size="4.6036">10</text>
  </g>
  <g transform="matrix(1, 0, 0, 1, 109.119, 100.795)">
   <text  fill="#B3B0B0" font-family="'DroidSans'" font-size="4.6036">15</text>
  </g>
  <g transform="matrix(1, 0, 0, 1, 145.296, 100.795)">
   <text  fill="#B3B0B0" font-family="'DroidSans'" font-size="4.6036">20</text>
  </g>
  <g transform="matrix(1, 0, 0, 1, 3.2612, 15.6143)">
   <text  fill="#B3B0B0" font-family="'DroidSans'" font-size="4.6036">A</text>
  </g>
  <g transform="matrix(1, 0, 0, 1, 3.2612, 22.8672)">
   <text  fill="#B3B0B0" font-family="'DroidSans'" font-size="4.6036">B</text>
  </g>
  <g transform="matrix(1, 0, 0, 1, 3.3052, 30.1187)">
   <text  fill="#B3B0B0" font-family="'DroidSans'" font-size="4.6036">C</text>
  </g>
  <g transform="matrix(1, 0, 0, 1, 3.2197, 37.3696)">
   <text  fill="#B3B0B0" font-family="'DroidSans'" font-size="4.6036">D</text>
  </g>
  <g transform="matrix(1, 0, 0, 1, 3.4341, 44.6211)">
   <text  fill="#B3B0B0" font-family="'DroidSans'" font-size="4.6036">E</text>
  </g>
  <g transform="matrix(1, 0, 0, 1, 3.4756, 66.377)">
   <text  fill="#B3B0B0" font-family="'DroidSans'" font-size="4.6036">F</text>
  </g>
  <g transform="matrix(1, 0, 0, 1, 3.2612, 73.627)">
   <text  fill="#B3B0B0" font-family="'DroidSans'" font-size="4.6036">G</text>
  </g>
  <g transform="matrix(1, 0, 0, 1, 3.2612, 80.8789)">
   <text  fill="#B3B0B0" font-family="'DroidSans'" font-size="4.6036">H</text>
  </g>
  <g transform="matrix(1, 0, 0, 1, 3.9473, 88.1318)">
   <text  fill="#B3B0B0" font-family="'DroidSans'" font-size="4.6036">I</text>
  </g>
  <g transform="matrix(1, 0, 0, 1, 3.4756, 95.3828)">
   <text  fill="#B3B0B0" font-family="'DroidSans'" font-size="4.6036">J</text>
  </g>
 </g>
 <g  id="sockets">
  <g  id="A1pin">
   <path  fill="#BFBFBF" d="M8.526,14.4c0,-1.322,1.072,-2.394,2.394,-2.394s2.394,1.072,2.394,2.394"/>
   <path  fill="#E6E6E6" d="M13.313,14.4c0,1.322,-1.072,2.394,-2.394,2.394S8.526,15.722,8.526,14.4"/>
   <circle  r="1.197" fill="#383838" cy="14.4" cx="10.92"/>
  </g>
  <g  id="B1pin">
   <path  fill="#BFBFBF" d="M8.526,21.6c0,-1.322,1.072,-2.394,2.394,-2.394s2.394,1.072,2.394,2.394"/>
   <path  fill="#E6E6E6" d="M13.313,21.6c0,1.322,-1.072,2.394,-2.394,2.394S8.526,22.922,8.526,21.6l0,0"/>
   <circle  r="1.197" fill="#383838" cy="21.6" cx="10.92"/>
  </g>
  <g  id="C1pin">
   <path  fill="#BFBFBF" d="M8.526,28.8c0,-1.322,1.072,-2.394,2.394,-2.394s2.394,1.072,2.394,2.394"/>
   <path  fill="#E6E6E6" d="M13.313,28.8c0,1.322,-1.072,2.394,-2.394,2.394S8.526,30.122,8.526,28.8"/>
   <circle  r="1.197" fill="#383838" cy="28.8" cx="10.92"/>
  </g>
  <g  id="D1pin">
   <path  fill="#BFBFBF" d="M8.526,36c0,-1.322,1.072,-2.394,2.394,-2.394s2.394,1.072,2.394,2.394"/>
   <path  fill="#E6E6E6" d="M13.313,36c0,1.322,-1.072,2.394,-2.394,2.394S8.526,37.322,8.526,36l0,0"/>
   <circle  r="1.197" fill="#383838" cy="36" cx="10.92"/>
  </g>
  <g  id="E1pin">
   <path  fill="#BFBFBF" d="M8.526,43.2c0,-1.322,1.072,-2.394,2.394,-2.394s2.394,1.071,2.394,2.394"/>
   <path  fill="#E6E6E6" d="M13.313,43.2c0,1.322,-1.072,2.394,-2.394,2.394S8.526,44.522,8.526,43.2l0,0"/>
   <circle  r="1.197" fill="#383838" cy="43.2" cx="10.92"/>
  </g>
  <g  id="A2pin">
   <path  fill="#BFBFBF" d="M15.727,14.4c0,-1.322,1.071,-2.394,2.394,-2.394c1.322,0,2.394,1.072,2.394,2.394"/>
   <path  fill="#E6E6E6" d="M20.514,14.4c0,1.322,-1.07,2.395,-2.393,2.395c-1.322,0.001,-2.394,-1.07,-2.395,-2.392c0,-0.001,0,-0.002,0,-0.003"/>
   <circle  r="1.197" fill="#383838" cy="14.4" cx="18.12"/>
  </g>
  <g  id="B2pin">
   <path  fill="#BFBFBF" d="M15.727,21.6c0,-1.322,1.071,-2.394,2.394,-2.394c1.322,0,2.394,1.072,2.394,2.394"/>
   <path  fill="#E6E6E6" d="M20.514,21.6c0,1.322,-1.07,2.394,-2.393,2.395c-1.322,0,-2.394,-1.07,-2.395,-2.393c0,-0.001,0,-0.001,0,-0.002"/>
   <circle  r="1.197" fill="#383838" cy="21.6" cx="18.12"/>
  </g>
  <g  id="C2pin">
   <path  fill="#BFBFBF" d="M15.727,28.8c0,-1.322,1.071,-2.394,2.394,-2.394c1.322,0,2.394,1.072,2.394,2.394"/>
   <path  fill="#E6E6E6" d="M20.514,28.8c0,1.322,-1.07,2.395,-2.393,2.395c-1.322,0.001,-2.394,-1.07,-2.395,-2.392c0,-0.001,0,-0.002,0,-0.003"/>
   <circle  r="1.197" fill="#383838" cy="28.8" cx="18.12"/>
  </g>
  <g  id="D2pin">
   <path  fill="#BFBFBF" d="M15.727,36c0,-1.322,1.071,-2.394,2.394,-2.394c1.322,0,2.394,1.072,2.394,2.394"/>
   <path  fill="#E6E6E6" d="M20.514,36c0,1.322,-1.07,2.394,-2.393,2.395c-1.322,0,-2.394,-1.07,-2.395,-2.392c0,-0.001,0,-0.002,0,-0.003"/>
   <circle  r="1.197" fill="#383838" cy="36" cx="18.12"/>
  </g>
  <g  id="E2pin">
   <path  fill="#BFBFBF" d="M15.727,43.2c0,-1.322,1.071,-2.394,2.394,-2.394c1.322,0,2.394,1.071,2.394,2.394"/>
   <path  fill="#E6E6E6" d="M20.514,43.2c0,1.322,-1.07,2.394,-2.393,2.395c-1.322,0.001,-2.394,-1.07,-2.395,-2.392c0,-0.001,0,-0.002,0,-0.002"/>
   <circle  r="1.197" fill="#383838" cy="43.2" cx="18.12"/>
  </g>
  <g  id="A3pin">
   <path  fill="#BFBFBF" d="M22.926,14.4c0,-1.322,1.072,-2.394,2.394,-2.394c1.322,0,2.394,1.072,2.394,2.394"/>
   <path  fill="#E6E6E6" d="M27.713,14.4c0,1.322,-1.071,2.394,-2.394,2.394c-1.322,0,-2.394,-1.071,-2.394,-2.394l0,0"/>
   <circle  r="1.197" fill="#383838" cy="14.4" cx="25.32"/>
  </g>
  <g  id="B3pin">
   <path  fill="#BFBFBF" d="M22.926,21.6c0,-1.322,1.072,-2.394,2.394,-2.394c1.322,0,2.394,1.072,2.394,2.394"/>
   <path  fill="#E6E6E6" d="M27.713,21.6c0,1.322,-1.071,2.394,-2.394,2.394c-1.322,0,-2.394,-1.072,-2.394,-2.394"/>
   <circle  r="1.197" fill="#383838" cy="21.6" cx="25.32"/>
  </g>
  <g  id="C3pin">
   <path  fill="#BFBFBF" d="M22.926,28.8c0,-1.322,1.072,-2.394,2.394,-2.394c1.322,0,2.394,1.072,2.394,2.394"/>
   <path  fill="#E6E6E6" d="M27.713,28.8c0,1.322,-1.071,2.394,-2.394,2.394c-1.322,0,-2.394,-1.071,-2.394,-2.394l0,0"/>
   <circle  r="1.197" fill="#383838" cy="28.8" cx="25.32"/>
  </g>
  <g  id="D3pin">
   <path  fill="#BFBFBF" d="M22.926,36c0,-1.322,1.072,-2.394,2.394,-2.394c1.322,0,2.394,1.072,2.394,2.394"/>
   <path  fill="#E6E6E6" d="M27.713,36c0,1.322,-1.071,2.394,-2.394,2.394c-1.322,0,-2.394,-1.072,-2.394,-2.394"/>
   <circle  r="1.197" fill="#383838" cy="36" cx="25.32"/>
  </g>
  <g  id="E3pin">
   <path  fill="#BFBFBF" d="M22.926,43.2c0,-1.322,1.072,-2.394,2.394,-2.394c1.322,0,2.394,1.071,2.394,2.394"/>
   <path  fill="#E6E6E6" d="M27.713,43.2c0,1.322,-1.071,2.394,-2.394,2.394c-1.322,0,-2.394,-1.072,-2.394,-2.394"/>
   <circle  r="1.197" fill="#383838" cy="43.2" cx="25.32"/>
  </g>
  <g  id="A4pin">
   <path  fill="#BFBFBF" d="M30.126,14.4c0,-1.322,1.072,-2.394,2.394,-2.394s2.394,1.072,2.394,2.394"/>
   <path  fill="#E6E6E6" d="M34.914,14.4c0,1.322,-1.072,2.394,-2.394,2.394s-2.394,-1.071,-2.394,-2.394l0,0"/>
   <circle  r="1.197" fill="#383838" cy="14.4" cx="32.52"/>
  </g>
  <g  id="B4pin">
   <path  fill="#BFBFBF" d="M30.126,21.6c0,-1.322,1.072,-2.394,2.394,-2.394s2.394,1.072,2.394,2.394"/>
   <path  fill="#E6E6E6" d="M34.914,21.6c0,1.322,-1.072,2.394,-2.394,2.394s-2.394,-1.072,-2.394,-2.394"/>
   <circle  r="1.197" fill="#383838" cy="21.6" cx="32.52"/>
  </g>
  <g  id="C4pin">
   <path  fill="#BFBFBF" d="M30.126,28.8c0,-1.322,1.072,-2.394,2.394,-2.394s2.394,1.072,2.394,2.394"/>
   <path  fill="#E6E6E6" d="M34.914,28.8c0,1.322,-1.072,2.394,-2.394,2.394s-2.394,-1.071,-2.394,-2.394l0,0"/>
   <circle  r="1.197" fill="#383838" cy="28.8" cx="32.52"/>
  </g>
  <g  id="D4pin">
   <path  fill="#BFBFBF" d="M30.126,36c0,-1.322,1.072,-2.394,2.394,-2.394s2.394,1.072,2.394,2.394"/>
   <path  fill="#E6E6E6" d="M34.914,36c0,1.322,-1.072,2.394,-2.394,2.394S30.126,37.322,30.126,36"/>
   <circle  r="1.197" fill="#383838" cy="36" cx="32.52"/>
  </g>
  <g  id="E4pin">
   <path  fill="#BFBFBF" d="M30.126,43.2c0,-1.322,1.072,-2.394,2.394,-2.394s2.394,1.071,2.394,2.394"/>
   <path  fill="#E6E6E6" d="M34.914,43.2c0,1.322,-1.072,2.394,-2.394,2.394s-2.394,-1.072,-2.394,-2.394"/>
   <circle  r="1.197" fill="#383838" cy="43.2" cx="32.52"/>
  </g>
  <g  id="A5pin">
   <path  fill="#BFBFBF" d="M37.326,14.4c0,-1.322,1.072,-2.394,2.394,-2.394c1.322,0,2.394,1.072,2.394,2.394"/>
   <path  fill="#E6E6E6" d="M42.114,14.4c0,1.322,-1.072,2.394,-2.394,2.394c-1.322,0,-2.394,-1.071,-2.394,-2.394l0,0"/>
   <circle  r="1.197" fill="#383838" cy="14.4" cx="39.72"/>
  </g>
  <g  id="B5pin">
   <path  fill="#BFBFBF" d="M37.326,21.6c0,-1.322,1.072,-2.394,2.394,-2.394c1.322,0,2.394,1.072,2.394,2.394"/>
   <path  fill="#E6E6E6" d="M42.114,21.6c0,1.322,-1.072,2.394,-2.394,2.394c-1.322,0,-2.394,-1.072,-2.394,-2.394"/>
   <circle  r="1.197" fill="#383838" cy="21.6" cx="39.72"/>
  </g>
  <g  id="C5pin">
   <path  fill="#BFBFBF" d="M37.326,28.8c0,-1.322,1.072,-2.394,2.394,-2.394c1.322,0,2.394,1.072,2.394,2.394"/>
   <path  fill="#E6E6E6" d="M42.114,28.8c0,1.322,-1.072,2.394,-2.394,2.394c-1.322,0,-2.394,-1.071,-2.394,-2.394l0,0"/>
   <circle  r="1.197" fill="#383838" cy="28.8" cx="39.72"/>
  </g>
  <g  id="D5pin">
   <path  fill="#BFBFBF" d="M37.326,36c0,-1.322,1.072,-2.394,2.394,-2.394c1.322,0,2.394,1.072,2.394,2.394"/>
   <path  fill="#E6E6E6" d="M42.114,36c0,1.322,-1.072,2.394,-2.394,2.394c-1.322,0,-2.394,-1.072,-2.394,-2.394"/>
   <circle  r="1.197" fill="#383838" cy="36" cx="39.72"/>
  </g>
  <g  id="E5pin">
   <path  fill="#BFBFBF" d="M37.326,43.2c0,-1.322,1.072,-2.394,2.394,-2.394c1.322,0,2.394,1.071,2.394,2.394"/>
   <path  fill="#E6E6E6" d="M42.114,43.2c0,1.322,-1.072,2.394,-2.394,2.394c-1.322,0,-2.394,-1.072,-2.394,-2.394"/>
   <circle  r="1.197" fill="#383838" cy="43.2" cx="39.72"/>
  </g>
  <g  id="A6pin">
   <path  fill="#BFBFBF" d="M44.526,14.4c0,-1.322,1.072,-2.394,2.394,-2.394s2.394,1.072,2.394,2.394"/>
   <path  fill="#E6E6E6" d="M49.313,14.4c0,1.322,-1.072,2.394,-2.394,2.394s-2.394,-1.071,-2.394,-2.394l0,0"/>
   <circle  r="1.197" fill="#383838" cy="14.4" cx="46.92"/>
  </g>
  <g  id="B6pin">
   <path  fill="#BFBFBF" d="M44.526,21.6c0,-1.322,1.072,-2.394,2.394,-2.394s2.394,1.072,2.394,2.394"/>
   <path  fill="#E6E6E6" d="M49.313,21.6c0,1.322,-1.072,2.394,-2.394,2.394s-2.394,-1.072,-2.394,-2.394"/>
   <circle  r="1.197" fill="#383838" cy="21.6" cx="46.92"/>
  </g>
  <g  id="C6pin">
   <path  fill="#BFBFBF" d="M44.526,28.8c0,-1.322,1.072,-2.394,2.394,-2.394s2.394,1.072,2.394,2.394"/>
   <path  fill="#E6E6E6" d="M49.313,28.8c0,1.322,-1.072,2.394,-2.394,2.394s-2.394,-1.071,-2.394,-2.394l0,0"/>
   <circle  r="1.197" fill="#383838" cy="28.8" cx="46.92"/>
  </g>
  <g  id="D6pin">
   <path  fill="#BFBFBF" d="M44.526,36c0,-1.322,1.072,-2.394,2.394,-2.394s2.394,1.072,2.394,2.394"/>
   <path  fill="#E6E6E6" d="M49.313,36c0,1.322,-1.072,2.394,-2.394,2.394S44.526,37.322,44.526,36"/>
   <circle  r="1.197" fill="#383838" cy="36" cx="46.92"/>
  </g>
  <g  id="E6pin">
   <path  fill="#BFBFBF" d="M44.526,43.2c0,-1.322,1.072,-2.394,2.394,-2.394s2.394,1.071,2.394,2.394"/>
   <path  fill="#E6E6E6" d="M49.313,43.2c0,1.322,-1.072,2.394,-2.394,2.394s-2.394,-1.072,-2.394,-2.394"/>
   <circle  r="1.197" fill="#383838" cy="43.2" cx="46.92"/>
  </g>
  <g  id="A7pin">
   <path  fill="#BFBFBF" d="M51.727,14.4c0,-1.322,1.071,-2.394,2.394,-2.394c1.322,0,2.394,1.072,2.394,2.394"/>
   <path  fill="#E6E6E6" d="M56.514,14.4c0,1.322,-1.072,2.394,-2.394,2.394c-1.322,0,-2.394,-1.071,-2.394,-2.394l0,0"/>
   <circle  r="1.197" fill="#383838" cy="14.4" cx="54.12"/>
  </g>
  <g  id="B7pin">
   <path  fill="#BFBFBF" d="M51.727,21.6c0,-1.322,1.071,-2.394,2.394,-2.394c1.322,0,2.394,1.072,2.394,2.394"/>
   <path  fill="#E6E6E6" d="M56.514,21.6c0,1.322,-1.072,2.394,-2.394,2.394c-1.322,0,-2.394,-1.072,-2.394,-2.394"/>
   <circle  r="1.197" fill="#383838" cy="21.6" cx="54.12"/>
  </g>
  <g  id="C7pin">
   <path  fill="#BFBFBF" d="M51.727,28.8c0,-1.322,1.071,-2.394,2.394,-2.394c1.322,0,2.394,1.072,2.394,2.394"/>
   <path  fill="#E6E6E6" d="M56.514,28.8c0,1.322,-1.072,2.394,-2.394,2.394c-1.322,0,-2.394,-1.071,-2.394,-2.394l0,0"/>
   <circle  r="1.197" fill="#383838" cy="28.8" cx="54.12"/>
  </g>
  <g  id="D7pin">
   <path  fill="#BFBFBF" d="M51.727,36c0,-1.322,1.071,-2.394,2.394,-2.394c1.322,0,2.394,1.072,2.394,2.394"/>
   <path  fill="#E6E6E6" d="M56.514,36c0,1.322,-1.072,2.394,-2.394,2.394c-1.322,0,-2.394,-1.072,-2.394,-2.394"/>
   <circle  r="1.197" fill="#383838" cy="36" cx="54.12"/>
  </g>
  <g  id="E7pin">
   <path  fill="#BFBFBF" d="M51.727,43.2c0,-1.322,1.071,-2.394,2.394,-2.394c1.322,0,2.394,1.071,2.394,2.394"/>
   <path  fill="#E6E6E6" d="M56.514,43.2c0,1.322,-1.072,2.394,-2.394,2.394c-1.322,0,-2.394,-1.072,-2.394,-2.394"/>
   <circle  r="1.197" fill="#383838" cy="43.2" cx="54.12"/>
  </g>
  <g  id="A8pin">
   <path  fill="#BFBFBF" d="M58.926,14.4c0,-1.322,1.072,-2.394,2.394,-2.394c1.322,0,2.394,1.072,2.394,2.394"/>
   <path  fill="#E6E6E6" d="M63.713,14.4c0,1.322,-1.071,2.394,-2.394,2.394c-1.322,0,-2.394,-1.071,-2.394,-2.394l0,0"/>
   <circle  r="1.197" fill="#383838" cy="14.4" cx="61.32"/>
  </g>
  <g  id="B8pin">
   <path  fill="#BFBFBF" d="M58.926,21.6c0,-1.322,1.072,-2.394,2.394,-2.394c1.322,0,2.394,1.072,2.394,2.394"/>
   <path  fill="#E6E6E6" d="M63.713,21.6c0,1.322,-1.071,2.394,-2.394,2.394c-1.322,0,-2.394,-1.072,-2.394,-2.394"/>
   <circle  r="1.197" fill="#383838" cy="21.6" cx="61.32"/>
  </g>
  <g  id="C8pin">
   <path  fill="#BFBFBF" d="M58.926,28.8c0,-1.322,1.072,-2.394,2.394,-2.394c1.322,0,2.394,1.072,2.394,2.394"/>
   <path  fill="#E6E6E6" d="M63.713,28.8c0,1.322,-1.071,2.394,-2.394,2.394c-1.322,0,-2.394,-1.071,-2.394,-2.394l0,0"/>
   <circle  r="1.197" fill="#383838" cy="28.8" cx="61.32"/>
  </g>
  <g  id="D8pin">
   <path  fill="#BFBFBF" d="M58.926,36c0,-1.322,1.072,-2.394,2.394,-2.394c1.322,0,2.394,1.072,2.394,2.394"/>
   <path  fill="#E6E6E6" d="M63.713,36c0,1.322,-1.071,2.394,-2.394,2.394c-1.322,0,-2.394,-1.072,-2.394,-2.394"/>
   <circle  r="1.197" fill="#383838" cy="36" cx="61.32"/>
  </g>
  <g  id="E8pin">
   <path  fill="#BFBFBF" d="M58.926,43.2c0,-1.322,1.072,-2.394,2.394,-2.394c1.322,0,2.394,1.071,2.394,2.394"/>
   <path  fill="#E6E6E6" d="M63.713,43.2c0,1.322,-1.071,2.394,-2.394,2.394c-1.322,0,-2.394,-1.072,-2.394,-2.394"/>
   <circle  r="1.197" fill="#383838" cy="43.2" cx="61.32"/>
  </g>
  <g  id="A9pin">
   <path  fill="#BFBFBF" d="M66.126,14.4c0,-1.322,1.071,-2.394,2.394,-2.394c1.322,0,2.394,1.072,2.394,2.394"/>
   <path  fill="#E6E6E6" d="M70.914,14.4c0,1.322,-1.072,2.394,-2.394,2.394c-1.322,0,-2.394,-1.071,-2.394,-2.394l0,0"/>
   <circle  r="1.197" fill="#383838" cy="14.4" cx="68.52"/>
  </g>
  <g  id="B9pin">
   <path  fill="#BFBFBF" d="M66.126,21.6c0,-1.322,1.071,-2.394,2.394,-2.394c1.322,0,2.394,1.072,2.394,2.394"/>
   <path  fill="#E6E6E6" d="M70.914,21.6c0,1.322,-1.072,2.394,-2.394,2.394c-1.322,0,-2.394,-1.072,-2.394,-2.394"/>
   <circle  r="1.197" fill="#383838" cy="21.6" cx="68.52"/>
  </g>
  <g  id="C9pin">
   <path  fill="#BFBFBF" d="M66.126,28.8c0,-1.322,1.071,-2.394,2.394,-2.394c1.322,0,2.394,1.072,2.394,2.394"/>
   <path  fill="#E6E6E6" d="M70.914,28.8c0,1.322,-1.072,2.394,-2.394,2.394c-1.322,0,-2.394,-1.071,-2.394,-2.394l0,0"/>
   <circle  r="1.197" fill="#383838" cy="28.8" cx="68.52"/>
  </g>
  <g  id="D9pin">
   <path  fill="#BFBFBF" d="M66.126,36c0,-1.322,1.071,-2.394,2.394,-2.394c1.322,0,2.394,1.072,2.394,2.394"/>
   <path  fill="#E6E6E6" d="M70.914,36c0,1.322,-1.072,2.394,-2.394,2.394c-1.322,0,-2.394,-1.072,-2.394,-2.394"/>
   <circle  r="1.197" fill="#383838" cy="36" cx="68.52"/>
  </g>
  <g  id="E9pin">
   <path  fill="#BFBFBF" d="M66.126,43.2c0,-1.322,1.071,-2.394,2.394,-2.394c1.322,0,2.394,1.071,2.394,2.394"/>
   <path  fill="#E6E6E6" d="M70.914,43.2c0,1.322,-1.072,2.394,-2.394,2.394c-1.322,0,-2.394,-1.072,-2.394,-2.394"/>
   <circle  r="1.197" fill="#383838" cy="43.2" cx="68.52"/>
  </g>
  <g  id="A10pin">
   <path  fill="#BFBFBF" d="M73.326,14.4c0,-1.322,1.072,-2.394,2.394,-2.394c1.322,0,2.394,1.072,2.394,2.394"/>
   <path  fill="#E6E6E6" d="M78.113,14.4c0,1.322,-1.071,2.394,-2.394,2.394c-1.322,0,-2.394,-1.071,-2.394,-2.394l0,0"/>
   <circle  r="1.197" fill="#383838" cy="14.4" cx="75.72"/>
  </g>
  <g  id="B10pin">
   <path  fill="#BFBFBF" d="M73.326,21.6c0,-1.322,1.072,-2.394,2.394,-2.394c1.322,0,2.394,1.072,2.394,2.394"/>
   <path  fill="#E6E6E6" d="M78.113,21.6c0,1.322,-1.071,2.394,-2.394,2.394c-1.322,0,-2.394,-1.072,-2.394,-2.394"/>
   <circle  r="1.197" fill="#383838" cy="21.6" cx="75.72"/>
  </g>
  <g  id="C10pin">
   <path  fill="#BFBFBF" d="M73.326,28.8c0,-1.322,1.072,-2.394,2.394,-2.394c1.322,0,2.394,1.072,2.394,2.394"/>
   <path  fill="#E6E6E6" d="M78.113,28.8c0,1.322,-1.071,2.394,-2.394,2.394c-1.322,0,-2.394,-1.071,-2.394,-2.394l0,0"/>
   <circle  r="1.197" fill="#383838" cy="28.8" cx="75.72"/>
  </g>
  <g  id="D10pin">
   <path  fill="#BFBFBF" d="M73.326,36c0,-1.322,1.072,-2.394,2.394,-2.394c1.322,0,2.394,1.072,2.394,2.394"/>
   <path  fill="#E6E6E6" d="M78.113,36c0,1.322,-1.071,2.394,-2.394,2.394c-1.322,0,-2.394,-1.072,-2.394,-2.394"/>
   <circle  r="1.197" fill="#383838" cy="36" cx="75.72"/>
  </g>
  <g  id="E10pin">
   <path  fill="#BFBFBF" d="M73.326,43.2c0,-1.322,1.072,-2.394,2.394,-2.394c1.322,0,2.394,1.071,2.394,2.394"/>
   <path  fill="#E6E6E6" d="M78.113,43.2c0,1.322,-1.071,2.394,-2.394,2.394c-1.322,0,-2.394,-1.072,-2.394,-2.394"/>
   <circle  r="1.197" fill="#383838" cy="43.2" cx="75.72"/>
  </g>
  <g  id="A11pin">
   <path  fill="#BFBFBF" d="M80.527,14.4c0,-1.322,1.071,-2.394,2.393,-2.394c1.322,0,2.395,1.072,2.395,2.394"/>
   <path  fill="#E6E6E6" d="M85.314,14.4c0,1.322,-1.072,2.394,-2.395,2.394c-1.321,0,-2.393,-1.071,-2.393,-2.394l0,0"/>
   <circle  r="1.197" fill="#383838" cy="14.4" cx="82.919"/>
  </g>
  <g  id="B11pin">
   <path  fill="#BFBFBF" d="M80.527,21.6c0,-1.322,1.071,-2.394,2.393,-2.394c1.322,0,2.395,1.072,2.395,2.394"/>
   <path  fill="#E6E6E6" d="M85.314,21.6c0,1.322,-1.072,2.394,-2.395,2.394c-1.321,0,-2.393,-1.072,-2.393,-2.394"/>
   <circle  r="1.197" fill="#383838" cy="21.6" cx="82.919"/>
  </g>
  <g  id="C11pin">
   <path  fill="#BFBFBF" d="M80.527,28.8c0,-1.322,1.071,-2.394,2.393,-2.394c1.322,0,2.395,1.072,2.395,2.394"/>
   <path  fill="#E6E6E6" d="M85.314,28.8c0,1.322,-1.072,2.394,-2.395,2.394c-1.321,0,-2.393,-1.071,-2.393,-2.394l0,0"/>
   <circle  r="1.197" fill="#383838" cy="28.8" cx="82.919"/>
  </g>
  <g  id="D11pin">
   <path  fill="#BFBFBF" d="M80.527,36c0,-1.322,1.071,-2.394,2.393,-2.394c1.322,0,2.395,1.072,2.395,2.394"/>
   <path  fill="#E6E6E6" d="M85.314,36c0,1.322,-1.072,2.394,-2.395,2.394c-1.321,0,-2.393,-1.072,-2.393,-2.394"/>
   <circle  r="1.197" fill="#383838" cy="36" cx="82.919"/>
  </g>
  <g  id="E11pin">
   <path  fill="#BFBFBF" d="M80.527,43.2c0,-1.322,1.071,-2.394,2.393,-2.394c1.322,0,2.395,1.071,2.395,2.394"/>
   <path  fill="#E6E6E6" d="M85.314,43.2c0,1.322,-1.072,2.394,-2.395,2.394c-1.321,0,-2.393,-1.072,-2.393,-2.394"/>
   <circle  r="1.197" fill="#383838" cy="43.2" cx="82.919"/>
  </g>
  <g  id="A12pin">
   <path  fill="#BFBFBF" d="M87.726,14.4c0,-1.322,1.072,-2.394,2.394,-2.394c1.322,0,2.394,1.072,2.394,2.394"/>
   <path  fill="#E6E6E6" d="M92.513,14.4c0,1.322,-1.071,2.394,-2.394,2.394c-1.321,0,-2.394,-1.071,-2.394,-2.394l0,0"/>
   <circle  r="1.197" fill="#383838" cy="14.4" cx="90.12"/>
  </g>
  <g  id="B12pin">
   <path  fill="#BFBFBF" d="M87.726,21.6c0,-1.322,1.072,-2.394,2.394,-2.394c1.322,0,2.394,1.072,2.394,2.394"/>
   <path  fill="#E6E6E6" d="M92.513,21.6c0,1.322,-1.071,2.394,-2.394,2.394c-1.321,0,-2.394,-1.072,-2.394,-2.394"/>
   <circle  r="1.197" fill="#383838" cy="21.6" cx="90.12"/>
  </g>
  <g  id="C12pin">
   <path  fill="#BFBFBF" d="M87.726,28.8c0,-1.322,1.072,-2.394,2.394,-2.394c1.322,0,2.394,1.072,2.394,2.394"/>
   <path  fill="#E6E6E6" d="M92.513,28.8c0,1.322,-1.071,2.394,-2.394,2.394c-1.321,0,-2.394,-1.071,-2.394,-2.394l0,0"/>
   <circle  r="1.197" fill="#383838" cy="28.8" cx="90.12"/>
  </g>
  <g  id="D12pin">
   <path  fill="#BFBFBF" d="M87.726,36c0,-1.322,1.072,-2.394,2.394,-2.394c1.322,0,2.394,1.072,2.394,2.394"/>
   <path  fill="#E6E6E6" d="M92.513,36c0,1.322,-1.071,2.394,-2.394,2.394c-1.321,0,-2.394,-1.072,-2.394,-2.394"/>
   <circle  r="1.197" fill="#383838" cy="36" cx="90.12"/>
  </g>
  <g  id="E12pin">
   <path  fill="#BFBFBF" d="M87.726,43.2c0,-1.322,1.072,-2.394,2.394,-2.394c1.322,0,2.394,1.071,2.394,2.394"/>
   <path  fill="#E6E6E6" d="M92.513,43.2c0,1.322,-1.071,2.394,-2.394,2.394c-1.321,0,-2.394,-1.072,-2.394,-2.394"/>
   <circle  r="1.197" fill="#383838" cy="43.2" cx="90.12"/>
  </g>
  <g  id="A13pin">
   <path  fill="#BFBFBF" d="M94.926,14.4c0,-1.322,1.071,-2.394,2.394,-2.394s2.394,1.072,2.394,2.394"/>
   <path  fill="#E6E6E6" d="M99.713,14.4c0,1.322,-1.071,2.394,-2.394,2.394s-2.394,-1.071,-2.394,-2.394l0,0"/>
   <circle  r="1.197" fill="#383838" cy="14.4" cx="97.32"/>
  </g>
  <g  id="B13pin">
   <path  fill="#BFBFBF" d="M94.926,21.6c0,-1.322,1.071,-2.394,2.394,-2.394s2.394,1.072,2.394,2.394"/>
   <path  fill="#E6E6E6" d="M99.713,21.6c0,1.322,-1.071,2.394,-2.394,2.394s-2.394,-1.072,-2.394,-2.394"/>
   <circle  r="1.197" fill="#383838" cy="21.6" cx="97.32"/>
  </g>
  <g  id="C13pin">
   <path  fill="#BFBFBF" d="M94.926,28.8c0,-1.322,1.071,-2.394,2.394,-2.394s2.394,1.072,2.394,2.394"/>
   <path  fill="#E6E6E6" d="M99.713,28.8c0,1.322,-1.071,2.394,-2.394,2.394s-2.394,-1.071,-2.394,-2.394l0,0"/>
   <circle  r="1.197" fill="#383838" cy="28.8" cx="97.32"/>
  </g>
  <g  id="D13pin">
   <path  fill="#BFBFBF" d="M94.926,36c0,-1.322,1.071,-2.394,2.394,-2.394s2.394,1.072,2.394,2.394"/>
   <path  fill="#E6E6E6" d="M99.713,36c0,1.322,-1.071,2.394,-2.394,2.394S94.926,37.322,94.926,36"/>
   <circle  r="1.197" fill="#383838" cy="36" cx="97.32"/>
  </g>
  <g  id="E13pin">
   <path  fill="#BFBFBF" d="M94.926,43.2c0,-1.322,1.071,-2.394,2.394,-2.394s2.394,1.071,2.394,2.394"/>
   <path  fill="#E6E6E6" d="M99.713,43.2c0,1.322,-1.071,2.394,-2.394,2.394s-2.394,-1.072,-2.394,-2.394"/>
   <circle  r="1.197" fill="#383838" cy="43.2" cx="97.32"/>
  </g>
  <g  id="A14pin">
   <path  fill="#BFBFBF" d="M102.126,14.4c0,-1.322,1.071,-2.394,2.394,-2.394c1.321,0,2.394,1.072,2.394,2.394"/>
   <path  fill="#E6E6E6" d="M106.914,14.4c0,1.322,-1.072,2.394,-2.394,2.394c-1.322,0,-2.394,-1.071,-2.394,-2.394l0,0"/>
   <circle  r="1.197" fill="#383838" cy="14.4" cx="104.52"/>
  </g>
  <g  id="B14pin">
   <path  fill="#BFBFBF" d="M102.126,21.6c0,-1.322,1.071,-2.394,2.394,-2.394c1.321,0,2.394,1.072,2.394,2.394"/>
   <path  fill="#E6E6E6" d="M106.914,21.6c0,1.322,-1.072,2.394,-2.394,2.394c-1.322,0,-2.394,-1.072,-2.394,-2.394"/>
   <circle  r="1.197" fill="#383838" cy="21.6" cx="104.52"/>
  </g>
  <g  id="C14pin">
   <path  fill="#BFBFBF" d="M102.126,28.8c0,-1.322,1.071,-2.394,2.394,-2.394c1.321,0,2.394,1.072,2.394,2.394"/>
   <path  fill="#E6E6E6" d="M106.914,28.8c0,1.322,-1.072,2.394,-2.394,2.394c-1.322,0,-2.394,-1.071,-2.394,-2.394l0,0"/>
   <circle  r="1.197" fill="#383838" cy="28.8" cx="104.52"/>
  </g>
  <g  id="D14pin">
   <path  fill="#BFBFBF" d="M102.126,36c0,-1.322,1.071,-2.394,2.394,-2.394c1.321,0,2.394,1.072,2.394,2.394"/>
   <path  fill="#E6E6E6" d="M106.914,36c0,1.322,-1.072,2.394,-2.394,2.394c-1.322,0,-2.394,-1.072,-2.394,-2.394"/>
   <circle  r="1.197" fill="#383838" cy="36" cx="104.52"/>
  </g>
  <g  id="E14pin">
   <path  fill="#BFBFBF" d="M102.126,43.2c0,-1.322,1.071,-2.394,2.394,-2.394c1.321,0,2.394,1.071,2.394,2.394"/>
   <path  fill="#E6E6E6" d="M106.914,43.2c0,1.322,-1.072,2.394,-2.394,2.394c-1.322,0,-2.394,-1.072,-2.394,-2.394"/>
   <circle  r="1.197" fill="#383838" cy="43.2" cx="104.52"/>
  </g>
  <g  id="A15pin">
   <path  fill="#BFBFBF" d="M109.326,14.4c0.002,-1.322,1.076,-2.392,2.398,-2.39c1.318,0.002,2.387,1.071,2.389,2.39"/>
   <path  fill="#E6E6E6" d="M114.113,14.4c0.002,1.322,-1.067,2.396,-2.389,2.397c-1.322,0.002,-2.396,-1.068,-2.398,-2.39c0,-0.002,0,-0.005,0,-0.007"/>
   <circle  r="1.197" fill="#383838" cy="14.4" cx="111.72"/>
  </g>
  <g  id="B15pin">
   <path  fill="#BFBFBF" d="M109.326,21.6c0.002,-1.322,1.076,-2.392,2.398,-2.39c1.318,0.002,2.387,1.071,2.389,2.39"/>
   <path  fill="#E6E6E6" d="M114.113,21.6c0.002,1.322,-1.067,2.395,-2.389,2.397c-1.322,0.002,-2.396,-1.068,-2.398,-2.39c0,-0.002,0,-0.005,0,-0.007"/>
   <circle  r="1.197" fill="#383838" cy="21.6" cx="111.72"/>
  </g>
  <g  id="C15pin">
   <path  fill="#BFBFBF" d="M109.326,28.8c0.002,-1.322,1.076,-2.392,2.398,-2.39c1.318,0.002,2.387,1.071,2.389,2.39"/>
   <path  fill="#E6E6E6" d="M114.113,28.8c0.002,1.322,-1.067,2.396,-2.389,2.397c-1.322,0.002,-2.396,-1.068,-2.398,-2.39c0,-0.002,0,-0.005,0,-0.007"/>
   <circle  r="1.197" fill="#383838" cy="28.8" cx="111.72"/>
  </g>
  <g  id="D15pin">
   <path  fill="#BFBFBF" d="M109.326,36c0.002,-1.322,1.076,-2.392,2.398,-2.39c1.318,0.002,2.387,1.071,2.389,2.39"/>
   <path  fill="#E6E6E6" d="M114.113,36c0.002,1.322,-1.067,2.395,-2.389,2.397c-1.322,0.002,-2.396,-1.068,-2.398,-2.39c0,-0.002,0,-0.005,0,-0.007"/>
   <circle  r="1.197" fill="#383838" cy="36" cx="111.72"/>
  </g>
  <g  id="E15pin">
   <path  fill="#BFBFBF" d="M109.326,43.2c0.002,-1.322,1.076,-2.392,2.398,-2.39c1.318,0.002,2.387,1.071,2.389,2.39"/>
   <path  fill="#E6E6E6" d="M114.113,43.2c0.002,1.322,-1.067,2.395,-2.389,2.397c-1.322,0.002,-2.396,-1.068,-2.398,-2.39c0,-0.002,0,-0.005,0,-0.007"/>
   <circle  r="1.197" fill="#383838" cy="43.2" cx="111.72"/>
  </g>
  <g  id="A16pin">
   <path  fill="#BFBFBF" d="M116.527,14.4c0.002,-1.322,1.074,-2.392,2.396,-2.39c1.319,0.002,2.389,1.071,2.391,2.39"/>
   <path  fill="#E6E6E6" d="M121.314,14.4c0.002,1.322,-1.068,2.396,-2.391,2.397s-2.395,-1.068,-2.396,-2.39c0,-0.002,0,-0.005,0,-0.007"/>
   <circle  r="1.197" fill="#383838" cy="14.4" cx="118.919"/>
  </g>
  <g  id="B16pin">
   <path  fill="#BFBFBF" d="M116.527,21.6c0.002,-1.322,1.074,-2.392,2.396,-2.39c1.319,0.002,2.389,1.071,2.391,2.39"/>
   <path  fill="#E6E6E6" d="M121.314,21.6c0.002,1.322,-1.068,2.395,-2.391,2.397s-2.395,-1.068,-2.396,-2.39c0,-0.002,0,-0.005,0,-0.007"/>
   <circle  r="1.197" fill="#383838" cy="21.6" cx="118.919"/>
  </g>
  <g  id="C16pin">
   <path  fill="#BFBFBF" d="M116.527,28.8c0.002,-1.322,1.074,-2.392,2.396,-2.39c1.319,0.002,2.389,1.071,2.391,2.39"/>
   <path  fill="#E6E6E6" d="M121.314,28.8c0.002,1.322,-1.068,2.396,-2.391,2.397s-2.395,-1.068,-2.396,-2.39c0,-0.002,0,-0.005,0,-0.007"/>
   <circle  r="1.197" fill="#383838" cy="28.8" cx="118.919"/>
  </g>
  <g  id="D16pin">
   <path  fill="#BFBFBF" d="M116.527,36c0.002,-1.322,1.074,-2.392,2.396,-2.39c1.319,0.002,2.389,1.071,2.391,2.39"/>
   <path  fill="#E6E6E6" d="M121.314,36c0.002,1.322,-1.068,2.395,-2.391,2.397c-1.322,0.002,-2.395,-1.068,-2.396,-2.39c0,-0.002,0,-0.005,0,-0.007"/>
   <circle  r="1.197" fill="#383838" cy="36" cx="118.919"/>
  </g>
  <g  id="E16pin">
   <path  fill="#BFBFBF" d="M116.527,43.2c0.002,-1.322,1.074,-2.392,2.396,-2.39c1.319,0.002,2.389,1.071,2.391,2.39"/>
   <path  fill="#E6E6E6" d="M121.314,43.2c0.002,1.322,-1.068,2.395,-2.391,2.397s-2.395,-1.068,-2.396,-2.39c0,-0.002,0,-0.005,0,-0.007"/>
   <circle  r="1.197" fill="#383838" cy="43.2" cx="118.919"/>
  </g>
  <g  id="A17pin">
   <path  fill="#BFBFBF" d="M123.726,14.4c0.002,-1.322,1.075,-2.392,2.397,-2.39c1.319,0.002,2.388,1.071,2.39,2.39"/>
   <path  fill="#E6E6E6" d="M128.513,14.4c0.002,1.322,-1.068,2.396,-2.39,2.397c-1.322,0.002,-2.396,-1.068,-2.397,-2.39c0,-0.002,0,-0.005,0,-0.007"/>
   <circle  r="1.197" fill="#383838" cy="14.4" cx="126.12"/>
  </g>
  <g  id="B17pin">
   <path  fill="#BFBFBF" d="M123.726,21.6c0.002,-1.322,1.075,-2.392,2.397,-2.39c1.319,0.002,2.388,1.071,2.39,2.39"/>
   <path  fill="#E6E6E6" d="M128.513,21.6c0.002,1.322,-1.068,2.395,-2.39,2.397c-1.322,0.002,-2.396,-1.068,-2.397,-2.39c0,-0.002,0,-0.005,0,-0.007"/>
   <circle  r="1.197" fill="#383838" cy="21.6" cx="126.12"/>
  </g>
  <g  id="C17pin">
   <path  fill="#BFBFBF" d="M123.726,28.8c0.002,-1.322,1.075,-2.392,2.397,-2.39c1.319,0.002,2.388,1.071,2.39,2.39"/>
   <path  fill="#E6E6E6" d="M128.513,28.8c0.002,1.322,-1.068,2.396,-2.39,2.397c-1.322,0.002,-2.396,-1.068,-2.397,-2.39c0,-0.002,0,-0.005,0,-0.007"/>
   <circle  r="1.197" fill="#383838" cy="28.8" cx="126.12"/>
  </g>
  <g  id="D17pin">
   <path  fill="#BFBFBF" d="M123.726,36c0.002,-1.322,1.075,-2.392,2.397,-2.39c1.319,0.002,2.388,1.071,2.39,2.39"/>
   <path  fill="#E6E6E6" d="M128.513,36c0.002,1.322,-1.068,2.395,-2.39,2.397c-1.322,0.002,-2.396,-1.068,-2.397,-2.39c0,-0.002,0,-0.005,0,-0.007"/>
   <circle  r="1.197" fill="#383838" cy="36" cx="126.12"/>
  </g>
  <g  id="E17pin">
   <path  fill="#BFBFBF" d="M123.726,43.2c0.002,-1.322,1.075,-2.392,2.397,-2.39c1.319,0.002,2.388,1.071,2.39,2.39"/>
   <path  fill="#E6E6E6" d="M128.513,43.2c0.002,1.322,-1.068,2.395,-2.39,2.397c-1.322,0.002,-2.396,-1.068,-2.397,-2.39c0,-0.002,0,-0.005,0,-0.007"/>
   <circle  r="1.197" fill="#383838" cy="43.2" cx="126.12"/>
  </g>
  <g  id="A18pin">
   <path  fill="#BFBFBF" d="M130.926,14.4c0.002,-1.322,1.075,-2.392,2.397,-2.39c1.318,0.002,2.388,1.071,2.39,2.39"/>
   <path  fill="#E6E6E6" d="M135.713,14.4c0.002,1.322,-1.067,2.396,-2.39,2.397s-2.396,-1.068,-2.397,-2.39c0,-0.002,0,-0.005,0,-0.007"/>
   <circle  r="1.197" fill="#383838" cy="14.4" cx="133.32"/>
  </g>
  <g  id="B18pin">
   <path  fill="#BFBFBF" d="M130.926,21.6c0.002,-1.322,1.075,-2.392,2.397,-2.39c1.318,0.002,2.388,1.071,2.39,2.39"/>
   <path  fill="#E6E6E6" d="M135.713,21.6c0.002,1.322,-1.067,2.395,-2.39,2.397s-2.396,-1.068,-2.397,-2.39c0,-0.002,0,-0.005,0,-0.007"/>
   <circle  r="1.197" fill="#383838" cy="21.6" cx="133.32"/>
  </g>
  <g  id="C18pin">
   <path  fill="#BFBFBF" d="M130.926,28.8c0.002,-1.322,1.075,-2.392,2.397,-2.39c1.318,0.002,2.388,1.071,2.39,2.39"/>
   <path  fill="#E6E6E6" d="M135.713,28.8c0.002,1.322,-1.067,2.396,-2.39,2.397s-2.396,-1.068,-2.397,-2.39c0,-0.002,0,-0.005,0,-0.007"/>
   <circle  r="1.197" fill="#383838" cy="28.8" cx="133.32"/>
  </g>
  <g  id="D18pin">
   <path  fill="#BFBFBF" d="M130.926,36c0.002,-1.322,1.075,-2.392,2.397,-2.39c1.318,0.002,2.388,1.071,2.39,2.39"/>
   <path  fill="#E6E6E6" d="M135.713,36c0.002,1.322,-1.067,2.395,-2.39,2.397c-1.322,0.002,-2.396,-1.068,-2.397,-2.39c0,-0.002,0,-0.005,0,-0.007"/>
   <circle  r="1.197" fill="#383838" cy="36" cx="133.32"/>
  </g>
  <g  id="E18pin">
   <path  fill="#BFBFBF" d="M130.926,43.2c0.002,-1.322,1.075,-2.392,2.397,-2.39c1.318,0.002,2.388,1.071,2.39,2.39"/>
   <path  fill="#E6E6E6" d="M135.713,43.2c0.002,1.322,-1.067,2.395,-2.39,2.397s-2.396,-1.068,-2.397,-2.39c0,-0.002,0,-0.005,0,-0.007"/>
   <circle  r="1.197" fill="#383838" cy="43.2" cx="133.32"/>
  </g>
  <g  id="A19pin">
   <path  fill="#BFBFBF" d="M138.126,14.4c0.002,-1.322,1.075,-2.392,2.396,-2.39c1.319,0.002,2.389,1.071,2.391,2.39"/>
   <path  fill="#E6E6E6" d="M142.914,14.4c0.002,1.322,-1.068,2.396,-2.391,2.397c-1.321,0.002,-2.395,-1.068,-2.396,-2.39c0,-0.002,0,-0.005,0,-0.007"/>
   <circle  r="1.197" fill="#383838" cy="14.4" cx="140.52"/>
  </g>
  <g  id="B19pin">
   <path  fill="#BFBFBF" d="M138.126,21.6c0.002,-1.322,1.075,-2.392,2.396,-2.39c1.319,0.002,2.389,1.071,2.391,2.39"/>
   <path  fill="#E6E6E6" d="M142.914,21.6c0.002,1.322,-1.068,2.395,-2.391,2.397c-1.321,0.002,-2.395,-1.068,-2.396,-2.39c0,-0.002,0,-0.005,0,-0.007"/>
   <circle  r="1.197" fill="#383838" cy="21.6" cx="140.52"/>
  </g>
  <g  id="C19pin">
   <path  fill="#BFBFBF" d="M138.126,28.8c0.002,-1.322,1.075,-2.392,2.396,-2.39c1.319,0.002,2.389,1.071,2.391,2.39"/>
   <path  fill="#E6E6E6" d="M142.914,28.8c0.002,1.322,-1.068,2.396,-2.391,2.397c-1.321,0.002,-2.395,-1.068,-2.396,-2.39c0,-0.002,0,-0.005,0,-0.007"/>
   <circle  r="1.197" fill="#383838" cy="28.8" cx="140.52"/>
  </g>
  <g  id="D19pin">
   <path  fill="#BFBFBF" d="M138.126,36c0.002,-1.322,1.075,-2.392,2.396,-2.39c1.319,0.002,2.389,1.071,2.391,2.39"/>
   <path  fill="#E6E6E6" d="M142.914,36c0.002,1.322,-1.068,2.395,-2.391,2.397c-1.321,0.002,-2.395,-1.068,-2.396,-2.39c0,-0.002,0,-0.005,0,-0.007"/>
   <circle  r="1.197" fill="#383838" cy="36" cx="140.52"/>
  </g>
  <g  id="E19pin">
   <path  fill="#BFBFBF" d="M138.126,43.2c0.002,-1.322,1.075,-2.392,2.396,-2.39c1.319,0.002,2.389,1.071,2.391,2.39"/>
   <path  fill="#E6E6E6" d="M142.914,43.2c0.002,1.322,-1.068,2.395,-2.391,2.397c-1.321,0.002,-2.395,-1.068,-2.396,-2.39c0,-0.002,0,-0.005,0,-0.007"/>
   <circle  r="1.197" fill="#383838" cy="43.2" cx="140.52"/>
  </g>
  <g  id="A20pin">
   <path  fill="#BFBFBF" d="M145.326,14.4c0.002,-1.322,1.076,-2.392,2.397,-2.39c1.319,0.002,2.388,1.071,2.39,2.39"/>
   <path  fill="#E6E6E6" d="M150.113,14.4c0.002,1.322,-1.067,2.396,-2.39,2.397c-1.321,0.002,-2.396,-1.068,-2.397,-2.39c0,-0.002,0,-0.005,0,-0.007"/>
   <circle  r="1.197" fill="#383838" cy="14.4" cx="147.72"/>
  </g>
  <g  id="B20pin">
   <path  fill="#BFBFBF" d="M145.326,21.6c0.002,-1.322,1.076,-2.392,2.397,-2.39c1.319,0.002,2.388,1.071,2.39,2.39"/>
   <path  fill="#E6E6E6" d="M150.113,21.6c0.002,1.322,-1.067,2.395,-2.39,2.397c-1.321,0.002,-2.396,-1.068,-2.397,-2.39c0,-0.002,0,-0.005,0,-0.007"/>
   <circle  r="1.197" fill="#383838" cy="21.6" cx="147.72"/>
  </g>
  <g  id="C20pin">
   <path  fill="#BFBFBF" d="M145.326,28.8c0.002,-1.322,1.076,-2.392,2.397,-2.39c1.319,0.002,2.388,1.071,2.39,2.39"/>
   <path  fill="#E6E6E6" d="M150.113,28.8c0.002,1.322,-1.067,2.396,-2.39,2.397c-1.321,0.002,-2.396,-1.068,-2.397,-2.39c0,-0.002,0,-0.005,0,-0.007"/>
   <circle  r="1.197" fill="#383838" cy="28.8" cx="147.72"/>
  </g>
  <g  id="D20pin">
   <path  fill="#BFBFBF" d="M145.326,36c0.002,-1.322,1.076,-2.392,2.397,-2.39c1.319,0.002,2.388,1.071,2.39,2.39"/>
   <path  fill="#E6E6E6" d="M150.113,36c0.002,1.322,-1.067,2.395,-2.39,2.397c-1.321,0.002,-2.396,-1.068,-2.397,-2.39c0,-0.002,0,-0.005,0,-0.007"/>
   <circle  r="1.197" fill="#383838" cy="36" cx="147.72"/>
  </g>
  <g  id="E20pin">
   <path  fill="#BFBFBF" d="M145.326,43.2c0.002,-1.322,1.076,-2.392,2.397,-2.39c1.319,0.002,2.388,1.071,2.39,2.39"/>
   <path  fill="#E6E6E6" d="M150.113,43.2c0.002,1.322,-1.067,2.395,-2.39,2.397c-1.321,0.002,-2.396,-1.068,-2.397,-2.39c0,-0.002,0,-0.005,0,-0.007"/>
   <circle  r="1.197" fill="#383838" cy="43.2" cx="147.72"/>
  </g>
  <g  id="F1pin">
   <path  fill="#BFBFBF" d="M8.526,64.8c0,-1.321,1.072,-2.394,2.394,-2.394s2.394,1.072,2.394,2.394"/>
   <path  fill="#E6E6E6" d="M13.313,64.8c0,1.322,-1.072,2.394,-2.394,2.394S8.526,66.122,8.526,64.8l0,0"/>
   <circle  r="1.196" fill="#383838" cy="64.8" cx="10.92"/>
  </g>
  <g  id="G1pin">
   <path  fill="#BFBFBF" d="M8.526,72c0,-1.322,1.072,-2.394,2.394,-2.394s2.394,1.071,2.394,2.394"/>
   <path  fill="#E6E6E6" d="M13.313,72c0,1.322,-1.072,2.394,-2.394,2.394S8.526,73.322,8.526,72l0,0"/>
   <circle  r="1.197" fill="#383838" cy="72" cx="10.92"/>
  </g>
  <g  id="H1pin">
   <path  fill="#BFBFBF" d="M8.526,79.2c0,-1.322,1.072,-2.394,2.394,-2.394s2.394,1.071,2.394,2.394"/>
   <path  fill="#E6E6E6" d="M13.313,79.2c0,1.321,-1.072,2.394,-2.394,2.394S8.526,80.521,8.526,79.2"/>
   <circle  r="1.197" fill="#383838" cy="79.2" cx="10.92"/>
  </g>
  <g  id="I1pin">
   <path  fill="#BFBFBF" d="M8.526,86.4c0,-1.322,1.072,-2.395,2.394,-2.395s2.394,1.072,2.394,2.395"/>
   <path  fill="#E6E6E6" d="M13.313,86.4c0,1.321,-1.072,2.393,-2.394,2.393S8.526,87.722,8.526,86.4l0,0"/>
   <circle  r="1.197" fill="#383838" cy="86.4" cx="10.92"/>
  </g>
  <g  id="J1pin">
   <path  fill="#BFBFBF" d="M8.526,93.6c0,-1.322,1.072,-2.394,2.394,-2.394s2.394,1.071,2.394,2.394"/>
   <path  fill="#E6E6E6" d="M13.313,93.6c0,1.322,-1.072,2.395,-2.394,2.395S8.526,94.922,8.526,93.6l0,0"/>
   <circle  r="1.197" fill="#383838" cy="93.6" cx="10.92"/>
  </g>
  <g  id="F2pin">
   <path  fill="#BFBFBF" d="M15.727,64.8c0,-1.321,1.071,-2.394,2.394,-2.394c1.322,0,2.394,1.072,2.394,2.394"/>
   <path  fill="#E6E6E6" d="M20.514,64.8c0,1.322,-1.07,2.395,-2.393,2.396c-1.322,0,-2.394,-1.07,-2.395,-2.393c0,-0.001,0,-0.002,0,-0.003"/>
   <circle  r="1.196" fill="#383838" cy="64.8" cx="18.12"/>
  </g>
  <g  id="G2pin">
   <path  fill="#BFBFBF" d="M15.727,72c0,-1.322,1.071,-2.394,2.394,-2.394c1.322,0,2.394,1.071,2.394,2.394"/>
   <path  fill="#E6E6E6" d="M20.514,72c0,1.322,-1.07,2.395,-2.393,2.395c-1.322,0.001,-2.394,-1.07,-2.395,-2.393c0,0,0,-0.001,0,-0.002"/>
   <circle  r="1.197" fill="#383838" cy="72" cx="18.12"/>
  </g>
  <g  id="H2pin">
   <path  fill="#BFBFBF" d="M15.727,79.2c0,-1.322,1.071,-2.394,2.394,-2.394c1.322,0,2.394,1.071,2.394,2.394"/>
   <path  fill="#E6E6E6" d="M20.514,79.2c0,1.321,-1.07,2.394,-2.393,2.395c-1.322,0.001,-2.394,-1.07,-2.395,-2.392c0,-0.002,0,-0.002,0,-0.003"/>
   <circle  r="1.197" fill="#383838" cy="79.2" cx="18.12"/>
  </g>
  <g  id="I2pin">
   <path  fill="#BFBFBF" d="M15.727,86.4c0,-1.322,1.071,-2.395,2.394,-2.395c1.322,0,2.394,1.072,2.394,2.395"/>
   <path  fill="#E6E6E6" d="M20.514,86.4c0,1.321,-1.07,2.394,-2.393,2.395c-1.322,0,-2.394,-1.07,-2.395,-2.393L15.726,86.4"/>
   <circle  r="1.197" fill="#383838" cy="86.4" cx="18.12"/>
  </g>
  <g  id="J2pin">
   <path  fill="#BFBFBF" d="M15.727,93.6c0,-1.322,1.071,-2.394,2.394,-2.394c1.322,0,2.394,1.071,2.394,2.394"/>
   <path  fill="#E6E6E6" d="M20.514,93.6c0,1.322,-1.07,2.395,-2.393,2.396c-1.322,0.001,-2.394,-1.071,-2.395,-2.393c0,-0.001,0,-0.002,0,-0.003"/>
   <circle  r="1.197" fill="#383838" cy="93.6" cx="18.12"/>
  </g>
  <g  id="F3pin">
   <path  fill="#BFBFBF" d="M22.926,64.8c0,-1.321,1.072,-2.394,2.394,-2.394c1.322,0,2.394,1.072,2.394,2.394"/>
   <path  fill="#E6E6E6" d="M27.713,64.8c0,1.322,-1.071,2.394,-2.394,2.394c-1.322,0,-2.394,-1.071,-2.394,-2.394"/>
   <circle  r="1.196" fill="#383838" cy="64.8" cx="25.32"/>
  </g>
  <g  id="G3pin">
   <path  fill="#BFBFBF" d="M22.926,72c0,-1.322,1.072,-2.394,2.394,-2.394c1.322,0,2.394,1.071,2.394,2.394"/>
   <path  fill="#E6E6E6" d="M27.713,72c0,1.322,-1.071,2.394,-2.394,2.394c-1.322,0,-2.394,-1.071,-2.394,-2.394"/>
   <circle  r="1.197" fill="#383838" cy="72" cx="25.32"/>
  </g>
  <g  id="H3pin">
   <path  fill="#BFBFBF" d="M22.926,79.2c0,-1.322,1.072,-2.394,2.394,-2.394c1.322,0,2.394,1.071,2.394,2.394"/>
   <path  fill="#E6E6E6" d="M27.713,79.2c0,1.321,-1.071,2.394,-2.394,2.394c-1.322,0,-2.394,-1.072,-2.394,-2.394l0,0"/>
   <circle  r="1.197" fill="#383838" cy="79.2" cx="25.32"/>
  </g>
  <g  id="I3pin">
   <path  fill="#BFBFBF" d="M22.926,86.4c0,-1.322,1.072,-2.395,2.394,-2.395c1.322,0,2.394,1.072,2.394,2.395"/>
   <path  fill="#E6E6E6" d="M27.713,86.4c0,1.321,-1.071,2.393,-2.394,2.393c-1.322,0,-2.394,-1.071,-2.394,-2.393"/>
   <circle  r="1.197" fill="#383838" cy="86.4" cx="25.32"/>
  </g>
  <g  id="J3pin">
   <path  fill="#BFBFBF" d="M22.926,93.6c0,-1.322,1.072,-2.394,2.394,-2.394c1.322,0,2.394,1.071,2.394,2.394"/>
   <path  fill="#E6E6E6" d="M27.713,93.6c0,1.322,-1.071,2.395,-2.394,2.395c-1.322,0,-2.394,-1.072,-2.394,-2.395l0,0"/>
   <circle  r="1.197" fill="#383838" cy="93.6" cx="25.32"/>
  </g>
  <g  id="F4pin">
   <path  fill="#BFBFBF" d="M30.126,64.8c0,-1.321,1.072,-2.394,2.394,-2.394s2.394,1.072,2.394,2.394"/>
   <path  fill="#E6E6E6" d="M34.914,64.8c0,1.322,-1.072,2.394,-2.394,2.394s-2.394,-1.071,-2.394,-2.394"/>
   <circle  r="1.196" fill="#383838" cy="64.8" cx="32.52"/>
  </g>
  <g  id="G4pin">
   <path  fill="#BFBFBF" d="M30.126,72c0,-1.322,1.072,-2.394,2.394,-2.394s2.394,1.071,2.394,2.394"/>
   <path  fill="#E6E6E6" d="M34.914,72c0,1.322,-1.072,2.394,-2.394,2.394S30.126,73.322,30.126,72"/>
   <circle  r="1.197" fill="#383838" cy="72" cx="32.52"/>
  </g>
  <g  id="H4pin">
   <path  fill="#BFBFBF" d="M30.126,79.2c0,-1.322,1.072,-2.394,2.394,-2.394s2.394,1.071,2.394,2.394"/>
   <path  fill="#E6E6E6" d="M34.914,79.2c0,1.321,-1.072,2.394,-2.394,2.394s-2.394,-1.072,-2.394,-2.394l0,0"/>
   <circle  r="1.197" fill="#383838" cy="79.2" cx="32.52"/>
  </g>
  <g  id="I4pin">
   <path  fill="#BFBFBF" d="M30.126,86.4c0,-1.322,1.072,-2.395,2.394,-2.395s2.394,1.072,2.394,2.395"/>
   <path  fill="#E6E6E6" d="M34.914,86.4c0,1.321,-1.072,2.393,-2.394,2.393s-2.394,-1.071,-2.394,-2.393"/>
   <circle  r="1.197" fill="#383838" cy="86.4" cx="32.52"/>
  </g>
  <g  id="J4pin">
   <path  fill="#BFBFBF" d="M30.126,93.6c0,-1.322,1.072,-2.394,2.394,-2.394s2.394,1.071,2.394,2.394"/>
   <path  fill="#E6E6E6" d="M34.914,93.6c0,1.322,-1.072,2.395,-2.394,2.395s-2.394,-1.072,-2.394,-2.395l0,0"/>
   <circle  r="1.197" fill="#383838" cy="93.6" cx="32.52"/>
  </g>
  <g  id="F5pin">
   <path  fill="#BFBFBF" d="M37.326,64.8c0,-1.321,1.072,-2.394,2.394,-2.394c1.322,0,2.394,1.072,2.394,2.394"/>
   <path  fill="#E6E6E6" d="M42.114,64.8c0,1.322,-1.072,2.394,-2.394,2.394c-1.322,0,-2.394,-1.071,-2.394,-2.394"/>
   <circle  r="1.196" fill="#383838" cy="64.8" cx="39.72"/>
  </g>
  <g  id="G5pin">
   <path  fill="#BFBFBF" d="M37.326,72c0,-1.322,1.072,-2.394,2.394,-2.394c1.322,0,2.394,1.071,2.394,2.394"/>
   <path  fill="#E6E6E6" d="M42.114,72c0,1.322,-1.072,2.394,-2.394,2.394c-1.322,0,-2.394,-1.071,-2.394,-2.394"/>
   <circle  r="1.197" fill="#383838" cy="72" cx="39.72"/>
  </g>
  <g  id="H5pin">
   <path  fill="#BFBFBF" d="M37.326,79.2c0,-1.322,1.072,-2.394,2.394,-2.394c1.322,0,2.394,1.071,2.394,2.394"/>
   <path  fill="#E6E6E6" d="M42.114,79.2c0,1.321,-1.072,2.394,-2.394,2.394c-1.322,0,-2.394,-1.072,-2.394,-2.394l0,0"/>
   <circle  r="1.197" fill="#383838" cy="79.2" cx="39.72"/>
  </g>
  <g  id="I5pin">
   <path  fill="#BFBFBF" d="M37.326,86.4c0,-1.322,1.072,-2.395,2.394,-2.395c1.322,0,2.394,1.072,2.394,2.395"/>
   <path  fill="#E6E6E6" d="M42.114,86.4c0,1.321,-1.072,2.393,-2.394,2.393c-1.322,0,-2.394,-1.071,-2.394,-2.393"/>
   <circle  r="1.197" fill="#383838" cy="86.4" cx="39.72"/>
  </g>
  <g  id="J5pin">
   <path  fill="#BFBFBF" d="M37.326,93.6c0,-1.322,1.072,-2.394,2.394,-2.394c1.322,0,2.394,1.071,2.394,2.394"/>
   <path  fill="#E6E6E6" d="M42.114,93.6c0,1.322,-1.072,2.395,-2.394,2.395c-1.322,0,-2.394,-1.072,-2.394,-2.395l0,0"/>
   <circle  r="1.197" fill="#383838" cy="93.6" cx="39.72"/>
  </g>
  <g  id="F6pin">
   <path  fill="#BFBFBF" d="M44.526,64.8c0,-1.321,1.072,-2.394,2.394,-2.394s2.394,1.072,2.394,2.394"/>
   <path  fill="#E6E6E6" d="M49.313,64.8c0,1.322,-1.072,2.394,-2.394,2.394s-2.394,-1.071,-2.394,-2.394"/>
   <circle  r="1.196" fill="#383838" cy="64.8" cx="46.92"/>
  </g>
  <g  id="G6pin">
   <path  fill="#BFBFBF" d="M44.526,72c0,-1.322,1.072,-2.394,2.394,-2.394s2.394,1.071,2.394,2.394"/>
   <path  fill="#E6E6E6" d="M49.313,72c0,1.322,-1.072,2.394,-2.394,2.394S44.526,73.322,44.526,72"/>
   <circle  r="1.197" fill="#383838" cy="72" cx="46.92"/>
  </g>
  <g  id="H6pin">
   <path  fill="#BFBFBF" d="M44.526,79.2c0,-1.322,1.072,-2.394,2.394,-2.394s2.394,1.071,2.394,2.394"/>
   <path  fill="#E6E6E6" d="M49.313,79.2c0,1.321,-1.072,2.394,-2.394,2.394s-2.394,-1.072,-2.394,-2.394l0,0"/>
   <circle  r="1.197" fill="#383838" cy="79.2" cx="46.92"/>
  </g>
  <g  id="I6pin">
   <path  fill="#BFBFBF" d="M44.526,86.4c0,-1.322,1.072,-2.395,2.394,-2.395s2.394,1.072,2.394,2.395"/>
   <path  fill="#E6E6E6" d="M49.313,86.4c0,1.321,-1.072,2.393,-2.394,2.393s-2.394,-1.071,-2.394,-2.393"/>
   <circle  r="1.197" fill="#383838" cy="86.4" cx="46.92"/>
  </g>
  <g  id="J6pin">
   <path  fill="#BFBFBF" d="M44.526,93.6c0,-1.322,1.072,-2.394,2.394,-2.394s2.394,1.071,2.394,2.394"/>
   <path  fill="#E6E6E6" d="M49.313,93.6c0,1.322,-1.072,2.395,-2.394,2.395s-2.394,-1.072,-2.394,-2.395l0,0"/>
   <circle  r="1.197" fill="#383838" cy="93.6" cx="46.92"/>
  </g>
  <g  id="F7pin">
   <path  fill="#BFBFBF" d="M51.727,64.8c0,-1.321,1.071,-2.394,2.394,-2.394c1.322,0,2.394,1.072,2.394,2.394"/>
   <path  fill="#E6E6E6" d="M56.514,64.8c0,1.322,-1.072,2.394,-2.394,2.394c-1.322,0,-2.394,-1.071,-2.394,-2.394"/>
   <circle  r="1.196" fill="#383838" cy="64.8" cx="54.12"/>
  </g>
  <g  id="G7pin">
   <path  fill="#BFBFBF" d="M51.727,72c0,-1.322,1.071,-2.394,2.394,-2.394c1.322,0,2.394,1.071,2.394,2.394"/>
   <path  fill="#E6E6E6" d="M56.514,72c0,1.322,-1.072,2.394,-2.394,2.394c-1.322,0,-2.394,-1.071,-2.394,-2.394"/>
   <circle  r="1.197" fill="#383838" cy="72" cx="54.12"/>
  </g>
  <g  id="H7pin">
   <path  fill="#BFBFBF" d="M51.727,79.2c0,-1.322,1.071,-2.394,2.394,-2.394c1.322,0,2.394,1.071,2.394,2.394"/>
   <path  fill="#E6E6E6" d="M56.514,79.2c0,1.321,-1.072,2.394,-2.394,2.394c-1.322,0,-2.394,-1.072,-2.394,-2.394l0,0"/>
   <circle  r="1.197" fill="#383838" cy="79.2" cx="54.12"/>
  </g>
  <g  id="I7pin">
   <path  fill="#BFBFBF" d="M51.727,86.4c0,-1.322,1.071,-2.395,2.394,-2.395c1.322,0,2.394,1.072,2.394,2.395"/>
   <path  fill="#E6E6E6" d="M56.514,86.4c0,1.321,-1.072,2.393,-2.394,2.393c-1.322,0,-2.394,-1.071,-2.394,-2.393"/>
   <circle  r="1.197" fill="#383838" cy="86.4" cx="54.12"/>
  </g>
  <g  id="J7pin">
   <path  fill="#BFBFBF" d="M51.727,93.6c0,-1.322,1.071,-2.394,2.394,-2.394c1.322,0,2.394,1.071,2.394,2.394"/>
   <path  fill="#E6E6E6" d="M56.514,93.6c0,1.322,-1.072,2.395,-2.394,2.395c-1.322,0,-2.394,-1.072,-2.394,-2.395l0,0"/>
   <circle  r="1.197" fill="#383838" cy="93.6" cx="54.12"/>
  </g>
  <g  id="F8pin">
   <path  fill="#BFBFBF" d="M58.926,64.8c0,-1.321,1.072,-2.394,2.394,-2.394c1.322,0,2.394,1.072,2.394,2.394"/>
   <path  fill="#E6E6E6" d="M63.713,64.8c0,1.322,-1.071,2.394,-2.394,2.394c-1.322,0,-2.394,-1.071,-2.394,-2.394"/>
   <circle  r="1.196" fill="#383838" cy="64.8" cx="61.32"/>
  </g>
  <g  id="G8pin">
   <path  fill="#BFBFBF" d="M58.926,72c0,-1.322,1.072,-2.394,2.394,-2.394c1.322,0,2.394,1.071,2.394,2.394"/>
   <path  fill="#E6E6E6" d="M63.713,72c0,1.322,-1.071,2.394,-2.394,2.394c-1.322,0,-2.394,-1.071,-2.394,-2.394"/>
   <circle  r="1.197" fill="#383838" cy="72" cx="61.32"/>
  </g>
  <g  id="H8pin">
   <path  fill="#BFBFBF" d="M58.926,79.2c0,-1.322,1.072,-2.394,2.394,-2.394c1.322,0,2.394,1.071,2.394,2.394"/>
   <path  fill="#E6E6E6" d="M63.713,79.2c0,1.321,-1.071,2.394,-2.394,2.394c-1.322,0,-2.394,-1.072,-2.394,-2.394l0,0"/>
   <circle  r="1.197" fill="#383838" cy="79.2" cx="61.32"/>
  </g>
  <g  id="I8pin">
   <path  fill="#BFBFBF" d="M58.926,86.4c0,-1.322,1.072,-2.395,2.394,-2.395c1.322,0,2.394,1.072,2.394,2.395"/>
   <path  fill="#E6E6E6" d="M63.713,86.4c0,1.321,-1.071,2.393,-2.394,2.393c-1.322,0,-2.394,-1.071,-2.394,-2.393"/>
   <circle  r="1.197" fill="#383838" cy="86.4" cx="61.32"/>
  </g>
  <g  id="J8pin">
   <path  fill="#BFBFBF" d="M58.926,93.6c0,-1.322,1.072,-2.394,2.394,-2.394c1.322,0,2.394,1.071,2.394,2.394"/>
   <path  fill="#E6E6E6" d="M63.713,93.6c0,1.322,-1.071,2.395,-2.394,2.395c-1.322,0,-2.394,-1.072,-2.394,-2.395l0,0"/>
   <circle  r="1.197" fill="#383838" cy="93.6" cx="61.32"/>
  </g>
  <g  id="F9pin">
   <path  fill="#BFBFBF" d="M66.126,64.8c0,-1.321,1.071,-2.394,2.394,-2.394c1.322,0,2.394,1.072,2.394,2.394"/>
   <path  fill="#E6E6E6" d="M70.914,64.8c0,1.322,-1.072,2.394,-2.394,2.394c-1.322,0,-2.394,-1.071,-2.394,-2.394"/>
   <circle  r="1.196" fill="#383838" cy="64.8" cx="68.52"/>
  </g>
  <g  id="G9pin">
   <path  fill="#BFBFBF" d="M66.126,72c0,-1.322,1.071,-2.394,2.394,-2.394c1.322,0,2.394,1.071,2.394,2.394"/>
   <path  fill="#E6E6E6" d="M70.914,72c0,1.322,-1.072,2.394,-2.394,2.394c-1.322,0,-2.394,-1.071,-2.394,-2.394"/>
   <circle  r="1.197" fill="#383838" cy="72" cx="68.52"/>
  </g>
  <g  id="H9pin">
   <path  fill="#BFBFBF" d="M66.126,79.2c0,-1.322,1.071,-2.394,2.394,-2.394c1.322,0,2.394,1.071,2.394,2.394"/>
   <path  fill="#E6E6E6" d="M70.914,79.2c0,1.321,-1.072,2.394,-2.394,2.394c-1.322,0,-2.394,-1.072,-2.394,-2.394l0,0"/>
   <circle  r="1.197" fill="#383838" cy="79.2" cx="68.52"/>
  </g>
  <g  id="I9pin">
   <path  fill="#BFBFBF" d="M66.126,86.4c0,-1.322,1.071,-2.395,2.394,-2.395c1.322,0,2.394,1.072,2.394,2.395"/>
   <path  fill="#E6E6E6" d="M70.914,86.4c0,1.321,-1.072,2.393,-2.394,2.393c-1.322,0,-2.394,-1.071,-2.394,-2.393"/>
   <circle  r="1.197" fill="#383838" cy="86.4" cx="68.52"/>
  </g>
  <g  id="J9pin">
   <path  fill="#BFBFBF" d="M66.126,93.6c0,-1.322,1.071,-2.394,2.394,-2.394c1.322,0,2.394,1.071,2.394,2.394"/>
   <path  fill="#E6E6E6" d="M70.914,93.6c0,1.322,-1.072,2.395,-2.394,2.395c-1.322,0,-2.394,-1.072,-2.394,-2.395l0,0"/>
   <circle  r="1.197" fill="#383838" cy="93.6" cx="68.52"/>
  </g>
  <g  id="F10pin">
   <path  fill="#BFBFBF" d="M73.326,64.8c0,-1.321,1.072,-2.394,2.394,-2.394c1.322,0,2.394,1.072,2.394,2.394"/>
   <path  fill="#E6E6E6" d="M78.113,64.8c0,1.322,-1.071,2.394,-2.394,2.394c-1.322,0,-2.394,-1.071,-2.394,-2.394"/>
   <circle  r="1.196" fill="#383838" cy="64.8" cx="75.72"/>
  </g>
  <g  id="G10pin">
   <path  fill="#BFBFBF" d="M73.326,72c0,-1.322,1.072,-2.394,2.394,-2.394c1.322,0,2.394,1.071,2.394,2.394"/>
   <path  fill="#E6E6E6" d="M78.113,72c0,1.322,-1.071,2.394,-2.394,2.394c-1.322,0,-2.394,-1.071,-2.394,-2.394"/>
   <circle  r="1.197" fill="#383838" cy="72" cx="75.72"/>
  </g>
  <g  id="H10pin">
   <path  fill="#BFBFBF" d="M73.326,79.2c0,-1.322,1.072,-2.394,2.394,-2.394c1.322,0,2.394,1.071,2.394,2.394"/>
   <path  fill="#E6E6E6" d="M78.113,79.2c0,1.321,-1.071,2.394,-2.394,2.394c-1.322,0,-2.394,-1.072,-2.394,-2.394l0,0"/>
   <circle  r="1.197" fill="#383838" cy="79.2" cx="75.72"/>
  </g>
  <g  id="I10pin">
   <path  fill="#BFBFBF" d="M73.326,86.4c0,-1.322,1.072,-2.395,2.394,-2.395c1.322,0,2.394,1.072,2.394,2.395"/>
   <path  fill="#E6E6E6" d="M78.113,86.4c0,1.321,-1.071,2.393,-2.394,2.393c-1.322,0,-2.394,-1.071,-2.394,-2.393"/>
   <circle  r="1.197" fill="#383838" cy="86.4" cx="75.72"/>
  </g>
  <g  id="J10pin">
   <path  fill="#BFBFBF" d="M73.326,93.6c0,-1.322,1.072,-2.394,2.394,-2.394c1.322,0,2.394,1.071,2.394,2.394"/>
   <path  fill="#E6E6E6" d="M78.113,93.6c0,1.322,-1.071,2.395,-2.394,2.395c-1.322,0,-2.394,-1.072,-2.394,-2.395l0,0"/>
   <circle  r="1.197" fill="#383838" cy="93.6" cx="75.72"/>
  </g>
  <g  id="F11pin">
   <path  fill="#BFBFBF" d="M80.527,64.8c0,-1.321,1.071,-2.394,2.393,-2.394c1.322,0,2.395,1.072,2.395,2.394"/>
   <path  fill="#E6E6E6" d="M85.314,64.8c0,1.322,-1.072,2.394,-2.395,2.394c-1.321,0,-2.393,-1.071,-2.393,-2.394"/>
   <circle  r="1.196" fill="#383838" cy="64.8" cx="82.919"/>
  </g>
  <g  id="G11pin">
   <path  fill="#BFBFBF" d="M80.527,72c0,-1.322,1.071,-2.394,2.393,-2.394c1.322,0,2.395,1.071,2.395,2.394"/>
   <path  fill="#E6E6E6" d="M85.314,72c0,1.322,-1.072,2.394,-2.395,2.394c-1.321,0,-2.393,-1.071,-2.393,-2.394"/>
   <circle  r="1.197" fill="#383838" cy="72" cx="82.919"/>
  </g>
  <g  id="H11pin">
   <path  fill="#BFBFBF" d="M80.527,79.2c0,-1.322,1.071,-2.394,2.393,-2.394c1.322,0,2.395,1.071,2.395,2.394"/>
   <path  fill="#E6E6E6" d="M85.314,79.2c0,1.321,-1.072,2.394,-2.395,2.394c-1.321,0,-2.393,-1.072,-2.393,-2.394l0,0"/>
   <circle  r="1.197" fill="#383838" cy="79.2" cx="82.919"/>
  </g>
  <g  id="I11pin">
   <path  fill="#BFBFBF" d="M80.527,86.4c0,-1.322,1.071,-2.395,2.393,-2.395c1.322,0,2.395,1.072,2.395,2.395"/>
   <path  fill="#E6E6E6" d="M85.314,86.4c0,1.321,-1.072,2.393,-2.395,2.393c-1.321,0,-2.393,-1.071,-2.393,-2.393"/>
   <circle  r="1.197" fill="#383838" cy="86.4" cx="82.919"/>
  </g>
  <g  id="J11pin">
   <path  fill="#BFBFBF" d="M80.527,93.6c0,-1.322,1.071,-2.394,2.393,-2.394c1.322,0,2.395,1.071,2.395,2.394"/>
   <path  fill="#E6E6E6" d="M85.314,93.6c0,1.322,-1.072,2.395,-2.395,2.395c-1.321,0,-2.393,-1.072,-2.393,-2.395l0,0"/>
   <circle  r="1.197" fill="#383838" cy="93.6" cx="82.919"/>
  </g>
  <g  id="F12pin">
   <path  fill="#BFBFBF" d="M87.726,64.8c0,-1.321,1.072,-2.394,2.394,-2.394c1.322,0,2.394,1.072,2.394,2.394"/>
   <path  fill="#E6E6E6" d="M92.513,64.8c0,1.322,-1.071,2.394,-2.394,2.394c-1.321,0,-2.394,-1.071,-2.394,-2.394"/>
   <circle  r="1.196" fill="#383838" cy="64.8" cx="90.12"/>
  </g>
  <g  id="G12pin">
   <path  fill="#BFBFBF" d="M87.726,72c0,-1.322,1.072,-2.394,2.394,-2.394c1.322,0,2.394,1.071,2.394,2.394"/>
   <path  fill="#E6E6E6" d="M92.513,72c0,1.322,-1.071,2.394,-2.394,2.394c-1.321,0,-2.394,-1.071,-2.394,-2.394"/>
   <circle  r="1.197" fill="#383838" cy="72" cx="90.12"/>
  </g>
  <g  id="H12pin">
   <path  fill="#BFBFBF" d="M87.726,79.2c0,-1.322,1.072,-2.394,2.394,-2.394c1.322,0,2.394,1.071,2.394,2.394"/>
   <path  fill="#E6E6E6" d="M92.513,79.2c0,1.321,-1.071,2.394,-2.394,2.394c-1.321,0,-2.394,-1.072,-2.394,-2.394l0,0"/>
   <circle  r="1.197" fill="#383838" cy="79.2" cx="90.12"/>
  </g>
  <g  id="I12pin">
   <path  fill="#BFBFBF" d="M87.726,86.4c0,-1.322,1.072,-2.395,2.394,-2.395c1.322,0,2.394,1.072,2.394,2.395"/>
   <path  fill="#E6E6E6" d="M92.513,86.4c0,1.321,-1.071,2.393,-2.394,2.393c-1.321,0,-2.394,-1.071,-2.394,-2.393"/>
   <circle  r="1.197" fill="#383838" cy="86.4" cx="90.12"/>
  </g>
  <g  id="J12pin">
   <path  fill="#BFBFBF" d="M87.726,93.6c0,-1.322,1.072,-2.394,2.394,-2.394c1.322,0,2.394,1.071,2.394,2.394"/>
   <path  fill="#E6E6E6" d="M92.513,93.6c0,1.322,-1.071,2.395,-2.394,2.395c-1.321,0,-2.394,-1.072,-2.394,-2.395l0,0"/>
   <circle  r="1.197" fill="#383838" cy="93.6" cx="90.12"/>
  </g>
  <g  id="F13pin">
   <path  fill="#BFBFBF" d="M94.926,64.8c0,-1.321,1.071,-2.394,2.394,-2.394s2.394,1.072,2.394,2.394"/>
   <path  fill="#E6E6E6" d="M99.713,64.8c0,1.322,-1.071,2.394,-2.394,2.394s-2.394,-1.071,-2.394,-2.394"/>
   <circle  r="1.196" fill="#383838" cy="64.8" cx="97.32"/>
  </g>
  <g  id="G13pin">
   <path  fill="#BFBFBF" d="M94.926,72c0,-1.322,1.071,-2.394,2.394,-2.394s2.394,1.071,2.394,2.394"/>
   <path  fill="#E6E6E6" d="M99.713,72c0,1.322,-1.071,2.394,-2.394,2.394S94.926,73.322,94.926,72"/>
   <circle  r="1.197" fill="#383838" cy="72" cx="97.32"/>
  </g>
  <g  id="H13pin">
   <path  fill="#BFBFBF" d="M94.926,79.2c0,-1.322,1.071,-2.394,2.394,-2.394s2.394,1.071,2.394,2.394"/>
   <path  fill="#E6E6E6" d="M99.713,79.2c0,1.321,-1.071,2.394,-2.394,2.394s-2.394,-1.072,-2.394,-2.394l0,0"/>
   <circle  r="1.197" fill="#383838" cy="79.2" cx="97.32"/>
  </g>
  <g  id="I13pin">
   <path  fill="#BFBFBF" d="M94.926,86.4c0,-1.322,1.071,-2.395,2.394,-2.395s2.394,1.072,2.394,2.395"/>
   <path  fill="#E6E6E6" d="M99.713,86.4c0,1.321,-1.071,2.393,-2.394,2.393s-2.394,-1.071,-2.394,-2.393"/>
   <circle  r="1.197" fill="#383838" cy="86.4" cx="97.32"/>
  </g>
  <g  id="J13pin">
   <path  fill="#BFBFBF" d="M94.926,93.6c0,-1.322,1.071,-2.394,2.394,-2.394s2.394,1.071,2.394,2.394"/>
   <path  fill="#E6E6E6" d="M99.713,93.6c0,1.322,-1.071,2.395,-2.394,2.395s-2.394,-1.072,-2.394,-2.395l0,0"/>
   <circle  r="1.197" fill="#383838" cy="93.6" cx="97.32"/>
  </g>
  <g  id="F14pin">
   <path  fill="#BFBFBF" d="M102.126,64.8c0,-1.321,1.071,-2.394,2.394,-2.394c1.321,0,2.394,1.072,2.394,2.394"/>
   <path  fill="#E6E6E6" d="M106.914,64.8c0,1.322,-1.072,2.394,-2.394,2.394c-1.322,0,-2.394,-1.071,-2.394,-2.394"/>
   <circle  r="1.196" fill="#383838" cy="64.8" cx="104.52"/>
  </g>
  <g  id="G14pin">
   <path  fill="#BFBFBF" d="M102.126,72c0,-1.322,1.071,-2.394,2.394,-2.394c1.321,0,2.394,1.071,2.394,2.394"/>
   <path  fill="#E6E6E6" d="M106.914,72c0,1.322,-1.072,2.394,-2.394,2.394c-1.322,0,-2.394,-1.071,-2.394,-2.394"/>
   <circle  r="1.197" fill="#383838" cy="72" cx="104.52"/>
  </g>
  <g  id="H14pin">
   <path  fill="#BFBFBF" d="M102.126,79.2c0,-1.322,1.071,-2.394,2.394,-2.394c1.321,0,2.394,1.071,2.394,2.394"/>
   <path  fill="#E6E6E6" d="M106.914,79.2c0,1.321,-1.072,2.394,-2.394,2.394c-1.322,0,-2.394,-1.072,-2.394,-2.394l0,0"/>
   <circle  r="1.197" fill="#383838" cy="79.2" cx="104.52"/>
  </g>
  <g  id="I14pin">
   <path  fill="#BFBFBF" d="M102.126,86.4c0,-1.322,1.071,-2.395,2.394,-2.395c1.321,0,2.394,1.072,2.394,2.395"/>
   <path  fill="#E6E6E6" d="M106.914,86.4c0,1.321,-1.072,2.393,-2.394,2.393c-1.322,0,-2.394,-1.071,-2.394,-2.393"/>
   <circle  r="1.197" fill="#383838" cy="86.4" cx="104.52"/>
  </g>
  <g  id="J14pin">
   <path  fill="#BFBFBF" d="M102.126,93.6c0,-1.322,1.071,-2.394,2.394,-2.394c1.321,0,2.394,1.071,2.394,2.394"/>
   <path  fill="#E6E6E6" d="M106.914,93.6c0,1.322,-1.072,2.395,-2.394,2.395c-1.322,0,-2.394,-1.072,-2.394,-2.395l0,0"/>
   <circle  r="1.197" fill="#383838" cy="93.6" cx="104.52"/>
  </g>
  <g  id="F15pin">
   <path  fill="#BFBFBF" d="M109.326,64.8c0.002,-1.321,1.076,-2.392,2.398,-2.39c1.318,0.002,2.387,1.07,2.389,2.39"/>
   <path  fill="#E6E6E6" d="M114.113,64.8c0.002,1.322,-1.067,2.396,-2.389,2.397c-1.322,0.002,-2.396,-1.068,-2.398,-2.391c0,-0.002,0,-0.004,0,-0.007"/>
   <circle  r="1.196" fill="#383838" cy="64.8" cx="111.72"/>
  </g>
  <g  id="G15pin">
   <path  fill="#BFBFBF" d="M109.326,72c0.002,-1.322,1.076,-2.393,2.398,-2.391c1.318,0.002,2.387,1.071,2.389,2.391"/>
   <path  fill="#E6E6E6" d="M114.113,72c0.002,1.322,-1.067,2.395,-2.389,2.396c-1.322,0.002,-2.396,-1.067,-2.398,-2.39c0,-0.002,0,-0.005,0,-0.007"/>
   <circle  r="1.197" fill="#383838" cy="72" cx="111.72"/>
  </g>
  <g  id="H15pin">
   <path  fill="#BFBFBF" d="M109.326,79.2c0.002,-1.322,1.076,-2.392,2.398,-2.39c1.318,0.002,2.387,1.07,2.389,2.39"/>
   <path  fill="#E6E6E6" d="M114.113,79.2c0.002,1.321,-1.067,2.396,-2.389,2.397c-1.322,0.002,-2.396,-1.068,-2.398,-2.391c0,-0.002,0,-0.005,0,-0.007"/>
   <circle  r="1.197" fill="#383838" cy="79.2" cx="111.72"/>
  </g>
  <g  id="I15pin">
   <path  fill="#BFBFBF" d="M109.326,86.4c0.002,-1.322,1.076,-2.393,2.398,-2.391c1.318,0.002,2.387,1.07,2.389,2.391"/>
   <path  fill="#E6E6E6" d="M114.113,86.4c0.002,1.321,-1.067,2.395,-2.389,2.396c-1.322,0.002,-2.396,-1.068,-2.398,-2.39c0,-0.003,0,-0.005,0,-0.007"/>
   <circle  r="1.197" fill="#383838" cy="86.4" cx="111.72"/>
  </g>
  <g  id="J15pin">
   <path  fill="#BFBFBF" d="M109.326,93.6c0.002,-1.322,1.076,-2.392,2.398,-2.39c1.318,0.002,2.387,1.071,2.389,2.39"/>
   <path  fill="#E6E6E6" d="M114.113,93.6c0.002,1.322,-1.067,2.396,-2.389,2.397c-1.322,0.002,-2.396,-1.067,-2.398,-2.39c0,-0.003,0,-0.005,0,-0.008"/>
   <circle  r="1.197" fill="#383838" cy="93.6" cx="111.72"/>
  </g>
  <g  id="F16pin">
   <path  fill="#BFBFBF" d="M116.527,64.8c0.002,-1.321,1.074,-2.392,2.396,-2.39c1.319,0.002,2.389,1.07,2.391,2.39"/>
   <path  fill="#E6E6E6" d="M121.314,64.8c0.002,1.322,-1.068,2.396,-2.391,2.397s-2.395,-1.068,-2.396,-2.391c0,-0.002,0,-0.004,0,-0.007"/>
   <circle  r="1.196" fill="#383838" cy="64.8" cx="118.919"/>
  </g>
  <g  id="G16pin">
   <path  fill="#BFBFBF" d="M116.527,72c0.002,-1.322,1.074,-2.393,2.396,-2.391c1.319,0.002,2.389,1.071,2.391,2.391"/>
   <path  fill="#E6E6E6" d="M121.314,72c0.002,1.322,-1.068,2.395,-2.391,2.396s-2.395,-1.067,-2.396,-2.39c0,-0.002,0,-0.005,0,-0.007"/>
   <circle  r="1.197" fill="#383838" cy="72" cx="118.919"/>
  </g>
  <g  id="H16pin">
   <path  fill="#BFBFBF" d="M116.527,79.2c0.002,-1.322,1.074,-2.392,2.396,-2.39c1.319,0.002,2.389,1.07,2.391,2.39"/>
   <path  fill="#E6E6E6" d="M121.314,79.2c0.002,1.321,-1.068,2.396,-2.391,2.397s-2.395,-1.068,-2.396,-2.391c0,-0.002,0,-0.005,0,-0.007"/>
   <circle  r="1.197" fill="#383838" cy="79.2" cx="118.919"/>
  </g>
  <g  id="I16pin">
   <path  fill="#BFBFBF" d="M116.527,86.4c0.002,-1.322,1.074,-2.393,2.396,-2.391c1.319,0.002,2.389,1.07,2.391,2.391"/>
   <path  fill="#E6E6E6" d="M121.314,86.4c0.002,1.321,-1.068,2.395,-2.391,2.396s-2.395,-1.068,-2.396,-2.39c0,-0.003,0,-0.005,0,-0.007"/>
   <circle  r="1.197" fill="#383838" cy="86.4" cx="118.919"/>
  </g>
  <g  id="J16pin">
   <path  fill="#BFBFBF" d="M116.527,93.6c0.002,-1.322,1.074,-2.392,2.396,-2.39c1.319,0.002,2.389,1.071,2.391,2.39"/>
   <path  fill="#E6E6E6" d="M121.314,93.6c0.002,1.322,-1.068,2.396,-2.391,2.397s-2.395,-1.067,-2.396,-2.39c0,-0.003,0,-0.005,0,-0.008"/>
   <circle  r="1.197" fill="#383838" cy="93.6" cx="118.919"/>
  </g>
  <g  id="F17pin">
   <path  fill="#BFBFBF" d="M123.726,64.8c0.002,-1.321,1.075,-2.392,2.397,-2.39c1.319,0.002,2.388,1.07,2.39,2.39"/>
   <path  fill="#E6E6E6" d="M128.513,64.8c0.002,1.322,-1.068,2.396,-2.39,2.397c-1.322,0.002,-2.396,-1.068,-2.397,-2.391c0,-0.002,0,-0.004,0,-0.007"/>
   <circle  r="1.196" fill="#383838" cy="64.8" cx="126.12"/>
  </g>
  <g  id="G17pin">
   <path  fill="#BFBFBF" d="M123.726,72c0.002,-1.322,1.075,-2.393,2.397,-2.391c1.319,0.002,2.388,1.071,2.39,2.391"/>
   <path  fill="#E6E6E6" d="M128.513,72c0.002,1.322,-1.068,2.395,-2.39,2.396c-1.322,0.002,-2.396,-1.067,-2.397,-2.39c0,-0.002,0,-0.005,0,-0.007"/>
   <circle  r="1.197" fill="#383838" cy="72" cx="126.12"/>
  </g>
  <g  id="H17pin">
   <path  fill="#BFBFBF" d="M123.726,79.2c0.002,-1.322,1.075,-2.392,2.397,-2.39c1.319,0.002,2.388,1.07,2.39,2.39"/>
   <path  fill="#E6E6E6" d="M128.513,79.2c0.002,1.321,-1.068,2.396,-2.39,2.397c-1.322,0.002,-2.396,-1.068,-2.397,-2.391c0,-0.002,0,-0.005,0,-0.007"/>
   <circle  r="1.197" fill="#383838" cy="79.2" cx="126.12"/>
  </g>
  <g  id="I17pin">
   <path  fill="#BFBFBF" d="M123.726,86.4c0.002,-1.322,1.075,-2.393,2.397,-2.391c1.319,0.002,2.388,1.07,2.39,2.391"/>
   <path  fill="#E6E6E6" d="M128.513,86.4c0.002,1.321,-1.068,2.395,-2.39,2.396c-1.322,0.002,-2.396,-1.068,-2.397,-2.39c0,-0.003,0,-0.005,0,-0.007"/>
   <circle  r="1.197" fill="#383838" cy="86.4" cx="126.12"/>
  </g>
  <g  id="J17pin">
   <path  fill="#BFBFBF" d="M123.726,93.6c0.002,-1.322,1.075,-2.392,2.397,-2.39c1.319,0.002,2.388,1.071,2.39,2.39"/>
   <path  fill="#E6E6E6" d="M128.513,93.6c0.002,1.322,-1.068,2.396,-2.39,2.397c-1.322,0.002,-2.396,-1.067,-2.397,-2.39c0,-0.003,0,-0.005,0,-0.008"/>
   <circle  r="1.197" fill="#383838" cy="93.6" cx="126.12"/>
  </g>
  <g  id="F18pin">
   <path  fill="#BFBFBF" d="M130.926,64.8c0.002,-1.321,1.075,-2.392,2.397,-2.39c1.318,0.002,2.388,1.07,2.39,2.39"/>
   <path  fill="#E6E6E6" d="M135.713,64.8c0.002,1.322,-1.067,2.396,-2.39,2.397s-2.396,-1.068,-2.397,-2.391c0,-0.002,0,-0.004,0,-0.007"/>
   <circle  r="1.196" fill="#383838" cy="64.8" cx="133.32"/>
  </g>
  <g  id="G18pin">
   <path  fill="#BFBFBF" d="M130.926,72c0.002,-1.322,1.075,-2.393,2.397,-2.391c1.318,0.002,2.388,1.071,2.39,2.391"/>
   <path  fill="#E6E6E6" d="M135.713,72c0.002,1.322,-1.067,2.395,-2.39,2.396s-2.396,-1.067,-2.397,-2.39c0,-0.002,0,-0.005,0,-0.007"/>
   <circle  r="1.197" fill="#383838" cy="72" cx="133.32"/>
  </g>
  <g  id="H18pin">
   <path  fill="#BFBFBF" d="M130.926,79.2c0.002,-1.322,1.075,-2.392,2.397,-2.39c1.318,0.002,2.388,1.07,2.39,2.39"/>
   <path  fill="#E6E6E6" d="M135.713,79.2c0.002,1.321,-1.067,2.396,-2.39,2.397s-2.396,-1.068,-2.397,-2.391c0,-0.002,0,-0.005,0,-0.007"/>
   <circle  r="1.197" fill="#383838" cy="79.2" cx="133.32"/>
  </g>
  <g  id="I18pin">
   <path  fill="#BFBFBF" d="M130.926,86.4c0.002,-1.322,1.075,-2.393,2.397,-2.391c1.318,0.002,2.388,1.07,2.39,2.391"/>
   <path  fill="#E6E6E6" d="M135.713,86.4c0.002,1.321,-1.067,2.395,-2.39,2.396s-2.396,-1.068,-2.397,-2.39c0,-0.003,0,-0.005,0,-0.007"/>
   <circle  r="1.197" fill="#383838" cy="86.4" cx="133.32"/>
  </g>
  <g  id="J18pin">
   <path  fill="#BFBFBF" d="M130.926,93.6c0.002,-1.322,1.075,-2.392,2.397,-2.39c1.318,0.002,2.388,1.071,2.39,2.39"/>
   <path  fill="#E6E6E6" d="M135.713,93.6c0.002,1.322,-1.067,2.396,-2.39,2.397s-2.396,-1.067,-2.397,-2.39c0,-0.003,0,-0.005,0,-0.008"/>
   <circle  r="1.197" fill="#383838" cy="93.6" cx="133.32"/>
  </g>
  <g  id="F19pin">
   <path  fill="#BFBFBF" d="M138.126,64.8c0.002,-1.321,1.075,-2.392,2.396,-2.39c1.319,0.002,2.389,1.07,2.391,2.39"/>
   <path  fill="#E6E6E6" d="M142.914,64.8c0.002,1.322,-1.068,2.396,-2.391,2.397c-1.321,0.002,-2.395,-1.068,-2.396,-2.391c0,-0.002,0,-0.004,0,-0.007"/>
   <circle  r="1.196" fill="#383838" cy="64.8" cx="140.52"/>
  </g>
  <g  id="G19pin">
   <path  fill="#BFBFBF" d="M138.126,72c0.002,-1.322,1.075,-2.393,2.396,-2.391c1.319,0.002,2.389,1.071,2.391,2.391"/>
   <path  fill="#E6E6E6" d="M142.914,72c0.002,1.322,-1.068,2.395,-2.391,2.396c-1.321,0.002,-2.395,-1.067,-2.396,-2.39c0,-0.002,0,-0.005,0,-0.007"/>
   <circle  r="1.197" fill="#383838" cy="72" cx="140.52"/>
  </g>
  <g  id="H19pin">
   <path  fill="#BFBFBF" d="M138.126,79.2c0.002,-1.322,1.075,-2.392,2.396,-2.39c1.319,0.002,2.389,1.07,2.391,2.39"/>
   <path  fill="#E6E6E6" d="M142.914,79.2c0.002,1.321,-1.068,2.396,-2.391,2.397c-1.321,0.002,-2.395,-1.068,-2.396,-2.391c0,-0.002,0,-0.005,0,-0.007"/>
   <circle  r="1.197" fill="#383838" cy="79.2" cx="140.52"/>
  </g>
  <g  id="I19pin">
   <path  fill="#BFBFBF" d="M138.126,86.4c0.002,-1.322,1.075,-2.393,2.396,-2.391c1.319,0.002,2.389,1.07,2.391,2.391"/>
   <path  fill="#E6E6E6" d="M142.914,86.4c0.002,1.321,-1.068,2.395,-2.391,2.396c-1.321,0.002,-2.395,-1.068,-2.396,-2.39c0,-0.003,0,-0.005,0,-0.007"/>
   <circle  r="1.197" fill="#383838" cy="86.4" cx="140.52"/>
  </g>
  <g  id="J19pin">
   <path  fill="#BFBFBF" d="M138.126,93.6c0.002,-1.322,1.075,-2.392,2.396,-2.39c1.319,0.002,2.389,1.071,2.391,2.39"/>
   <path  fill="#E6E6E6" d="M142.914,93.6c0.002,1.322,-1.068,2.396,-2.391,2.397c-1.321,0.002,-2.395,-1.067,-2.396,-2.39c0,-0.003,0,-0.005,0,-0.008"/>
   <circle  r="1.197" fill="#383838" cy="93.6" cx="140.52"/>
  </g>
  <g  id="F20pin">
   <path  fill="#BFBFBF" d="M145.326,64.8c0.002,-1.321,1.076,-2.392,2.397,-2.39c1.319,0.002,2.388,1.07,2.39,2.39"/>
   <path  fill="#E6E6E6" d="M150.113,64.8c0.002,1.322,-1.067,2.396,-2.39,2.397c-1.321,0.002,-2.396,-1.068,-2.397,-2.391c0,-0.002,0,-0.004,0,-0.007"/>
   <circle  r="1.196" fill="#383838" cy="64.8" cx="147.72"/>
  </g>
  <g  id="G20pin">
   <path  fill="#BFBFBF" d="M145.326,72c0.002,-1.322,1.076,-2.393,2.397,-2.391c1.319,0.002,2.388,1.071,2.39,2.391"/>
   <path  fill="#E6E6E6" d="M150.113,72c0.002,1.322,-1.067,2.395,-2.39,2.396c-1.321,0.002,-2.396,-1.067,-2.397,-2.39c0,-0.002,0,-0.005,0,-0.007"/>
   <circle  r="1.197" fill="#383838" cy="72" cx="147.72"/>
  </g>
  <g  id="H20pin">
   <path  fill="#BFBFBF" d="M145.326,79.2c0.002,-1.322,1.076,-2.392,2.397,-2.39c1.319,0.002,2.388,1.07,2.39,2.39"/>
   <path  fill="#E6E6E6" d="M150.113,79.2c0.002,1.321,-1.067,2.396,-2.39,2.397c-1.321,0.002,-2.396,-1.068,-2.397,-2.391c0,-0.002,0,-0.005,0,-0.007"/>
   <circle  r="1.197" fill="#383838" cy="79.2" cx="147.72"/>
  </g>
  <g  id="I20pin">
   <path  fill="#BFBFBF" d="M145.326,86.4c0.002,-1.322,1.076,-2.393,2.397,-2.391c1.319,0.002,2.388,1.07,2.39,2.391"/>
   <path  fill="#E6E6E6" d="M150.113,86.4c0.002,1.321,-1.067,2.395,-2.39,2.396c-1.321,0.002,-2.396,-1.068,-2.397,-2.39c0,-0.003,0,-0.005,0,-0.007"/>
   <circle  r="1.197" fill="#383838" cy="86.4" cx="147.72"/>
  </g>
  <g  id="J20pin">
   <path  fill="#BFBFBF" d="M145.326,93.6c0.002,-1.322,1.076,-2.392,2.397,-2.39c1.319,0.002,2.388,1.071,2.39,2.39"/>
   <path  fill="#E6E6E6" d="M150.113,93.6c0.002,1.322,-1.067,2.396,-2.39,2.397c-1.321,0.002,-2.396,-1.067,-2.397,-2.39c0,-0.003,0,-0.005,0,-0.008"/>
   <circle  r="1.197" fill="#383838" cy="93.6" cx="147.72"/>
  </g>
 </g>
</g>
</g></g><path stroke='#8c8c8c' stroke-width='2.15136' stroke-linecap='round' stroke-linejoin='round' fill='none' d='M75.1408,70.2751L75.1408,45.659' />
<path stroke='#8c8c8c' stroke-width='2.15136' stroke-linecap='round' stroke-linejoin='round' fill='none' d='M67.9386,70.2751L67.9378,45.659' />
<g partID='57950'><g transform='translate(63.412,99.4819)' ><g transform='matrix(1,0,0,-1,0,0)'  ><g xmlns="http://www.w3.org/2000/svg" id="breadboard">
 <rect xmlns="http://www.w3.org/2000/svg" id="connector0pin" height="0.72" y="25.421" x="3.45096" fill="none" width="2.15208"/>
 <rect xmlns="http://www.w3.org/2000/svg" id="connector1pin" height="0.72" y="25.421" x="10.651" fill="none" width="2.15424"/>
 <g xmlns="http://www.w3.org/2000/svg" id="connector0leg" x1="6.287" stroke-width="2.15136" x2="6.287" fill="none" stroke-linecap="round" y1="40.565" y2="74.754" stroke="#8C8C8C"/>
 <g xmlns="http://www.w3.org/2000/svg" id="connector1leg" x1="16.29" stroke-width="2.15136" x2="16.29" fill="none" stroke-linecap="round" y1="40.565" y2="74.754" stroke="#8C8C8C"/>
 <rect xmlns="http://www.w3.org/2000/svg" height="9.82728" y="19.3795" x="3.45096" fill="#8C8C8C" width="2.15136"/>
 <path xmlns="http://www.w3.org/2000/svg" fill="#8C8C8C" d="M12.8045,29.2068c0,-1.1736,-1.06488,-2.1024,-2.088,-2.9916c-0.41616,-0.3672,-1.19952,-1.00152,-1.19952,-1.42488l0,-5.47056l-2.16144,0l0,5.78016c0,1.0584,0.94752,1.87848,1.94616,2.74824c0.44424,0.37584,1.34856,1.24992,1.34856,1.76976"/>
 <g xmlns="http://www.w3.org/2000/svg" id="g12">
  <path xmlns="http://www.w3.org/2000/svg" id="color_path14" opacity="0.3" fill="#ffffff" d="M14.1732,13.001L14.1732,7.0884C14.1732,3.1752,11.0052,0,7.08768,0C3.1752,0,0,3.16944,0,7.0884l0,13.649c1.47384,1.65096,4.0968,2.75256,7.08768,2.75256c4.61952,0,8.36856,-2.61792,8.36856,-5.85936l0,-1.52352C15.4555,14.9645,14.9818,13.9032,14.1732,13.001z"/>
  <path xmlns="http://www.w3.org/2000/svg" id="path16" opacity="0.5" fill="#E6E6E6" d="M14.1732,13.001L14.1732,7.0884C14.1732,3.1752,11.0052,0,7.08768,0C3.1752,0,0,3.16944,0,7.0884l0,13.649c1.47384,1.65096,4.0968,2.75256,7.08768,2.75256c4.61952,0,8.36856,-2.61792,8.36856,-5.85936l0,-1.52352C15.4555,14.9645,14.9818,13.9032,14.1732,13.001z"/>
  <path xmlns="http://www.w3.org/2000/svg" id="path18" opacity="0.9" fill="#D1D1D1" d="M14.1732,13.001l0,3.10536c0,2.73888,-3.16584,4.96512,-7.08552,4.96512C3.1752,21.0715,0,18.8525,0,16.1064l0,3.10536L0,20.736c1.47384,1.65168,4.0968,2.75256,7.08768,2.75256c4.61952,0,8.36856,-2.61792,8.36856,-5.85864L15.4562,16.1064C15.4555,14.9645,14.9818,13.9032,14.1732,13.001z"/>
  <path xmlns="http://www.w3.org/2000/svg" id="color_path20" opacity="0.7" fill="#ffffff" d="M14.1732,13.001l0,3.10536c0,2.73888,-3.16584,4.96512,-7.08552,4.96512C3.1752,21.0715,0,18.8525,0,16.1064l0,3.10536L0,20.736c1.47384,1.65168,4.0968,2.75256,7.08768,2.75256c4.61952,0,8.36856,-2.61792,8.36856,-5.85864L15.4562,16.1064C15.4555,14.9645,14.9818,13.9032,14.1732,13.001z"/>
  <path xmlns="http://www.w3.org/2000/svg" id="color_path22" opacity="0.25" fill="#ffffff" d="M14.1732,13.001l0,3.10536c0,2.73888,-3.16584,4.96512,-7.08552,4.96512C3.1752,21.0715,0,18.8525,0,16.1064l0,3.10536c1.47384,1.65024,4.0968,2.75256,7.08768,2.75256c4.61952,0,8.36856,-2.61792,8.36856,-5.85864C15.4555,14.9645,14.9818,13.9032,14.1732,13.001z"/>
  <ellipse xmlns="http://www.w3.org/2000/svg" id="ellipse24" opacity="0.25" fill="#E6E6E6" cy="16.1064" ry="4.9608" cx="7.08768" rx="7.08696"/>
  <ellipse xmlns="http://www.w3.org/2000/svg" id="color_ellipse26" opacity="0.25" fill="#ffffff" cy="16.1064" ry="4.9608" cx="7.08768" rx="7.08696"/>
  <polygon xmlns="http://www.w3.org/2000/svg" id="polygon28" fill="#666666" points="2.2032,9.648,2.2032,16.1071,3.19608,16.1071,3.19608,13.0946,6.0156,13.0946,10.0123,8.80488,3.40704,8.80488"/>
  <polygon xmlns="http://www.w3.org/2000/svg" id="polygon30" fill="#666666" points="10.7784,8.52408,11.2147,9.03384,7.41168,13.0946,11.0599,13.0946,11.0599,16.1071,11.9736,16.1071,11.9736,8.52408"/>
  <path xmlns="http://www.w3.org/2000/svg" id="color_path32" opacity="0.65" fill="#ffffff" d="M14.1732,13.001L14.1732,7.0884C14.1732,3.1752,11.0052,0,7.08768,0C3.1752,0,0,3.16944,0,7.0884l0,13.649c1.47384,1.65096,4.0968,2.75256,7.08768,2.75256c4.61952,0,8.36856,-2.61792,8.36856,-5.85936l0,-1.52352C15.4555,14.9645,14.9818,13.9032,14.1732,13.001z"/>
  <path xmlns="http://www.w3.org/2000/svg" id="path34" opacity="0.5" fill="#FFFFFF" d="M10.3882,3.75408l1.4364,-0.2736c-0.84168,-1.13184,-2.08224,-1.95768,-3.54168,-2.23848l0.25416,1.08072C9.30096,2.59344,9.94392,3.1032,10.3882,3.75408z"/>
  <path xmlns="http://www.w3.org/2000/svg" id="path36" opacity="0.5" fill="#FFFFFF" d="M0.76824,19.926l0,1.51992c0.64872,0.5292,1.43352,0.97632,2.3076,1.31688l0,-1.52496C2.19744,20.9016,1.41912,20.4559,0.76824,19.926z"/>
  <path xmlns="http://www.w3.org/2000/svg" id="path38" opacity="0.5" fill="#FFFFFF" d="M11.0729,20.2097c-0.2556,0.1224,-0.52992,0.22968,-0.80568,0.32976c-0.05832,0.01944,-0.11736,0.04032,-0.17784,0.05832c-0.56376,0.17928,-1.16136,0.31896,-1.79496,0.39456c-0.07488,0.00936,-0.1512,0.01872,-0.22464,0.01944c-0.3204,0.03024,-0.64368,0.05832,-0.97056,0.05832c-0.14832,0,-0.30744,-0.01512,-0.4716,-0.02376c-1.20024,-0.05688,-2.33064,-0.31464,-3.2976,-0.73944L3.33,11.9174L3.33,7.092c0,-1.47096,0.84816,-2.72952,2.0736,-3.34944L5.38128,3.68928l-1.24776,-1.512c-1.66968,1.00296,-2.79,2.8224,-2.79,4.91184l0,11.9052c-0.04968,-0.04968,-0.30816,-0.30888,-0.48024,-0.52992l-0.30744,0.6876c1.40112,1.48176,3.8088,2.46168,6.54264,2.46168c1.67976,0,3.23712,-0.37368,4.51152,-1.00224l-0.52704,-0.40896C11.0729,20.2097,11.0729,20.2097,11.0729,20.2097z"/>
 </g>
</g>
</g></g></g><path stroke='#8c8c8c' stroke-width='2.1' stroke-linecap='round' stroke-linejoin='round' fill='none' d='M161.541,84.397L161.541,88.859' />
<path stroke='#8c8c8c' stroke-width='2.1' stroke-linecap='round' stroke-linejoin='round' fill='none' d='M139.313,84.397L139.313,88.859' />
<g partID='57980'><g transform='translate(138.263,78.977)' ><g transform='matrix(1,0,0,1,0,0)'  ><g xmlns="http://www.w3.org/2000/svg" id="breadboard">
 <rect xmlns="http://www.w3.org/2000/svg" id="connector0pin" height="0.999998" y="4.28399" x="0.284" fill="none" width="1"/>
 <rect xmlns="http://www.w3.org/2000/svg" id="connector1pin" height="0.999998" y="4.28399" x="21.885" fill="none" width="1"/>
 <g xmlns="http://www.w3.org/2000/svg" id="connector0leg" x1="1.05" stroke-width="2.1" x2="1.05" fill="none" stroke-linecap="round" y1="5.42" y2="9.882" stroke="#8C8C8C"/>
 <g xmlns="http://www.w3.org/2000/svg" id="connector1leg" x1="23.278" stroke-width="2.1" x2="23.278" fill="none" stroke-linecap="round" y1="5.42" y2="9.882" stroke="#8C8C8C"/>
 <g xmlns="http://www.w3.org/2000/svg">
  <path xmlns="http://www.w3.org/2000/svg" stroke-width="2.1" fill="none" stroke-linecap="round" d="M23.278,5.41999L1.05,5.41999" stroke="#8C8C8C"/>
  <path xmlns="http://www.w3.org/2000/svg" d="M4.864,5.46499c0,2.178,0.959,4.12699,2.473,5.46699l9.655,0c1.517,-1.338,2.477,-3.28599,2.477,-5.46699c0,-2.177,-0.96,-4.12599,-2.477,-5.46499L7.336,-8.88176e-16C5.823,1.337,4.864,3.28699,4.864,5.46499z"/>
  <rect xmlns="http://www.w3.org/2000/svg" height="10.932" y="0" x="7.336" width="9.656"/>
  <path xmlns="http://www.w3.org/2000/svg" fill="#CCCCCC" d="M17.009,10.306c0,0,-2.349,0.228999,-4.845,0.228999S7.32,10.306,7.32,10.306S7.096,7.96198,7.096,5.46499c0,-2.49599,0.225,-4.84399,0.225,-4.84399s2.348,-0.228999,4.844,-0.228999c2.495,0,4.844,0.228999,4.844,0.228999s0.228,2.34799,0.228,4.84399C17.232,7.96198,17.009,10.306,17.009,10.306z"/>
  <path xmlns="http://www.w3.org/2000/svg" fill="#8F0000" d="M16.482,1.36l-0.031,-0.182l-0.184,-0.0309999c-0.021,-0.00299999,-1.979,-0.311999,-4.104,-0.311999c-1.109,0,-2.163,0.0869998,-2.851,0.146c-0.691,0.0739998,-1.05,0.114,-1.244,0.164c-0.057,0,-0.105,0.021,-0.145,0.0619999C7.861,1.235,7.848,1.288,7.846,1.35C7.786,1.538,7.738,1.9,7.667,2.61299C7.614,3.14899,7.525,4.23999,7.525,5.46999c0,2.136,0.32,4.08799,0.323,4.10499l0.031,0.181l0.181,0.0299999C8.079,9.78998,10.031,10.1,12.165,10.1c2.138,0,4.086,-0.311999,4.104,-0.311999l0.184,-0.0299999l0.029,-0.181c0.004,-0.021,0.32,-1.979,0.32,-4.10499S16.484,1.379,16.482,1.36zM8.326,9.30298c-0.077,-0.523999,-0.29,-2.118,-0.29,-3.83799c0,-1.8,0.188,-3.38199,0.271,-3.83899C8.49,1.599,8.834,1.552,9.271,1.505C9.264,1.548,9.253,1.583,9.253,1.63c0,0.305999,0.188,0.820998,0.21,0.878998C9.508,2.62799,9.63,2.69799,9.755,2.67099c0.012,-0.002,1.157,-0.234999,2.41,-0.234999c1.188,0,2.271,0.209,2.39,0.229999c0.002,0.00499999,0.012,0.02,0.012,0.0609999c0,0.104,-0.049,0.270999,-0.103,0.415999c-0.282,-0.0489999,-0.815,-0.125,-1.434,-0.125c-0.887,0,-1.736,0.158,-1.771,0.165c-0.075,0.021,-0.138,0.0619999,-0.176,0.126c-0.017,0.0299999,-0.103,0.196,-0.103,0.520999c0,0.270999,0.071,0.645999,0.074,0.675999c0.013,0.0619999,0.051,0.127,0.107,0.165c0.057,0.0389999,0.127,0.0519999,0.195,0.0389999c0.003,0,0.389,-0.0749998,0.809,-0.0749998c0.26,0,0.495,0.0279999,0.646,0.0499999c0.021,0.0649999,0.021,0.147,0.021,0.240999c0,0.103,-0.012,0.204,-0.023,0.289999l-0.645,0l-0.858,0c-0.119,0,-0.222,0.0809998,-0.25,0.195c-0.003,0.012,-0.076,0.309999,-0.076,0.603999c0,0.300999,0.075,0.523999,0.082,0.550999c0.03,0.0859998,0.104,0.151,0.194,0.169c0.018,0.00299999,0.436,0.0839998,0.908,0.0839998c0.247,0,0.476,-0.02,0.645,-0.0439999c0.021,0.105,0.025,0.228999,0.025,0.334999c0,0.0739998,-0.009,0.119,-0.016,0.163c-0.28,0.0439999,-0.896,0.129,-1.521,0.129c-0.833,0,-1.535,-0.146,-1.542,-0.146c-0.1,-0.021,-0.2,0.016,-0.26,0.0969998C9.475,7.37698,9.264,7.66598,9.264,8.00998c0,0.344999,0.211,0.629999,0.236,0.660999C9.538,8.71998,9.592,8.75398,9.652,8.76698c0.048,0.012,1.207,0.245999,2.513,0.245999c0.985,0,1.885,-0.134,2.29,-0.203c0.054,0.177,0.105,0.383999,0.105,0.494999c0,0.0829998,-0.029,0.139,-0.062,0.179c-0.676,0.0619999,-1.486,0.113,-2.339,0.113C10.445,9.59298,8.85,9.38098,8.326,9.30298zM16.002,9.30298c-0.189,0.0279999,-0.521,0.0749998,-0.941,0.12c0.006,-0.0409999,0.021,-0.0749998,0.021,-0.123c0,-0.303999,-0.188,-0.819998,-0.211,-0.876998c-0.044,-0.12,-0.167,-0.189,-0.292,-0.163c-0.017,0.002,-1.158,0.234999,-2.41,0.234999c-1.042,0,-2.001,-0.16,-2.303,-0.215C9.825,8.20798,9.782,8.09998,9.782,8.00598c0,-0.0759998,0.026,-0.156,0.056,-0.225c0.275,0.0479999,0.826,0.132,1.465,0.132c0.886,0,1.736,-0.159,1.771,-0.165c0.07,-0.021,0.139,-0.0619999,0.176,-0.128c0.02,-0.0299999,0.104,-0.194,0.104,-0.520999c0,-0.286999,-0.062,-0.659999,-0.062,-0.674999c-0.021,-0.0659999,-0.062,-0.126,-0.104,-0.162c-0.062,-0.0389999,-0.129,-0.0529999,-0.188,-0.0409999C12.975,6.22599,12.586,6.29999,12.17,6.29999c-0.261,0,-0.496,-0.0279999,-0.647,-0.0489999c-0.012,-0.0659999,-0.022,-0.146,-0.022,-0.239999c0,-0.104,0.012,-0.204,0.025,-0.290999l0.644,0l0.855,0c0.119,0,0.226,-0.0819998,0.252,-0.196c0.002,-0.013,0.074,-0.311999,0.074,-0.603999c0,-0.301999,-0.074,-0.523999,-0.082,-0.551999C13.24,4.26999,13.165,4.21799,13.078,4.19999c-0.02,-0.021,-0.437,-0.103,-0.909,-0.103c-0.248,0,-0.475,0.022,-0.645,0.0619999c-0.014,-0.106,-0.026,-0.228999,-0.026,-0.352999c0,-0.0619999,0.009,-0.104,0.015,-0.146c0.28,-0.0439999,0.896,-0.146,1.521,-0.146c0.829,0,1.532,0.153,1.541,0.154c0.118,0.0259999,0.239,-0.0349999,0.288,-0.146c0.021,-0.0599999,0.219,-0.491999,0.219,-0.811998c0,-0.375999,-0.264,-0.529999,-0.398,-0.561999c-0.05,-0.021,-1.207,-0.240999,-2.515,-0.240999c-0.985,0,-1.884,0.136,-2.291,0.2c-0.055,-0.188,-0.11,-0.391999,-0.11,-0.491999c0,-0.0809998,0.031,-0.146,0.06,-0.187c0.681,-0.0619999,1.498,-0.104,2.339,-0.104c1.72,0,3.312,0.212,3.838,0.285999c0.076,0.520999,0.289,2.115,0.289,3.83999C16.289,7.18398,16.08,8.77798,16.002,9.30298z"/>
  <circle xmlns="http://www.w3.org/2000/svg" r="1.379" fill="#8C8C8C" cy="5.46599" cx="6.433"/>
  <circle xmlns="http://www.w3.org/2000/svg" r="1.379" fill="#8C8C8C" cy="5.46499" cx="17.895"/>
  <path xmlns="http://www.w3.org/2000/svg" opacity="0.2" d="M16.992,0L7.336,0C5.823,1.337,4.864,3.28699,4.864,5.46499s0.959,4.12699,2.473,5.46699l9.655,0c1.517,-1.338,2.477,-3.28599,2.477,-5.46699C19.466,3.28699,18.507,1.337,16.992,0zM11.868,9.66098c-2.485,0,-4.5,-2.021,-4.5,-4.49999c0,-2.48499,2.015,-4.50099,4.5,-4.50099c2.483,0,4.501,2.016,4.501,4.50099C16.369,7.64498,14.354,9.66098,11.868,9.66098z"/>
  <circle xmlns="http://www.w3.org/2000/svg" opacity="0.8" r="1.17" fill="#FFFFFF" cy="3.39799" cx="10.357"/>
 </g>
</g>
</g></g></g><path stroke='#8c8c8c' stroke-width='2.15998' stroke-linecap='round' stroke-linejoin='round' fill='none' d='M118.341,24.081L118.341,31.259' />
<path stroke='#8c8c8c' stroke-width='2.15998' stroke-linecap='round' stroke-linejoin='round' fill='none' d='M111.155,24.081L111.155,31.259' />
<path stroke='#8c8c8c' stroke-width='2.15998' stroke-linecap='round' stroke-linejoin='round' fill='none' d='M103.974,24.081L103.974,31.259' />
<g partID='62500'><g transform='translate(102.894,0)' ><g xmlns="http://www.w3.org/2000/svg" id="breadboard">
 <rect xmlns="http://www.w3.org/2000/svg" id="connector0pin" height="1" y="22.081" x="0" fill="none" width="2.15998"/>
 <rect xmlns="http://www.w3.org/2000/svg" id="connector1pin" height="1" y="22.081" x="7.18095" fill="none" width="2.15998"/>
 <rect xmlns="http://www.w3.org/2000/svg" id="connector2pin" height="1" y="22.081" x="14.3669" fill="none" width="2.15998"/>
 <g xmlns="http://www.w3.org/2000/svg" id="connector0leg" x1="1.08" stroke-width="2.15998" x2="1.08" fill="none" stroke-linecap="round" y1="24.081" y2="31.259" stroke="#8C8C8C"/>
 <g xmlns="http://www.w3.org/2000/svg" id="connector1leg" x1="8.261" stroke-width="2.15998" x2="8.261" fill="none" stroke-linecap="round" y1="24.081" y2="31.259" stroke="#8C8C8C"/>
 <g xmlns="http://www.w3.org/2000/svg" id="connector2leg" x1="15.447" stroke-width="2.15998" x2="15.447" fill="none" stroke-linecap="round" y1="24.081" y2="31.259" stroke="#8C8C8C"/>
 <rect xmlns="http://www.w3.org/2000/svg" id="rect9506" height="9.351" y="14.731" x="7.17795" fill="#8C8C8C" width="2.15398"/>
 <path xmlns="http://www.w3.org/2000/svg" id="path9510" fill="#8C8C8C" d="M3.28698,14.731l0,3.316c0,0.424,-0.781994,1.059,-1.19799,1.425c-1.02499,0.891,-2.08798,1.819,-2.08798,2.992l0,1.619l2.15398,0c0,0,0,-1,0,-1.21c0,-0.517,0.903993,-1.389,1.34999,-1.769c0.996993,-0.87,1.94499,-1.69,1.94499,-2.749l0,-3.625L3.28698,14.73L3.28698,14.731z"/>
 <path xmlns="http://www.w3.org/2000/svg" id="path9514" fill="#8C8C8C" d="M13.2209,14.731l0,3.316c0,0.424,0.780994,1.059,1.19899,1.425c1.02699,0.891,2.08898,1.819,2.08898,2.992l0,1.619l-2.15398,0c0,0,0,-1,0,-1.21c0,-0.517,-0.903993,-1.389,-1.34999,-1.769c-0.997993,-0.87,-1.94499,-1.69,-1.94499,-2.749l0,-3.625L13.2209,14.73L13.2209,14.731z"/>
 <rect xmlns="http://www.w3.org/2000/svg" id="rect9553" height="10.07" y="4.659" x="1.61499" fill="#1A1A1A" width="13.2779"/>
 <path xmlns="http://www.w3.org/2000/svg" id="path9555" fill="#141414" d="M13.8889,4.659l0,2.453l0,8.228l0,1.842c0.631995,-0.713,1.00399,-1.553,1.00399,-2.453l0,0L14.8929,4.659L13.8889,4.659z"/>
 <path xmlns="http://www.w3.org/2000/svg" id="path9557" fill="#242424" d="M2.62098,4.659L1.61599,4.659l0,10.07l0,0c0,0.899,0.372997,1.74,1.00499,2.453L2.62098,15.34L2.62098,7.112L2.62098,4.659z"/>
 <path xmlns="http://www.w3.org/2000/svg" id="path9559" fill="#1F1F1F" d="M1.61499,4.659L1.61499,4.659c0,0.899,0.372997,1.74,1.00499,2.453l11.2759,0c0.631995,-0.713,1.00499,-1.554,1.00499,-2.453l0,0L1.61499,4.659z"/>
 <path xmlns="http://www.w3.org/2000/svg" id="path9561" fill="#141414" d="M8.25494,0C4.58697,0,1.61499,2.086,1.61499,4.661l13.2779,0C14.8929,2.086,11.9229,0,8.25494,0z"/>
 <rect xmlns="http://www.w3.org/2000/svg" id="rect9563" height="10.07" y="7.112" x="2.62098" width="11.2759"/>
 <path xmlns="http://www.w3.org/2000/svg" fill="#999999" d="M4.98996,14.359l0,-5.4l2.15998,0l0,1.079l1.07999,0l0,1.08l1.08099,0L9.31093,8.958l2.15898,0l0,5.4L9.31193,14.358l0,-1.079L8.23094,13.279l0,-1.08l-1.07999,0l0,2.161L4.98996,14.36z"/>
</g>
</g></g><g partID='63660'><g transform='translate(0,42.06)' ><g  id="breadboard">
 <g  id="icon">
  <path  fill="#1F7A34" d="M0,0l0,26.64c1.191,0,2.16,0.967,2.16,2.16S1.193,30.96,0,30.96L0,57.6l49.473,0L49.473,0L0,0z"/>
  <g transform="matrix(1, 0, 0, 1, 100, 153.618)">
   <g >
    <g transform="matrix(1, 0, 0, 1, 507.988, 1414.62)">
     <g  id="battcon_12mm_pth">
      <g transform="matrix(-1, 0, 0, -1, 859.458, 856.722)">
       <g >
        <g >
         <g >
          <g >
           <circle  r="16.788" fill="#686868" cy="2397.11" cx="1442.71"/>
          </g>
          <g  opacity="0.5">
           <path  fill="#C6C6C6" d="M1442.71,2413.38c-1.951,0,-3.866,-0.325,-5.691,-0.973c-0.146,-0.055,-0.225,-0.215,-0.172,-0.361c0.052,-0.146,0.213,-0.224,0.358,-0.172c2.604,0.92,5.458,1.168,8.186,0.722c0.147,-0.023,0.3,0.08,0.323,0.233c0.023,0.151,-0.08,0.301,-0.23,0.322C1444.57,2413.3,1443.64,2413.38,1442.71,2413.38z"/>
          </g>
          <g  opacity="0.43">
           <g >
            <path  fill="#020202" d="M1427.72,2395.17c0,-3.153,2.558,-5.711,5.71,-5.711c2.03,0,3.811,1.063,4.821,2.658c-0.908,-1.95,-2.88,-3.307,-5.174,-3.307c-3.154,0,-5.713,2.558,-5.713,5.712c0,1.122,0.33,2.169,0.891,3.052C1427.92,2396.84,1427.72,2396.02,1427.72,2395.17z"/>
           </g>
          </g>
          <g  opacity="0.43">
           <g >
            <path  fill="#020202" d="M1446.94,2395.17c0,-3.153,2.559,-5.711,5.711,-5.711c2.029,0,3.813,1.063,4.821,2.658c-0.909,-1.95,-2.882,-3.307,-5.177,-3.307c-3.151,0,-5.709,2.558,-5.709,5.712c0,1.122,0.328,2.169,0.89,3.052C1447.14,2396.84,1446.94,2396.02,1446.94,2395.17z"/>
           </g>
          </g>
          <g >
           <g >
            <g >
             <path  fill="#9B9B9B" d="M1430.44,2393.05c0,-1.271,1.146,-2.305,2.559,-2.305c1.413,0,2.56,1.029,2.56,2.305l0,2.721l-5.114,0L1430.44,2393.05L1430.44,2393.05z"/>
             <path  fill="#9B9B9B" d="M1449.66,2393.05c0,-1.271,1.146,-2.305,2.561,-2.305c1.412,0,2.559,1.029,2.559,2.305l0,2.721l-5.113,0l0,-2.721L1449.66,2393.05z"/>
            </g>
            <rect  height="12.269" y="2395.77" x="1449.66" fill="#898989" width="5.115"/>
            <rect  height="12.269" y="2395.77" x="1430.44" fill="#898989" width="5.114"/>
            <g >
             <path  fill="#898989" d="M1453.73,2379.22l0,-0.803l-22.204,0l0,0.803l-6.351,6.448l0,22.173c0,2.633,2.104,4.782,4.671,4.782c2.568,0,6.014,-4.395,12.361,-4.395c6.35,0,9.906,4.395,12.619,4.395l0.489,0c2.712,0,4.932,-2.149,4.932,-4.782l0,-22.173L1453.73,2379.22zM1435.93,2399.07l0,8.799l-5.884,0l0,-8.799c-1.551,-0.979,-2.585,-2.701,-2.585,-4.671c0,-3.055,2.476,-5.526,5.524,-5.526c3.052,0,5.526,2.478,5.526,5.526C1438.52,2396.36,1437.48,2398.09,1435.93,2399.07zM1455.15,2399.07l0,8.799l-5.881,0l0,-8.799c-1.551,-0.979,-2.586,-2.701,-2.586,-4.671c0,-3.055,2.474,-5.526,5.526,-5.526c3.052,0,5.522,2.478,5.522,5.526C1457.74,2396.36,1456.71,2398.09,1455.15,2399.07z"/>
            </g>
            <rect  opacity="0.3" height="0.803" y="2378.42" x="1431.52" fill="#FFFFFF" width="22.204" enable-background="new    "/>
            <g >
             <path  fill="none" d="M1432.99,2388.87c-3.052,0,-5.523,2.475,-5.523,5.527c0,1.97,1.031,3.692,2.584,4.671l0,8.798l5.883,0l0,-8.798c1.553,-0.979,2.586,-2.702,2.586,-4.674C1438.52,2391.34,1436.05,2388.87,1432.99,2388.87z"/>
             <path  fill="none" d="M1452.21,2388.87c-3.057,0,-5.525,2.475,-5.525,5.527c0,1.97,1.033,3.692,2.586,4.671l0,8.798l5.883,0l0,-8.798c1.553,-0.979,2.585,-2.702,2.585,-4.674C1457.74,2391.34,1455.27,2388.87,1452.21,2388.87z"/>
             <path  fill="#898989" d="M1425.17,2385.67l0,22.173c0,0.88,0.236,1.7,0.646,2.41l0,-25.158L1425.17,2385.67z"/>
             <path  opacity="0.3" fill="#FFFFFF" d="M1425.17,2385.67l0,22.173c0,0.88,0.236,1.7,0.646,2.41l0,-25.158L1425.17,2385.67z" enable-background="new    "/>
             <path  fill="#898989" d="M1460.24,2385.67l-0.646,-0.561l0,25.086c0.409,-0.696,0.646,-1.499,0.646,-2.354L1460.24,2385.67z"/>
             <path  opacity="0.3" fill="#FFFFFF" d="M1460.24,2385.67l-0.646,-0.561l0,25.086c0.409,-0.696,0.646,-1.499,0.646,-2.354L1460.24,2385.67z" enable-background="new    "/>
            </g>
            <g  opacity="0.5">
             <path  fill="#FFFFFF" d="M1442.98,2381.87l0,3.062l2.947,0l0,0.5l-2.947,0l0,3.084l-0.536,0l0,-3.084l-2.945,0l0,-0.5l2.945,0l0,-3.062L1442.98,2381.87z"/>
            </g>
           </g>
          </g>
          <g >
           <path  fill="#828282" d="M1434.84,2395.95l-3.692,0c-0.156,0,-0.283,-0.126,-0.283,-0.282c0,-0.153,0.127,-0.282,0.283,-0.282l3.692,0c0.154,0,0.281,0.129,0.281,0.282C1435.12,2395.82,1434.99,2395.95,1434.84,2395.95z"/>
          </g>
          <g >
           <path  fill="#828282" d="M1454.06,2395.95l-3.692,0c-0.154,0,-0.281,-0.126,-0.281,-0.282c0,-0.153,0.127,-0.282,0.281,-0.282l3.692,0c0.155,0,0.282,0.129,0.282,0.282C1454.34,2395.82,1454.22,2395.95,1454.06,2395.95z"/>
          </g>
         </g>
         <path  opacity="0.3" fill="#FFFFFF" d="M1430.44,2392.89c0,-1.179,1.156,-2.14,2.551,-2.14c1.396,0,2.542,0.957,2.542,2.14c0,-1.018,-1.312,-1.844,-2.542,-1.844C1431.76,2391.05,1430.44,2391.88,1430.44,2392.89z" enable-background="new    "/>
         <path  opacity="0.3" fill="#FFFFFF" d="M1449.67,2392.89c0,-1.179,1.155,-2.14,2.552,-2.14c1.396,0,2.542,0.957,2.542,2.14c0,-1.018,-1.312,-1.844,-2.542,-1.844C1450.99,2391.05,1449.67,2391.88,1449.67,2392.89z" enable-background="new    "/>
        </g>
       </g>
      </g>
     </g>
    </g>
   </g>
  </g>
 </g>
 <g transform="matrix(1, 0, 0, 1, 327.591, 734.05)">
  <g >
   <rect  id="connector2pin" height="1.182" y="-680.642" x="-303.444" fill="none" width="1.187"/>
   <rect  height="1.182" y="-680.642" x="-303.444" fill="#8C8663" width="1.187"/>
   <polygon  fill="#B8AF82" points="-304.004,-678.901,-303.444,-679.461,-303.444,-680.696,-304.004,-681.198"/>
   <polygon  fill="#80795B" points="-302.261,-680.64,-303.437,-680.64,-304.004,-681.198,-301.706,-681.198"/>
   <polygon  fill="#5E5B43" points="-302.261,-679.461,-302.261,-680.64,-301.706,-681.198,-301.706,-678.901"/>
   <polygon  fill="#9A916C" points="-304.004,-678.901,-303.438,-679.461,-302.261,-679.461,-301.706,-678.901"/>
  </g>
 </g>
 <g transform="matrix(1, 0, 0, 1, 327.591, 734.05)">
  <g >
   <rect  height="1.182" y="-731.04" x="-303.444" fill="#8C8663" width="1.187"/>
   <rect  id="connector0pin" height="1.182" y="-731.04" x="-303.444" fill="none" width="1.187"/>
   <polygon  fill="#B8AF82" points="-304.004,-729.302,-303.444,-729.804,-303.444,-731.039,-304.004,-731.599"/>
   <polygon  fill="#80795B" points="-301.706,-729.302,-304.004,-729.302,-303.437,-729.86,-302.261,-729.86"/>
   <polygon  fill="#5E5B43" points="-301.706,-731.599,-301.706,-729.302,-302.261,-729.86,-302.261,-731.039"/>
   <polygon  fill="#9A916C" points="-301.706,-731.599,-302.261,-731.039,-303.438,-731.039,-304.004,-731.599"/>
  </g>
 </g>
</g>
</g></g><g partID='94860'><g transform='translate(105.666,104.339)' ><g transform='matrix(-1,0,0,-1,0,0)'  ><g  id="breadboard">
 <circle  id="connector0pin" r="1.102" fill="none" cy="22.679" cx="1.724"/>
 <circle  id="connector1pin" r="1.102" fill="none" cy="8.28" cx="8.925"/>
 <circle  id="connector2pin" r="1.102" fill="none" cy="22.679" cx="16.124"/>
 <g >
  <path  id="path20" fill="#B3B3B3" d="M0.001,1.081L0.001,18.88l8.896,0l8.9,0L17.797,1.08L0.001,1.081z"/>
  <rect  id="rect11" height="2.375" y="18.504" x="0.001" fill="#1A1A1A" width="17.799"/>
  <g  id="legs">
   <g  id="pin0">
    <rect  id="rect14" height="3.68" y="20.081" x="0.62" fill="#4D4D4D" width="2.16"/>
    <rect  id="rect10" height="2.449" y="18.879" x="0.62" fill="#666666" width="4.892"/>
   </g>
   <g  id="pin2">
    <rect  id="rect16" height="3.701" y="20.059" x="15.018" fill="#4D4D4D" width="2.16"/>
    <rect  id="rect8" height="2.428" y="18.879" x="12.26" fill="#666666" width="4.918"/>
   </g>
   <g  id="pin1">
    <rect  id="rect18" height="4.316" y="0" x="7.819" fill="#8C8C8C" width="2.16"/>
   </g>
  </g>
  <polygon  id="polygon22" fill="#CCCCCC" points="0.45,10.109,16.899,1.08,0.45,1.08"/>
  <circle  id="circle24" r="6.563" fill="#B35D13" cy="9.935" cx="8.899"/>
  <rect  id="rect26" height="1.583" y="8.351" x="2.338" fill="#B35D13" width="13.124"/>
  <circle  id="circle28" r="6.563" fill="#FF7701" cy="8.352" cx="8.899"/>
  <path  id="path30" fill="#FF9234" d="M9.055,1.946c0,0,-1.937,0.152,-3.656,1.843c-3.131,3.073,-2.906,4.72,-2.906,4.72C2.493,4.883,5.431,1.946,9.055,1.946z"/>
  <rect  id="rect32" height="8.208" y="4.248" x="8.066" fill="#803C01" width="1.665"/>
  <rect  id="rect34" height="1.667" y="7.517" x="4.796" fill="#803C01" width="8.209"/>
  <rect  id="rect36" height="7.042" y="5.414" x="8.066" fill="#BF5901" width="1.665"/>
  <rect  id="rect38" height="0.333" y="9.184" x="4.695" fill="#FF9234" width="3.371"/>
  <rect  id="rect40" height="0.333" y="9.184" x="9.731" fill="#FF9234" width="3.371"/>
  <g transform="matrix(1, 0, 0, 1, 7.1208, 14.3918)">
   <text  id="text42" font-family="'OCRA'" font-size="2">E01</text>
  </g>
  <rect  id="rect44" height="1.345" y="0.214" x="4.441" fill="#666666" width="8.917"/>
  <rect  id="rect12" height="0.375" y="0" x="4.441" fill="#E6E6E6" width="8.917"/>
  <rect  id="rect12_1_" height="0.255" y="0.189" x="4.441" fill="#CCCCCC" width="8.917"/>
  <path  id="path48" fill="#808080" d="M0.001,18.504L17.8,18.504c0,0,0.064,0.375,-0.621,0.375c-0.684,0,-15.938,0,-16.559,0S0.001,18.504,0.001,18.504z"/>
  <polygon  id="polygon50" fill="#CCCCCC" points="17.178,1.08,17.798,1.08,17.798,18.504,17.178,18.693"/>
  <rect  id="rect52" height="17.425" y="1.08" x="17.606" fill="#E6E6E6" width="0.242"/>
  <rect  id="rect54" height="17.425" y="1.08" x="0.001" fill="#CCCCCC" width="0.449"/>
  <rect  id="rect56" height="17.425" y="1.08" x="0.001" fill="#E6E6E6" width="0.212"/>
  <g >
   <g >
    <g >
     <defs >
      <path  id="SVGID_1_" d="M0.001,18.504L17.8,18.504c0,0,0.064,0.375,-0.621,0.375c-0.684,0,-15.938,0,-16.559,0S0.001,18.504,0.001,18.504z"/>
     </defs>
     <rect  id="rect66" height="0.42" y="18.366" clip-path="url(#SVGID_2_)" x="0.001" fill="#999999" width="17.799"/>
    </g>
   </g>
  </g>
  <g >
   <g >
    <g >
     <defs >
      <path  id="SVGID_3_" d="M0.001,18.504L17.8,18.504c0,0,0.064,0.375,-0.621,0.375c-0.684,0,-15.938,0,-16.559,0S0.001,18.504,0.001,18.504z"/>
     </defs>
     <clipPath  id="SVGID_4_">
      <use  href="#SVGID_3_" overflow="visible"/>
     </clipPath>
     <polygon  id="polygon68" opacity="0.46" clip-path="url(#SVGID_4_)" fill="#B3B3B3" points="17.8,18.366,17.487,18.693,0.274,18.693,0.001,18.366" enable-background="new    "/>
    </g>
   </g>
  </g>
  <rect  id="rect70" height="8.208" y="4.248" x="8.066" fill="#803C01" width="0.24"/>
  <rect  id="rect72" height="0.5" y="8.683" x="4.796" fill="#BF5901" width="8.209"/>
  <path  id="path74" fill="#FF9234" d="M9.731,4.248l0,3.27l3.271,0l0,1.667L9.731,9.185l0,3.272L8.066,12.457L8.066,9.184L4.796,9.184L4.796,7.517l3.271,0l0,-3.27L9.731,4.248M9.831,4.147L9.73,4.147L8.066,4.147l-0.1,0l0,0.103l0,3.169L4.796,7.419L4.695,7.419l0,0.1l0,1.667l0,0.103l0.101,0l3.171,0l0,3.17l0,0.1l0.1,0l1.665,0l0.103,0l0,-0.1l0,-3.17l3.174,0l0.1,0L13.109,9.184L13.109,7.517l0,-0.1l-0.1,0L9.831,7.417l0,-3.17L9.831,4.147L9.831,4.147z"/>
 </g>
</g>
</g></g></g><g partID='62530'><line stroke-linecap='round' stroke='#1b5bb3' x1='103.939' y1='38.459' x2='75.1394' y2='38.459' stroke-width='3.2' /><line stroke-linecap='round' stroke='#418dd9' x1='103.939' y1='38.459' x2='75.1394' y2='38.459' stroke-width='1.6' /></g><g partID='63750'><line stroke-linecap='round' stroke='#8c0000' x1='67.9404' y1='31.259' x2='24.74' y2='31.259' stroke-width='3.2' /><line stroke-linecap='round' stroke='#cc1414' x1='67.9404' y1='31.259' x2='24.74' y2='31.259' stroke-width='1.6' /></g><g partID='65070'><line stroke-linecap='round' stroke='#1b5bb3' x1='89.5394' y1='103.258' x2='67.9404' y2='103.258' stroke-width='3.2' /><line stroke-linecap='round' stroke='#418dd9' x1='89.5394' y1='103.258' x2='67.9404' y2='103.258' stroke-width='1.6' /></g><g partID='65180'><line stroke-linecap='round' stroke='#1b5bb3' x1='96.7404' y1='81.659' x2='111.139' y2='38.459' stroke-width='3.2' /><line stroke-linecap='round' stroke='#418dd9' x1='96.7404' y1='81.659' x2='111.139' y2='38.459' stroke-width='1.6' /></g><g partID='65250'><line stroke-linecap='round' stroke='#1b5bb3' x1='139.939' y1='103.261' x2='103.939' y2='103.258' stroke-width='3.2' /><line stroke-linecap='round' stroke='#418dd9' x1='139.939' y1='103.261' x2='103.939' y2='103.258' stroke-width='1.6' /></g><g partID='77100'><line stroke-linecap='round' stroke='#000000' x1='161.539' y1='110.462' x2='24.74' y2='110.459' stroke-width='3.2' /><line stroke-linecap='round' stroke='#404040' x1='161.539' y1='110.462' x2='24.74' y2='110.459' stroke-width='1.6' /></g><g partID='78030'><line stroke-linecap='round' stroke='#1b5bb3' x1='161.539' y1='81.6625' x2='118.34' y2='38.459' stroke-width='3.2' /><line stroke-linecap='round' stroke='#418dd9' x1='161.539' y1='81.6625' x2='118.34' y2='38.459' stroke-width='1.6' /></g></svg>