<?xml version="1.0" encoding="UTF-8"?>
<svg xmlns="http://www.w3.org/2000/svg" width="616" height="207" viewBox="0 0 616 207">
  <defs>
    <style>
      .cls-1 {
        fill: #181b21;
      }
    </style>
  </defs>
  <g id="Layer_1" data-name="Layer 1"/>
  <g id="fundo_rosa" data-name="fundo rosa"/>
  <g id="stories">
    <path class="cls-1" d="M33.29,176.29V55.75c0-15.11,9.29-21.35,22.24-21.35,10.95,0,16.93,4.93,22.9,13.14,29.54,42.37,51.12,76.86,53.11,76.86,1.33,0,2.32-.33,2.32-3.28V34.4h13.94V165.45c0,9.2-.33,14.45-9.29,14.45-8.96,0-11.62-6.57-17.26-15.11l-11.62-17.08C59.18,71.84,53.21,59.36,49.56,59.36c-1.66,0-2.32,1.31-2.32,4.27v112.66h-13.94Z"/>
    <path class="cls-1" d="M354.16,171.63V51.09c0-15.11,9.29-21.35,22.24-21.35,10.95,0,16.93,4.93,22.9,13.14,29.54,42.37,51.12,76.86,53.11,76.86,1.33,0,2.32-.33,2.32-3.28V29.74h13.94V160.79c0,9.2-.33,14.45-9.29,14.45-8.96,0-11.62-6.57-17.26-15.11l-11.62-17.08c-50.45-75.87-56.43-88.36-60.08-88.36-1.66,0-2.32,1.31-2.32,4.27v112.66h-13.94Z"/>
    <path class="cls-1" d="M241.73,117.94l-16.26-55.18c-2.32-8.21-1.99-13.47-6.64-13.47-4.65,0-5.31,5.58-7.3,13.8l-15.6,54.85h32.03l2.15,13.79h-38.17l-11.95,43.03h-13.94l33.52-120.87c4.32-14.45,10.62-24.63,27.55-24.63,19.92,0,23.23,14.12,28.54,31.2l34.19,114.3h-31.53l-12.61-43.03"/>
    <path class="cls-1" d="M550.87,118.42l-16.26-55.18c-2.32-8.21-1.99-13.47-6.64-13.47s-5.31,5.58-7.3,13.8l-15.6,54.85h32.03l1.48,13.79h-37.49l-11.95,43.03h-13.94l33.52-120.87c4.32-14.45,10.62-24.63,27.55-24.63,19.92,0,23.23,14.12,28.54,31.2l34.19,114.3h-31.53l-12.61-43.03"/>
    <g>
      <polyline class="cls-1" points="367.98 132.33 250.95 132.33 250.95 118.13 367.63 118.13"/>
      <polygon class="cls-1" points="541.69 132.33 541.69 118.13 379.41 118.13 381.44 132.33 541.69 132.33"/>
    </g>
    <g>
      <polyline class="cls-1" points="241.73 117.66 356.19 117.66 358.22 131.86 245.71 131.86"/>
      <rect class="cls-1" x="67.48" y="117.66" width="160.24" height="14.2"/>
    </g>
  </g>
</svg>